<svg width="1000" height="260" viewBox="0 0 1000 260" fill="none" xmlns="http://www.w3.org/2000/svg">
<path d="M148.546 180.196C142.025 191.935 133.112 201.283 121.807 207.804C110.286 214.543 97.242 217.804 82.6768 217.804C67.8942 217.804 54.8507 214.543 43.5464 207.804C32.0246 201.283 23.1116 191.935 16.8072 180.196C10.2855 168.457 7.24201 155.196 7.24201 140.413C7.24201 125.848 10.2855 112.587 16.8072 100.848C23.1116 89.1087 32.0246 79.7609 43.5464 73.0217C54.8507 66.5 67.8942 63.0217 82.6768 63.0217C97.242 63.0217 110.286 66.5 121.807 73.0217C133.112 79.7609 142.025 89.1087 148.546 100.848C154.851 112.587 158.112 125.848 158.112 140.413C158.112 155.196 154.851 168.457 148.546 180.196ZM45.7203 166.065C49.1985 173.674 53.9811 179.543 60.5029 183.891C66.8072 188.239 74.1985 190.196 82.6768 190.196C90.9377 190.196 98.1116 188.239 104.633 183.891C110.938 179.543 115.938 173.674 119.416 166.065C122.894 158.674 124.633 149.978 124.633 140.413C124.633 130.848 122.894 122.37 119.416 114.761C115.938 107.37 110.938 101.5 104.633 97.1522C98.1116 92.8043 90.9377 90.6304 82.6768 90.6304C74.1985 90.6304 66.8072 92.8043 60.5029 97.1522C53.9811 101.5 49.1985 107.37 45.7203 114.761C42.242 122.37 40.5029 130.848 40.5029 140.413C40.5029 149.978 42.242 158.674 45.7203 166.065ZM198.945 210.848C190.032 206.065 183.076 199.326 178.293 190.63C173.511 181.935 171.119 171.935 171.119 160.63C171.119 149.326 173.511 139.326 178.293 130.63C183.076 121.935 190.032 115.413 198.945 110.63C207.859 105.848 218.293 103.457 230.032 103.457C241.772 103.457 251.989 105.848 260.902 110.63C269.815 115.413 276.772 121.935 281.554 130.63C286.337 139.326 288.945 149.326 288.945 160.63C288.945 172.152 286.337 182.152 281.554 190.848C276.772 199.543 269.815 206.065 260.902 210.848C251.989 215.63 241.772 217.804 230.032 217.804C218.293 217.804 207.859 215.63 198.945 210.848ZM250.25 183.891C255.25 178.022 257.859 170.196 257.859 160.63C257.859 151.065 255.25 143.457 250.25 137.37C245.25 131.5 238.511 128.457 230.032 128.457C221.554 128.457 214.815 131.5 209.815 137.37C204.815 143.457 202.424 151.065 202.424 160.63C202.424 170.196 204.815 178.022 209.815 183.891C214.815 189.978 221.554 192.804 230.032 192.804C238.511 192.804 245.25 189.978 250.25 183.891ZM329.295 210.848C320.382 206.065 313.426 199.326 308.643 190.63C303.861 181.935 301.469 171.935 301.469 160.63C301.469 149.326 303.861 139.326 308.643 130.63C313.426 121.935 320.382 115.413 329.295 110.63C338.208 105.848 348.643 103.457 360.382 103.457C372.121 103.457 382.339 105.848 391.252 110.63C400.165 115.413 407.121 121.935 411.904 130.63C416.687 139.326 419.295 149.326 419.295 160.63C419.295 172.152 416.687 182.152 411.904 190.848C407.121 199.543 400.165 206.065 391.252 210.848C382.339 215.63 372.121 217.804 360.382 217.804C348.643 217.804 338.208 215.63 329.295 210.848ZM380.6 183.891C385.6 178.022 388.208 170.196 388.208 160.63C388.208 151.065 385.6 143.457 380.6 137.37C375.6 131.5 368.861 128.457 360.382 128.457C351.904 128.457 345.165 131.5 340.165 137.37C335.165 143.457 332.774 151.065 332.774 160.63C332.774 170.196 335.165 178.022 340.165 183.891C345.165 189.978 351.904 192.804 360.382 192.804C368.861 192.804 375.6 189.978 380.6 183.891ZM589.995 210.848C581.082 206.065 574.125 199.326 569.343 190.63C564.56 181.935 562.169 171.935 562.169 160.63C562.169 149.326 564.56 139.326 569.343 130.63C574.125 121.935 581.082 115.413 589.995 110.63C598.908 105.848 609.343 103.457 621.082 103.457C632.821 103.457 643.039 105.848 651.952 110.63C660.865 115.413 667.821 121.935 672.604 130.63C677.386 139.326 679.995 149.326 679.995 160.63C679.995 172.152 677.386 182.152 672.604 190.848C667.821 199.543 660.865 206.065 651.952 210.848C643.039 215.63 632.821 217.804 621.082 217.804C609.343 217.804 598.908 215.63 589.995 210.848ZM641.299 183.891C646.299 178.022 648.908 170.196 648.908 160.63C648.908 151.065 646.299 143.457 641.299 137.37C636.299 131.5 629.56 128.457 621.082 128.457C612.604 128.457 605.865 131.5 600.865 137.37C595.865 143.457 593.473 151.065 593.473 160.63C593.473 170.196 595.865 178.022 600.865 183.891C605.865 189.978 612.604 192.804 621.082 192.804C629.56 192.804 636.299 189.978 641.299 183.891ZM787.954 110.63C795.78 115.413 801.867 121.935 806.214 130.63C810.562 139.326 812.954 149.543 812.954 160.848C812.954 172.37 810.562 182.37 806.214 190.848C801.867 199.543 795.78 206.065 787.954 210.848C780.128 215.63 771.214 217.804 761.214 217.804C746.867 217.804 735.562 212.804 727.519 202.37V259.978H696.867V104.761H723.606L726.649 120.196C730.345 115.196 735.128 111.065 740.997 108.022C746.867 104.978 753.606 103.457 761.432 103.457C771.432 103.457 780.128 105.848 787.954 110.63ZM774.258 183.891C779.258 177.804 781.867 169.978 781.867 160.413C781.867 150.848 779.258 143.239 774.258 137.37C769.041 131.5 762.519 128.457 754.258 128.457C745.997 128.457 739.258 131.5 734.475 137.37C729.475 143.239 727.084 150.848 727.084 160.413C727.084 170.196 729.475 178.022 734.475 183.891C739.258 189.978 745.997 192.804 754.258 192.804C762.519 192.804 769.041 189.978 774.258 183.891ZM854.127 179.326C854.562 184.326 856.953 188.239 861.301 191.283C865.649 194.326 871.084 195.848 878.04 195.848C884.562 195.848 889.562 194.978 893.475 192.804C897.171 190.63 899.127 187.587 899.127 183.674C899.127 180.848 898.258 178.674 896.519 177.152C894.779 175.848 892.171 174.761 889.127 174.109C885.866 173.457 880.649 172.587 873.475 171.717C863.475 170.413 855.432 168.891 848.91 166.717C842.388 164.761 837.171 161.5 833.258 157.152C829.345 152.804 827.388 147.152 827.388 139.761C827.388 132.587 829.345 126.283 833.258 120.63C837.171 114.978 842.823 110.63 850.214 107.587C857.388 104.543 865.649 103.022 875.214 103.022C890.432 103.239 902.606 106.5 911.953 112.804C921.301 119.326 926.301 128.022 927.171 139.326H898.04C897.606 135.196 895.214 131.717 891.301 129.109C887.388 126.5 882.171 124.978 876.084 124.978C870.214 124.978 865.432 126.065 861.953 128.239C858.475 130.413 856.736 133.457 856.736 136.935C856.736 139.543 857.606 141.5 859.562 142.804C861.301 144.109 863.91 145.196 866.953 145.63C869.997 146.283 874.997 146.935 882.171 147.587C897.171 149.326 908.692 152.587 916.736 157.37C924.779 162.152 928.91 170.196 928.91 181.5C928.91 188.891 926.736 195.196 922.388 200.63C918.04 206.283 912.171 210.413 904.562 213.457C896.953 216.5 888.258 217.804 878.258 217.804C862.606 217.804 849.997 214.543 840.432 207.587C830.649 200.63 825.432 191.283 824.997 179.326H854.127ZM955.875 169.326L950.875 64.3261H983.701L979.136 169.326H955.875ZM954.136 186.717C957.614 183.239 961.962 181.5 967.179 181.5C972.397 181.5 976.962 183.239 980.44 186.717C983.918 190.196 985.657 194.543 985.657 199.761C985.657 204.978 983.918 209.326 980.44 212.804C976.962 216.283 972.397 217.804 967.179 217.804C961.962 217.804 957.614 216.283 954.136 212.804C950.657 209.326 948.918 204.978 948.918 199.761C948.918 194.543 950.657 190.196 954.136 186.717Z" fill="#1D1D1D"/>
<path d="M459.645 210.848C450.732 206.065 443.776 199.326 438.993 190.63C434.21 181.935 431.819 171.935 431.819 160.63C431.819 149.326 434.21 139.326 438.993 130.63C443.776 121.935 450.732 115.413 459.645 110.63C468.558 105.848 478.993 103.457 490.732 103.457C502.471 103.457 512.689 105.848 521.602 110.63C530.515 115.413 537.471 121.935 542.254 130.63C547.037 139.326 549.645 149.326 549.645 160.63C549.645 172.152 547.037 182.152 542.254 190.848C537.471 199.543 530.515 206.065 521.602 210.848C512.689 215.63 502.471 217.804 490.732 217.804C478.993 217.804 468.558 215.63 459.645 210.848ZM510.95 183.891C515.95 178.022 518.558 170.196 518.558 160.63C518.558 151.065 515.95 143.457 510.95 137.37C505.95 131.5 499.21 128.457 490.732 128.457C482.254 128.457 475.515 131.5 470.515 137.37C465.515 143.457 463.123 151.065 463.123 160.63C463.123 170.196 465.515 178.022 470.515 183.891C475.515 189.978 482.254 192.804 490.732 192.804C499.21 192.804 505.95 189.978 510.95 183.891Z" fill="white"/>
<path d="M450.322 69.2633L429.465 67.0963C425.944 66.8254 423.506 63.8458 423.506 60.3244C423.506 56.8031 426.215 54.0944 429.465 53.5526L450.322 51.3856C454.385 50.8439 457.636 54.0944 457.636 58.1575V62.7623C457.636 66.8254 454.115 69.805 450.322 69.2633Z" fill="#F3877E"/>
<path d="M385.268 106.276V43.4776M385.268 71.1198C476.783 92.5895 430.891 136.334 469 162.634M440.284 100.104V69.778M401.102 50.4553H391.978C388.22 50.4553 385 47.5032 385 43.4776C385 39.7204 387.952 36.5 391.978 36.5H401.102M449.946 70.5831L429.281 68.4361C425.792 68.1677 423.377 65.2157 423.377 61.7268C423.377 58.238 426.061 55.5543 429.281 55.0176L449.946 52.8706C453.971 52.3339 457.192 55.5543 457.192 59.5799V64.1422C457.192 68.1677 453.703 71.1198 449.946 70.5831Z" stroke="#1D1D1D" stroke-width="6.21" stroke-miterlimit="10" stroke-linecap="round" stroke-linejoin="round"/>
<path d="M492.239 233C523.969 233 549.692 211.754 549.692 185.545C549.692 159.336 523.969 138.09 492.239 138.09C460.508 138.09 434.785 159.336 434.785 185.545C434.785 211.754 460.508 233 492.239 233Z" fill="#00B377"/>
<path d="M492.238 222.739C517.108 222.739 537.269 206.087 537.269 185.545C537.269 165.003 517.108 148.351 492.238 148.351C467.368 148.351 447.207 165.003 447.207 185.545C447.207 206.087 467.368 222.739 492.238 222.739Z" fill="white"/>
<path d="M492.237 194.267C498.068 194.267 502.796 190.362 502.796 185.545C502.796 180.728 498.068 176.824 492.237 176.824C486.405 176.824 481.678 180.728 481.678 185.545C481.678 190.362 486.405 194.267 492.237 194.267Z" fill="#FFC408"/>
<path d="M492.239 233C523.969 233 549.692 211.754 549.692 185.545C549.692 159.336 523.969 138.09 492.239 138.09C460.508 138.09 434.785 159.336 434.785 185.545C434.785 211.754 460.508 233 492.239 233Z" stroke="#1D1D1D" stroke-width="6.21118" stroke-miterlimit="10" stroke-linecap="round" stroke-linejoin="round"/>
<path d="M492.238 222.739C517.108 222.739 537.269 206.087 537.269 185.545C537.269 165.003 517.108 148.351 492.238 148.351C467.368 148.351 447.207 165.003 447.207 185.545C447.207 206.087 467.368 222.739 492.238 222.739Z" stroke="#1D1D1D" stroke-width="6.21118" stroke-miterlimit="10" stroke-linecap="round" stroke-linejoin="round"/>
<path d="M492.237 194.267C498.068 194.267 502.796 190.362 502.796 185.545C502.796 180.728 498.068 176.824 492.237 176.824C486.405 176.824 481.678 180.728 481.678 185.545C481.678 190.362 486.405 194.267 492.237 194.267Z" stroke="#1D1D1D" stroke-width="6.21118" stroke-miterlimit="10" stroke-linecap="round" stroke-linejoin="round"/>
<path d="M492.238 176.824V148.351M492.238 222.74V194.523M502.797 185.545H537.269M447.207 185.545H481.369M499.691 179.389L523.915 159.381M460.251 211.966L484.474 191.958M499.691 191.958L523.915 211.966M460.251 159.381L484.474 179.389" stroke="#1D1D1D" stroke-width="6.21118" stroke-miterlimit="10" stroke-linecap="round" stroke-linejoin="round"/>
<path d="M361.801 219.997C393.532 219.997 419.254 194.274 419.254 162.543C419.254 130.813 393.532 105.09 361.801 105.09C330.07 105.09 304.348 130.813 304.348 162.543C304.348 194.274 330.07 219.997 361.801 219.997Z" fill="#00B377"/>
<path d="M361.801 207.575C386.671 207.575 406.832 187.413 406.832 162.543C406.832 137.673 386.671 117.512 361.801 117.512C336.931 117.512 316.77 137.673 316.77 162.543C316.77 187.413 336.931 207.575 361.801 207.575Z" fill="white"/>
<path d="M361.799 173.103C367.631 173.103 372.358 168.375 372.358 162.544C372.358 156.712 367.631 151.985 361.799 151.985C355.968 151.985 351.24 156.712 351.24 162.544C351.24 168.375 355.968 173.103 361.799 173.103Z" fill="#2AABF5"/>
<path d="M361.801 219.997C393.532 219.997 419.254 194.274 419.254 162.543C419.254 130.813 393.532 105.09 361.801 105.09C330.07 105.09 304.348 130.813 304.348 162.543C304.348 194.274 330.07 219.997 361.801 219.997Z" stroke="#1D1D1D" stroke-width="6.21118" stroke-miterlimit="10" stroke-linecap="round" stroke-linejoin="round"/>
<path d="M361.801 207.575C386.671 207.575 406.832 187.413 406.832 162.543C406.832 137.673 386.671 117.512 361.801 117.512C336.931 117.512 316.77 137.673 316.77 162.543C316.77 187.413 336.931 207.575 361.801 207.575Z" stroke="#1D1D1D" stroke-width="6.21118" stroke-miterlimit="10" stroke-linecap="round" stroke-linejoin="round"/>
<path d="M361.799 173.103C367.631 173.103 372.358 168.375 372.358 162.544C372.358 156.712 367.631 151.985 361.799 151.985C355.968 151.985 351.24 156.712 351.24 162.544C351.24 168.375 355.968 173.103 361.799 173.103Z" stroke="#1D1D1D" stroke-width="6.21118" stroke-miterlimit="10" stroke-linecap="round" stroke-linejoin="round"/>
<path d="M361.801 151.985V117.513M361.801 207.575V173.413M372.36 162.544H406.832M316.77 162.544H350.931M369.254 155.09L393.478 130.867M329.813 194.531L354.037 170.308M369.254 170.308L393.478 194.531M329.813 130.867L354.037 155.09" stroke="#1D1D1D" stroke-width="6.21118" stroke-miterlimit="10" stroke-linecap="round" stroke-linejoin="round"/>
</svg>
