<svg width="27" height="18" viewBox="0 0 27 18" fill="none" xmlns="http://www.w3.org/2000/svg">
<path fill-rule="evenodd" clip-rule="evenodd" d="M23.6886 14.0442C20.8182 16.1886 16.6572 17.3288 13.0737 17.3288C8.05157 17.3288 3.52922 15.4494 0.107291 12.3214C-0.161337 12.0757 0.0779735 11.7403 0.401145 11.9308C4.09307 14.1056 8.65905 15.4156 13.375 15.4156C16.5563 15.4156 20.0532 14.7475 23.2713 13.3657C23.7561 13.1566 24.1631 13.6887 23.6886 14.0442ZM24.8824 12.6638C25.2499 13.14 24.474 15.1009 24.1276 15.9767C24.0226 16.2418 24.2476 16.3488 24.4849 16.1479C26.0244 14.8441 26.4226 12.1116 26.1076 11.7168C25.7946 11.3255 23.1029 10.9887 21.4598 12.1565C21.2068 12.3359 21.2505 12.5844 21.5307 12.5499C22.4559 12.4381 24.5156 12.1875 24.8824 12.6638Z" fill="#FF9900"/>
<path fill-rule="evenodd" clip-rule="evenodd" d="M20.7268 9.15272L23.7144 1.4549C23.7772 1.29891 23.8092 1.18917 23.8092 1.12498C23.8092 1.01524 23.7458 0.960023 23.619 0.960023H22.8588C22.7136 0.960023 22.6147 0.98349 22.5595 1.02904C22.5049 1.07529 22.4511 1.17606 22.3965 1.33204L20.5632 6.66523L18.6623 1.33204C18.6078 1.17606 18.5539 1.07529 18.4994 1.02904C18.4448 0.98349 18.3453 0.960023 18.2001 0.960023H17.3853C17.2585 0.960023 17.1951 1.01524 17.1951 1.12498C17.1951 1.18917 17.2265 1.29891 17.2899 1.4549L19.9107 7.99801L19.653 8.69926C19.4989 9.1396 19.3271 9.44191 19.1369 9.60687C18.9466 9.77183 18.6794 9.85396 18.3358 9.85396C18.1817 9.85396 18.0596 9.8443 17.9696 9.82636C17.879 9.80841 17.8108 9.79875 17.7658 9.79875C17.6301 9.79875 17.5619 9.88571 17.5619 10.0596V10.4172C17.5619 10.5455 17.5844 10.6394 17.6301 10.6988C17.6751 10.7581 17.7474 10.8023 17.8476 10.8292C18.0733 10.8927 18.3317 10.9258 18.6214 10.9258C19.1376 10.9258 19.5562 10.7885 19.8773 10.5131C20.1998 10.2391 20.4827 9.78494 20.7268 9.15272Z" fill="#232F3E"/>
<path fill-rule="evenodd" clip-rule="evenodd" d="M9.57402 2.85188C9.44243 2.40739 9.25494 2.02916 9.01017 1.71788C8.76609 1.4066 8.46747 1.16779 8.1143 1.00283C7.76181 0.837871 7.36773 0.755737 6.93274 0.755737C6.52571 0.755737 6.12686 0.83304 5.73824 0.989026C5.34893 1.14501 4.98213 1.37416 4.63782 1.67647L4.57032 1.23612C4.54305 1.05321 4.43874 0.961417 4.25738 0.961417H3.66013C3.47945 0.961417 3.38877 1.05321 3.38877 1.23612V10.4876C3.38877 10.6712 3.47945 10.7623 3.66013 10.7623H4.46123C4.64259 10.7623 4.73259 10.6705 4.73259 10.4876V7.27124C5.32098 7.81167 6.02255 8.08223 6.83729 8.08223C7.28046 8.08223 7.6834 7.9925 8.04543 7.81443C8.40747 7.63567 8.71496 7.38582 8.96858 7.06487C9.22221 6.74462 9.41925 6.35534 9.55902 5.89636C9.69947 5.43807 9.76971 4.92456 9.76971 4.35652C9.77106 3.79815 9.70492 3.29637 9.57402 2.85188ZM6.52571 6.98205C5.90937 6.98205 5.31212 6.76256 4.73327 6.32222V2.48745C5.30325 2.06574 5.91005 1.85523 6.55298 1.85523C7.78431 1.85523 8.39997 2.71246 8.39997 4.42554C8.39929 6.13034 7.77476 6.98205 6.52571 6.98205Z" fill="#232F3E"/>
<path fill-rule="evenodd" clip-rule="evenodd" d="M15.6972 1.29547C15.2895 0.938637 14.6561 0.759875 13.7964 0.759875C13.371 0.759875 12.9455 0.799216 12.5201 0.876519C12.094 0.954512 11.7367 1.05735 11.4469 1.18573C11.3385 1.23197 11.2656 1.2796 11.2294 1.32998C11.1933 1.38037 11.1749 1.47009 11.1749 1.59778V1.96842C11.1749 2.13338 11.2335 2.2162 11.3515 2.2162C11.3876 2.2162 11.4265 2.2093 11.4674 2.19549C11.5083 2.18169 11.5424 2.17065 11.569 2.16098C12.2664 1.95047 12.9312 1.84487 13.5653 1.84487C14.108 1.84487 14.4884 1.94564 14.7059 2.14787C14.9234 2.34941 15.0318 2.69727 15.0318 3.19215V4.09907C14.3984 3.94309 13.8278 3.86578 13.3205 3.86578C12.5242 3.86578 11.8908 4.06525 11.4197 4.4635C10.9492 4.86174 10.7133 5.39596 10.7133 6.06477C10.7133 6.68871 10.9035 7.18496 11.284 7.55629C11.6637 7.92762 12.1799 8.1126 12.8317 8.1126C13.221 8.1126 13.6123 8.0346 14.0064 7.87931C14.4005 7.72401 14.7598 7.50315 15.0857 7.21947L15.1538 7.67294C15.1811 7.84687 15.2807 7.93383 15.4532 7.93383H16.0368C16.2174 7.93383 16.3088 7.84204 16.3088 7.65913V2.95886C16.3081 2.20723 16.1043 1.653 15.6972 1.29547ZM15.0318 6.38226C14.7332 6.61141 14.4209 6.78534 14.095 6.90474C13.7691 7.02415 13.4569 7.0835 13.1582 7.0835C12.8051 7.0835 12.5337 6.98964 12.3435 6.8019C12.1533 6.61417 12.0585 6.34637 12.0585 5.99782C12.0585 5.20063 12.5698 4.8017 13.5925 4.8017C13.8278 4.8017 14.0698 4.81826 14.3187 4.85001C14.5675 4.88245 14.8055 4.92593 15.0318 4.98046V6.38226Z" fill="#232F3E"/>
</svg>
