<svg width="60" height="60" viewBox="0 0 60 60" fill="none" xmlns="http://www.w3.org/2000/svg">
<path d="M29.8866 57.8261C45.2546 57.8261 57.7127 45.368 57.7127 30C57.7127 14.6321 45.2546 2.17395 29.8866 2.17395C14.5187 2.17395 2.06055 14.6321 2.06055 30C2.06055 45.368 14.5187 57.8261 29.8866 57.8261Z" fill="#C5F0FC"/>
<path d="M35.2893 11.2581C34.5253 11.0849 33.7651 11.5638 33.5918 12.3283L26.5625 41.1055C26.2782 42.3596 25.0906 43.1667 23.8408 43.0228V45.8765C26.3882 46.0136 28.7473 44.3031 29.33 41.7328L36.3594 12.9556C36.5327 12.1912 36.0533 11.4313 35.2893 11.2581Z" fill="white"/>
<path d="M24.133 46.3192C24.0286 46.3192 23.9224 46.3162 23.8163 46.3107L23.4053 46.2882V42.5348L23.8902 42.5908C24.9372 42.7097 25.9061 42.032 26.138 41.0092L33.1692 12.2252C33.277 11.7493 33.5675 11.3378 33.9861 11.0737C34.4048 10.8092 34.8998 10.7247 35.3847 10.8338C36.3817 11.0602 37.0084 12.055 36.7825 13.0515L29.7512 41.8359C29.1534 44.4739 26.819 46.3192 24.133 46.3192ZM24.2748 43.471V45.4475C26.4955 45.3838 28.407 43.8357 28.9054 41.6368L35.9367 12.8524C36.0547 12.3301 35.7219 11.8019 35.1928 11.6822C34.9381 11.6244 34.6723 11.6694 34.4506 11.8091C34.2281 11.9497 34.0736 12.1679 34.015 12.4244L26.9837 41.2088C26.6916 42.4991 25.5698 43.4086 24.2748 43.471Z" fill="black"/>
<path d="M36.5952 8.33656C37.8818 8.33656 38.9248 7.29358 38.9248 6.00699C38.9248 4.72041 37.8818 3.67743 36.5952 3.67743C35.3086 3.67743 34.2656 4.72041 34.2656 6.00699C34.2656 7.29358 35.3086 8.33656 36.5952 8.33656Z" fill="#0066ED"/>
<path d="M36.595 8.77203C36.3929 8.77203 36.1882 8.74995 35.9836 8.70367C35.2635 8.5402 34.6495 8.10627 34.2555 7.48169C33.8623 6.85712 33.735 6.11663 33.8988 5.39652C34.0619 4.67599 34.4958 4.06245 35.12 3.66885C35.745 3.27441 36.4863 3.14745 37.2056 3.31092C37.9257 3.47439 38.5396 3.90832 38.9337 4.5329C39.3268 5.15747 39.4542 5.89839 39.2903 6.6185C38.9999 7.90034 37.8569 8.77203 36.595 8.77203ZM36.5908 4.1117C36.2375 4.1117 35.8902 4.21106 35.5836 4.40425C35.1556 4.67429 34.8584 5.09463 34.7463 5.58844C34.6351 6.08224 34.7217 6.59005 34.9917 7.01804C35.2618 7.44603 35.6821 7.74367 36.1755 7.85533C37.1903 8.08674 38.211 7.44518 38.4428 6.42658C38.5541 5.93278 38.4675 5.42497 38.1974 4.99655C37.9274 4.56856 37.507 4.27093 37.0137 4.15926C36.8727 4.12741 36.7317 4.1117 36.5908 4.1117Z" fill="black"/>
<path d="M50.6092 30.959C46.4684 30.4634 43.3326 28.9551 41.4322 26.1985C41.4322 26.1985 35.8139 27.14 32.0577 26.0228C28.1868 25.4111 23.5237 22.1389 23.5237 22.1389C20.6204 23.8067 17.1408 23.8153 13.191 22.4769C11.1156 21.7628 10.3108 19.2545 11.6141 17.512C19.8265 6.59225 29.8893 4.48738 36.5948 6.00742C43.3004 7.52745 51.4719 13.7657 54.1729 27.1594C54.5974 29.2935 52.7897 31.2096 50.6092 30.959Z" fill="#FF6C55"/>
<path d="M50.6101 30.9565C46.4681 30.4658 43.3295 28.9516 41.4313 26.1967C41.4313 26.1967 35.8164 27.1443 32.0575 26.0212C28.1818 25.4137 23.5244 22.1375 23.5244 22.1375C20.6238 23.8046 17.1389 23.8174 13.1902 22.474C11.1102 21.7627 10.3124 19.2572 11.6157 17.5093C13.2304 15.3526 14.922 13.5469 16.6497 12.0413C20.637 13.9042 25.5847 15.5783 31.0579 16.8189C38.861 18.5878 46.1062 19.0938 51.262 18.4696C52.4931 20.9482 53.5064 23.8362 54.1716 27.1561C54.5938 29.295 52.7936 31.2117 50.6101 30.9565Z" fill="#FF544C"/>
<path d="M50.9982 31.4165C50.853 31.4165 50.707 31.408 50.5601 31.391H50.5575C46.2853 30.8793 43.1501 29.2914 41.2335 26.6695C40.0455 26.8444 35.3129 27.4444 31.9332 26.4398C28.5008 25.9006 24.4952 23.3199 23.4999 22.6499C20.6399 24.1882 17.126 24.2697 13.0516 22.8889C11.9137 22.4975 11.0611 21.6186 10.7104 20.4768C10.3656 19.3593 10.5686 18.1836 11.2657 17.2516C19.5241 6.27167 29.8119 4.02515 36.6903 5.5834C43.5679 7.14251 51.8831 13.6065 54.5988 27.0737C54.8264 28.2163 54.502 29.3644 53.7097 30.2246C52.9998 30.9944 52.03 31.4165 50.9982 31.4165ZM50.6594 30.5274C51.5714 30.628 52.4512 30.307 53.0703 29.6353C53.6715 28.9818 53.9186 28.1102 53.7462 27.2444C51.1129 14.1852 43.1102 7.93013 36.4984 6.43174C29.8841 4.92996 19.9699 7.1251 11.9612 17.773C11.433 18.4795 11.2793 19.372 11.5409 20.2212C11.8101 21.0942 12.4631 21.7667 13.3327 22.0661C17.3289 23.4201 20.5923 23.3212 23.3072 21.7621L23.5466 21.6245L23.7734 21.7833C23.8192 21.8151 28.4006 25.0047 32.1251 25.5936C35.7953 26.6797 41.3048 25.7787 41.36 25.7698L41.6334 25.7244L41.7905 25.952C43.5662 28.5284 46.4678 30.0251 50.6594 30.5274Z" fill="black"/>
<path d="M23.0886 22.1518C22.6912 8.60519 36.3673 5.61054 36.5057 5.58167L36.6823 6.4334C36.1473 6.54507 23.582 9.31553 23.9581 22.1263L23.0886 22.1518Z" fill="black"/>
<path d="M41.8185 26.3973L41.0457 25.9999C46.9085 14.603 36.7658 6.68477 36.3311 6.35358L36.8575 5.6615C36.9696 5.74684 48.0184 14.3461 41.8185 26.3973Z" fill="black"/>
<path d="M29.9939 48.6627C30.0107 58.7541 6.52628 58.6529 5.58668 48.6627C5.39856 46.6631 5.73813 44.6523 6.73763 42.9077C8.68233 39.5152 11.7113 36.5105 15.14 33.1725L20.4406 33.1666C23.8695 36.5105 26.8984 39.5152 28.843 42.9077C29.8425 44.6523 29.9907 46.6542 29.9939 48.6627Z" fill="#00C53B"/>
<path d="M29.9933 48.6666C30.0113 58.7586 6.52898 58.651 5.58796 48.6666C5.43555 47.0085 5.64168 45.3504 6.2781 43.8357C9.00268 45.8254 12.4893 47.0175 16.3074 47.0175C21.1472 47.0175 25.4672 45.0995 28.3442 42.079C28.5144 42.3479 28.6848 42.6258 28.8462 42.9036C29.8409 44.6513 29.9933 46.65 29.9933 48.6666Z" fill="#00B327"/>
<path d="M23.1957 30.0669L20.3729 33.1641H15.1593L12.3365 30.0669C12.0667 29.7709 12.0743 29.3142 12.3588 29.0323C12.7084 28.6859 13.3367 28.312 14.4353 28.2622L14.1883 27.3863C14.0769 26.991 14.3024 26.5738 14.6976 26.462C16.5046 25.9504 18.5379 25.9843 20.7707 26.4994C21.1898 26.5961 21.4465 27.0224 21.3297 27.4363L21.0969 28.2622C22.1955 28.312 22.8237 28.6859 23.1734 29.0323C23.4579 29.3142 23.4655 29.7709 23.1957 30.0669Z" fill="#00C53B"/>
<path d="M23.1912 30.069L20.377 33.1611H15.1607L12.5615 30.311C13.8163 30.9832 15.4744 31.3865 17.3027 31.3865C19.893 31.3865 22.1605 30.5709 23.3615 29.3699C23.4333 29.6119 23.3705 29.8718 23.1912 30.069Z" fill="#00B327"/>
<path d="M18.1635 56.6291C11.905 56.6291 5.65245 54.0047 5.15398 48.7037C4.94763 46.509 5.36458 44.4302 6.36067 42.6915C8.26114 39.3763 11.0728 36.526 14.8372 32.8609C14.9179 32.7819 15.0266 32.7378 15.1395 32.7378L20.4402 32.7318C20.5539 32.7318 20.6635 32.776 20.745 32.8554C23.9091 35.9422 27.181 39.1338 29.2199 42.6915C30.2771 44.5363 30.4257 46.6512 30.4291 48.6621C30.4376 53.7784 24.8092 56.3375 19.2275 56.6037C18.8734 56.6207 18.5184 56.6291 18.1635 56.6291ZM15.317 33.6073C11.6672 37.1633 8.93795 39.9435 7.11475 43.1237C6.20867 44.7057 5.82993 46.6071 6.02015 48.6222C6.49059 53.6281 13.1524 56.0275 19.1868 55.735C24.3549 55.4887 29.5663 53.2057 29.5595 48.6638C29.5562 46.7727 29.422 44.7924 28.4658 43.1237C26.5135 39.7181 23.3461 36.6079 20.2644 33.6014L15.317 33.6073Z" fill="black"/>
<path d="M20.3726 33.5988H15.1594C15.0372 33.5988 14.9208 33.5474 14.8384 33.457L12.0149 30.36C11.5861 29.8879 11.6031 29.1695 12.0531 28.7236C12.3758 28.4039 12.9414 28.0235 13.8755 27.8804L13.7693 27.5042C13.5927 26.8754 13.9553 26.2203 14.5786 26.0436C16.4103 25.5239 18.5256 25.535 20.8685 26.0755C21.1853 26.1489 21.4612 26.3506 21.6268 26.63C21.7933 26.9115 21.8366 27.2397 21.7483 27.5539L21.6566 27.8804C22.5907 28.0235 23.1562 28.4039 23.4789 28.7232C23.9298 29.1699 23.946 29.8887 23.5163 30.36L20.6936 33.457C20.6112 33.5474 20.4949 33.5988 20.3726 33.5988ZM15.3514 32.7293H20.1807L22.8743 29.7741C22.9881 29.6484 22.9855 29.4582 22.8675 29.341C22.5949 29.0718 22.0633 28.7411 21.0774 28.6965C20.9449 28.6905 20.8218 28.6243 20.7445 28.5169C20.6664 28.409 20.6426 28.2719 20.6783 28.1441L20.911 27.3182C20.9347 27.2355 20.9229 27.148 20.8787 27.0733C20.8328 26.9964 20.7598 26.9429 20.6732 26.923C18.4755 26.4164 16.5054 26.4011 14.8155 26.8801C14.6533 26.9263 14.5591 27.1004 14.6066 27.2686L14.8537 28.1441C14.8894 28.2719 14.8656 28.409 14.7875 28.5164C14.7102 28.6243 14.5871 28.6905 14.4546 28.6965C13.4687 28.7411 12.9371 29.0718 12.6645 29.3414C12.5465 29.4586 12.5431 29.6488 12.6577 29.7749L15.3514 32.7293Z" fill="black"/>
<path d="M15.7782 30.0645C15.6653 30.0645 15.5532 30.0212 15.4683 29.9346L14.1248 28.567C13.9567 28.3955 13.9584 28.1203 14.1299 27.9518C14.3023 27.7849 14.5775 27.7862 14.7447 27.9573L16.0882 29.3249C16.2563 29.4964 16.2546 29.7716 16.0831 29.9401C15.9981 30.0229 15.8886 30.0645 15.7782 30.0645ZM19.006 31.0509C18.9032 31.0509 18.8005 31.0148 18.7172 30.9413C18.5381 30.7817 18.5211 30.507 18.6807 30.3274L20.7714 27.9734C20.9302 27.7934 21.2045 27.7773 21.3854 27.9369C21.5646 28.0966 21.5815 28.3713 21.4219 28.5509L19.3312 30.9048C19.2454 31.0016 19.1257 31.0509 19.006 31.0509ZM15.858 38.8927C15.8521 38.8927 15.8453 38.8927 15.8385 38.8922C15.599 38.8816 15.4131 38.6787 15.4241 38.4388C15.5982 34.4786 17.5046 32.894 17.5853 32.8286C17.7449 32.6996 17.9725 32.6996 18.1321 32.8286C18.1958 32.88 19.698 34.1292 19.8348 37.2253C19.8458 37.4652 19.6598 37.6681 19.4204 37.6788C19.4136 37.6792 19.4068 37.6792 19.4008 37.6792C19.169 37.6792 18.9771 37.497 18.9669 37.2635C18.8828 35.3702 18.2307 34.2786 17.8528 33.7984C17.367 34.3754 16.4091 35.8369 16.292 38.477C16.2818 38.7105 16.0899 38.8927 15.858 38.8927Z" fill="black"/>
<path d="M23.6945 47.0136C23.6945 50.2945 21.0472 52.9419 17.7662 52.9419C15.0622 52.9419 12.7882 51.143 12.0754 48.6653C11.9171 48.1449 11.8379 47.5906 11.8379 47.0136C11.8379 43.7326 14.4852 41.0853 17.7662 41.0853C20.3796 41.0853 22.5971 42.771 23.3778 45.1242C23.5814 45.7125 23.6945 46.346 23.6945 47.0136Z" fill="white"/>
<path d="M23.6943 47.0136C23.6943 50.2945 21.0469 52.9419 17.766 52.9419C15.062 52.9419 12.788 51.143 12.0752 48.6654C16.5894 48.6315 20.6283 47.2738 23.3775 45.1243C23.5812 45.7125 23.6943 46.3461 23.6943 47.0136Z" fill="#EBF0F2"/>
<path d="M17.7655 53.3823C14.2541 53.3823 11.3975 50.5252 11.3975 47.0138C11.3975 43.502 14.2541 40.645 17.7655 40.645C21.2777 40.645 24.1344 43.502 24.1344 47.0138C24.1344 50.5252 21.2777 53.3823 17.7655 53.3823ZM17.7655 41.5145C14.7339 41.5145 12.267 43.9814 12.267 47.0138C12.267 50.0459 14.7339 52.5127 17.7655 52.5127C20.7979 52.5127 23.2648 50.0459 23.2648 47.0138C23.2648 43.9814 20.7979 41.5145 17.7655 41.5145Z" fill="black"/>
<path d="M19.3292 47.3433C19.1811 47.1608 18.9947 47.0213 18.776 46.9292C18.5824 46.8478 18.3396 46.7709 18.0534 46.7007V45.3194C18.3463 45.3387 18.6244 45.3941 18.8784 45.4835C18.9334 45.5055 18.9786 45.5162 19.0166 45.5162C19.1212 45.5162 19.2107 45.4755 19.2759 45.399C19.3377 45.3257 19.369 45.2421 19.369 45.1509C19.369 44.9809 19.2849 44.8611 19.1275 44.8052C18.8131 44.6849 18.4523 44.612 18.0534 44.5883V44.2262C18.0534 44.1461 18.0239 44.0741 17.968 44.0182C17.854 43.9038 17.659 43.9064 17.554 44.02C17.5012 44.075 17.473 44.1466 17.473 44.2262V44.5995C17.1877 44.6326 16.9373 44.71 16.7276 44.8303C16.4955 44.964 16.3176 45.1352 16.1991 45.3396C16.0806 45.5439 16.0202 45.7697 16.0202 46.0107C16.0202 46.2866 16.0953 46.5196 16.2425 46.7029C16.386 46.8809 16.5671 47.02 16.7813 47.117C16.974 47.2033 17.2065 47.2842 17.473 47.3571V48.6879C17.1332 48.6615 16.8045 48.5787 16.4946 48.441C16.3457 48.3753 16.1776 48.4053 16.0743 48.5179C16.0081 48.589 15.9746 48.6749 15.9746 48.7719C15.9746 48.8461 15.9979 48.9172 16.0435 48.9839C16.0886 49.0487 16.1459 49.0957 16.2134 49.1229C16.6033 49.2897 17.0268 49.3926 17.473 49.4301V49.8075C17.473 49.8938 17.5012 49.9645 17.5575 50.0177C17.6116 50.0687 17.6796 50.0946 17.7596 50.0946C17.8442 50.0946 17.917 50.066 17.9707 50.0128C18.0248 49.9591 18.0534 49.8885 18.0534 49.8075V49.4301C18.3293 49.4055 18.5779 49.3398 18.7935 49.2352C19.0354 49.1171 19.225 48.9566 19.3573 48.7576C19.4906 48.5559 19.5581 48.3283 19.5581 48.0815C19.5581 47.7797 19.4812 47.5315 19.3292 47.3433ZM18.0534 47.506C18.2904 47.5758 18.4746 47.65 18.6016 47.7269C18.7291 47.8047 18.7885 47.9049 18.7885 48.0426C18.7885 48.4169 18.548 48.6275 18.0534 48.6847V47.506ZM16.9762 46.3336C16.8551 46.2464 16.7965 46.1261 16.7965 45.9651C16.7965 45.793 16.8618 45.6579 16.9964 45.5515C17.1175 45.4554 17.2776 45.3879 17.473 45.3498V46.5545C17.2593 46.491 17.0925 46.4168 16.9762 46.3336Z" fill="black"/>
<path d="M42.9365 49.204V52.469C42.9365 54.5963 38.9845 56.323 34.1157 56.323C29.2381 56.323 25.2861 54.5963 25.2861 52.469V49.204H42.9365Z" fill="#EBAE56"/>
<path d="M34.1152 56.7578C28.9199 56.7578 24.8506 54.8739 24.8506 52.469V49.2039C24.8506 48.9636 25.045 48.7691 25.2854 48.7691H42.9357C43.176 48.7691 43.3705 48.9636 43.3705 49.2039V52.469C43.3705 54.8739 39.3054 56.7578 34.1152 56.7578ZM25.7202 49.6387V52.469C25.7202 54.1202 29.0931 55.8882 34.1152 55.8882C39.1313 55.8882 42.5009 54.1202 42.5009 52.469V49.6387H25.7202Z" fill="black"/>
<path d="M34.1121 53.0522C38.9871 53.0522 42.9391 51.3279 42.9391 49.2009C42.9391 47.0739 38.9871 45.3496 34.1121 45.3496C29.2371 45.3496 25.2852 47.0739 25.2852 49.2009C25.2852 51.3279 29.2371 53.0522 34.1121 53.0522Z" fill="#FBC56D"/>
<path d="M34.1126 53.4867C28.919 53.4867 24.8506 51.6041 24.8506 49.2009C24.8506 46.7977 28.919 44.915 34.1126 44.915C39.3063 44.915 43.3739 46.7977 43.3739 49.2009C43.3739 51.6041 39.3063 53.4867 34.1126 53.4867ZM34.1126 45.7846C29.0923 45.7846 25.7202 47.5509 25.7202 49.2009C25.7202 50.8508 29.0923 52.6171 34.1126 52.6171C39.1322 52.6171 42.5043 50.8508 42.5043 49.2009C42.5043 47.5509 39.1322 45.7846 34.1126 45.7846Z" fill="black"/>
<path d="M48.7627 43.7174V46.9824C48.7627 49.1097 44.8107 50.8365 39.9419 50.8365C35.0643 50.8365 31.1123 49.1097 31.1123 46.9824V43.7174H48.7627Z" fill="#EBAE56"/>
<path d="M39.9423 51.2712C34.747 51.2712 30.6777 49.3873 30.6777 46.9824V43.7173C30.6777 43.4769 30.8722 43.2825 31.1125 43.2825H48.7628C49.0031 43.2825 49.1976 43.4769 49.1976 43.7173V46.9824C49.1976 49.3873 45.1326 51.2712 39.9423 51.2712ZM31.5473 44.152V46.9824C31.5473 48.6336 34.9203 50.4016 39.9423 50.4016C44.9585 50.4016 48.328 48.6336 48.328 46.9824V44.152H31.5473Z" fill="black"/>
<path d="M39.9393 47.5661C44.8143 47.5661 48.7662 45.8418 48.7662 43.7148C48.7662 41.5878 44.8143 39.8635 39.9393 39.8635C35.0643 39.8635 31.1123 41.5878 31.1123 43.7148C31.1123 45.8418 35.0643 47.5661 39.9393 47.5661Z" fill="#FBC56D"/>
<path d="M39.9389 48.0001C34.7453 48.0001 30.6777 46.1175 30.6777 43.7143C30.6777 41.3111 34.7453 39.4285 39.9389 39.4285C45.1326 39.4285 49.2002 41.3111 49.2002 43.7143C49.2002 46.1175 45.1326 48.0001 39.9389 48.0001ZM39.9389 40.298C34.9194 40.298 31.5473 42.0643 31.5473 43.7143C31.5473 45.3643 34.9194 47.1306 39.9389 47.1306C44.9585 47.1306 48.3306 45.3643 48.3306 43.7143C48.3306 42.0643 44.9585 40.298 39.9389 40.298Z" fill="black"/>
</svg>
