<svg width="40" height="40" viewBox="0 0 40 40" fill="none" xmlns="http://www.w3.org/2000/svg">
<path d="M6.89254 25.4769L11.0772 13.1692L9.16947 10.1539C8.92331 9.72309 9.04639 9.23079 9.41562 8.98463C9.84639 8.73848 10.3387 8.86155 10.5848 9.23078L12.4925 12.3077H26.831C27.3233 12.3077 27.6925 12.6769 27.6925 13.1692C27.6925 13.6616 27.3233 14.0308 26.831 14.0308H13.6618L20.0618 24.1846L27.3233 14.4616C27.631 14.0923 28.1233 13.9692 28.5541 14.2769C28.9233 14.5846 29.0464 15.1385 28.7387 15.5077L20.6772 26.2769C20.3695 26.7077 20.0002 26.6462 20.0002 26.6462H7.75408C7.44639 26.6462 7.20023 26.5231 7.07716 26.2769C6.831 26.0308 6.831 25.7231 6.89254 25.4769ZM18.4002 24.8616L12.2464 15.0769L8.92331 24.8616H18.4002Z" fill="#1D1D1D"/>
<path d="M32.2462 32.8C36.3078 32.8 39.6924 29.4769 39.6924 25.3539C39.6924 21.2308 36.3693 17.9077 32.2462 17.9077C28.1847 17.9077 24.8001 21.2308 24.8001 25.3539C24.8001 29.4769 28.1847 32.8 32.2462 32.8ZM32.2462 19.6923C35.3847 19.6923 37.9078 22.2154 37.9078 25.3539C37.9078 28.4923 35.3847 31.0154 32.2462 31.0154C29.1078 31.0154 26.5847 28.4923 26.5847 25.3539C26.5847 22.2154 29.1693 19.6923 32.2462 19.6923ZM7.75392 32.8C11.8155 32.8 15.2001 29.4769 15.2001 25.3539C15.2001 21.2308 11.877 17.9077 7.75392 17.9077C3.63084 17.9077 0.307766 21.2308 0.307766 25.3539C0.307766 29.4769 3.63084 32.8 7.75392 32.8ZM7.75392 19.6923C10.8924 19.6923 13.4155 22.2154 13.4155 25.3539C13.4155 28.4923 10.8924 31.0154 7.75392 31.0154C4.61546 31.0154 2.09238 28.4923 2.09238 25.3539C2.09238 22.2154 4.61546 19.6923 7.75392 19.6923Z" fill="#1D1D1D"/>
<path d="M32.6156 26.1539C33.0464 25.9692 33.2925 25.4769 33.1079 25.0462L26.031 7.75386C25.9079 7.44617 25.6002 7.20001 25.231 7.20001H21.3541C20.8618 7.20001 20.4925 7.56924 20.4925 8.06155C20.4925 8.55386 20.8618 8.92309 21.3541 8.92309H24.6156L31.4464 25.7231C31.8156 26.4 32.4925 26.2154 32.6156 26.1539Z" fill="#1D1D1D"/>
<path d="M7.75391 10.5846H12.8616C13.3539 10.5846 13.7231 10.2154 13.7231 9.72305C13.7231 9.23074 13.3539 8.86151 12.8616 8.86151H7.75391C7.26161 8.86151 6.89238 9.23074 6.89238 9.72305C6.83084 10.1538 7.26161 10.5846 7.75391 10.5846Z" fill="#1D1D1D"/>
</svg>
