<svg width="140" height="83" viewBox="0 0 140 83" fill="none" xmlns="http://www.w3.org/2000/svg">
<path d="M37.1595 80.4741C42.4255 78.1839 46.7913 74.0776 49.4425 68.9316C49.8415 68.1573 50.1883 68.0483 50.9586 68.28C53.0245 68.9011 55.1296 69.3922 57.1943 70.0167C60.173 70.9178 62.8647 70.3778 65.2712 68.4767C65.7938 68.0639 66.0047 68.3514 66.2815 68.6245C66.5739 68.913 67.1926 68.9541 66.862 69.706C65.9724 71.7293 67.1124 73.3902 69.3287 73.4056C70.8262 73.416 72.3239 73.4209 73.8213 73.4061C75.4748 73.3897 76.4448 72.5615 76.5743 71.0906C76.7063 69.5915 75.8376 68.5646 74.1997 68.3025C73.9848 68.2681 73.8183 68.2227 73.6413 68.0611C72.1751 66.7225 70.7018 65.3908 69.201 64.0913C68.8404 63.779 68.8034 63.495 68.9135 63.0705C69.603 60.4139 69.1385 57.9275 67.6956 55.6253C67.4343 55.2085 67.5047 55.0736 67.8513 54.7803C76.9674 47.0663 86.0701 39.3365 95.1717 31.6055C95.6567 31.1937 96.1123 30.7473 96.6619 30.2434C97.0635 31.3713 97.4397 32.4392 97.8251 33.5038C97.9746 33.9168 97.6086 33.9471 97.4045 34.0821C90.9248 38.3672 86.7733 44.2781 84.9835 51.843C84.567 53.6033 84.3761 55.3914 84.3353 57.1946C84.3004 58.7391 84.8543 59.3056 86.3922 59.3181C86.9026 59.3223 87.1877 59.353 87.2476 60.0196C87.8204 66.3841 90.6176 71.6603 95.2852 75.9518C101 81.2059 108.928 83.5921 116.55 81.9346C121.975 80.7549 127.079 77.7561 130.652 73.4978C133.865 69.6675 135.85 64.9016 136.395 59.9373C136.443 59.5019 136.498 59.2606 137.013 59.3167C138.725 59.5032 139.365 58.5396 139.279 56.833C139.071 52.7246 138.074 48.8446 136.227 45.1627C130.53 33.8047 117.768 27.7571 105.624 30.6963C104.839 30.8863 103.793 31.5148 103.348 31.2187C102.774 30.8366 102.67 29.7328 102.387 28.9315C100.502 23.5963 98.6304 18.2562 96.73 12.9263C96.5483 12.4169 96.509 12.11 97.0886 11.8732C97.7771 11.5919 98.3275 11.0786 98.8059 10.5255C100.545 8.51457 101.123 6.21661 100.082 3.72811C99.1035 1.38888 97.2438 0.0562829 94.6791 0.0289829C89.3297 -0.0279742 83.9793 0.0169399 78.6293 0.0149257C77.8814 0.0146685 77.2465 0.259081 76.7779 0.845924C75.9687 1.85941 75.9851 3.02093 76.4053 4.1395C76.8078 5.21135 77.7683 5.5387 78.8552 5.5348C81.5454 5.5252 84.2363 5.54615 86.9255 5.48804C87.5399 5.4748 87.7932 5.68119 87.9594 6.21009C88.2692 7.19594 88.6013 8.17527 88.95 9.14808C89.0474 9.41988 89.0754 9.60845 88.9277 9.90155C88.5647 10.6219 89.3891 13.4749 90.0526 13.9453C90.2189 14.0632 90.4463 14.1731 90.6386 14.1622C91.2596 14.1268 91.1197 14.6621 91.2888 14.9621C91.4803 15.3019 91.3037 15.493 91.0384 15.7164C87.8835 18.3722 84.7397 21.0414 81.594 23.7083C73.7179 30.3857 65.8428 37.0642 57.9642 43.7387C57.7956 43.8816 57.672 44.1359 57.3162 44.0508C55.4405 38.7059 53.5582 33.3405 51.6728 27.9762C51.5852 27.727 51.6174 27.565 51.8006 27.3325C52.5549 26.3749 51.7416 23.2347 50.6366 22.7363C50.4751 22.6634 50.2914 22.6277 50.1141 22.6045C49.8869 22.5748 49.7557 22.4998 49.6453 22.2611C48.6224 20.0491 48.6431 20.0766 50.2809 18.1831C50.7948 17.5888 51.3337 17.3515 52.0887 17.3681C53.4024 17.3972 54.7183 17.3936 56.0317 17.3539C57.2659 17.3167 57.9093 16.6356 57.9725 15.3954C58.1034 12.8254 56.1498 10.593 53.5339 10.554C48.7965 10.4833 44.0565 10.4892 39.3188 10.5504C36.7368 10.5837 34.4862 12.7479 34.2428 15.229C33.9789 17.919 35.6554 20.2732 38.2654 20.869C39.0804 21.0551 39.9099 20.9389 40.7325 20.9611C41.5863 20.9842 42.6503 20.6815 43.2347 21.084C43.8012 21.4741 43.8441 22.5927 44.1751 23.3665C44.4246 23.9499 44.5916 24.4544 44.1028 25.0223C43.8102 25.3623 43.9111 25.8337 44.0559 26.2501C44.3056 26.9678 44.5646 27.6824 44.8094 28.4018C44.975 28.8883 45.2479 29.2269 45.7601 29.4244C46.3803 29.6635 46.6107 31.0521 46.1613 31.5469C45.3192 32.474 44.4506 33.379 43.6476 34.3389C43.2879 34.7689 43.0642 34.8111 42.5809 34.4859C36.9773 30.7157 30.7638 29.1939 24.1248 30.2095C12.8897 31.9281 5.46038 38.4654 1.46413 48.9966C0.462084 51.6372 0.0731549 54.4248 0.00149777 57.2493C-0.0325737 58.5923 0.514755 59.3713 1.63256 59.2853C2.62393 59.2091 3.02023 59.5145 2.94934 60.4826C2.94073 60.6003 2.99653 60.7215 3.01384 60.8423C3.89914 67.0296 7.08617 72.7708 11.9239 76.7387C17.8532 81.6021 25.9941 83.6366 33.4642 81.7387C34.7357 81.4157 35.9705 80.9912 37.1595 80.4741ZM74.0487 70.1484C74.5139 70.1481 74.7007 70.4478 74.7044 70.8579C74.7082 71.2795 74.4984 71.5514 74.0394 71.5525C73.1868 71.5547 72.3341 71.5532 71.4814 71.5532C71.4814 71.559 71.4814 71.5648 71.4814 71.5704C70.7201 71.5704 69.9586 71.5607 69.1975 71.5741C68.7425 71.5822 68.4015 71.4775 68.4123 70.9374C68.4213 70.4819 68.6151 70.168 69.1154 70.1647C70.7598 70.1539 72.4043 70.1499 74.0487 70.1484ZM71.2978 68.365C70.6041 68.365 70.0432 68.2905 69.5133 68.3869C69.0241 68.4757 68.7096 68.3263 68.3682 68.0283C66.3485 66.2649 64.3136 64.5187 62.2922 62.7571C61.6476 62.1954 60.971 61.6864 60.2306 61.2559C59.979 61.1095 59.6591 60.9243 59.7559 60.5543C59.8636 60.1427 60.2617 60.1299 60.5831 60.1387C61.3201 60.1587 62.0349 60.3051 62.6439 60.7651C62.8865 60.9484 63.1274 61.1356 63.3551 61.3368C65.9741 63.6511 68.5903 65.9685 71.2978 68.365ZM59.0054 62.4923C59.7234 63.047 60.4568 63.5817 61.1933 64.1326C59.9091 65.0742 58.037 64.5735 56.9545 63.0336C55.6526 61.1815 56.0444 58.7556 57.8387 57.5598C59.5793 56.3997 61.6411 56.9271 62.9215 58.9916C61.9753 58.5919 61.1483 58.4585 60.2921 58.5375C59.271 58.6316 58.4472 59.0784 58.1296 60.0818C57.8218 61.054 58.2093 61.8774 59.0054 62.4923ZM94.5219 29.7576C86.3675 36.7219 78.2031 43.6746 70.0427 50.6318C68.9733 51.5436 67.8836 52.4335 66.8499 53.3843C66.4305 53.7701 66.1737 53.7974 65.7178 53.4316C64.4602 52.4226 64.4337 52.4404 65.7074 51.3563C75.4787 43.039 85.2526 34.7248 95.0269 26.4111C95.0708 26.3738 95.1328 26.3578 95.246 26.3031C96.0911 28.3815 96.1089 28.4023 94.5219 29.7576ZM63.0099 51.3503C62.7242 51.5943 62.4631 51.7266 62.1135 51.5829C61.5633 51.3568 60.9767 51.3447 60.4035 51.3284C59.8781 51.3135 59.697 51.0489 59.5128 50.6091C59.289 50.0746 59.7069 49.9764 59.9573 49.7638C69.8037 41.4043 79.6526 33.0479 89.503 24.6931C90.8232 23.5733 92.1524 22.4641 93.5439 21.2941C93.8705 22.2687 94.1398 23.1939 94.496 24.0843C94.6791 24.5423 94.3963 24.6918 94.1501 24.9006C88.5607 29.6415 82.9672 34.3776 77.3795 39.1206C72.5842 43.1908 67.7928 47.2656 63.0099 51.3503ZM86.7759 57.5575C86.1232 57.72 86.0925 57.2619 86.1139 56.5984C86.5422 49.0348 89.8106 42.6755 95.6454 37.5982C96.3578 36.9784 97.122 36.415 97.8912 35.866C98.0634 35.7431 98.2786 35.2355 98.5928 35.7486C98.8151 36.1116 98.8054 36.3614 98.383 36.6398C96.2 38.0791 94.3177 39.8564 92.6815 41.8936C89.1884 46.2427 87.2946 51.1991 87.0291 56.7762C87.0161 57.049 87.2022 57.4515 86.7759 57.5575ZM115.135 80.366C103.218 82.2315 91.3977 73.8003 89.2584 61.9119C89.0032 60.4934 88.8393 59.074 88.8473 57.6194C89.0375 49.5942 92.4809 43.2782 98.8954 38.5067C99.3998 38.1315 99.5145 38.3161 99.6931 38.7612C100.454 40.657 100.421 40.6105 98.922 41.9838C92.9621 47.4426 90.2945 54.1319 92.1778 62.1156C94.0863 70.2064 99.3737 75.3101 107.394 77.342C117.811 79.9809 128.715 73.0817 131.377 62.3652C134.151 51.1966 126.504 39.4227 115.21 37.5155C112.286 37.0218 109.358 37.1001 106.493 37.9198C105.784 38.1227 105.542 37.9342 105.313 37.3011C104.67 35.5193 104.645 35.5281 106.444 35.0883C118.552 32.1288 130.95 39.8205 134.051 52.031C137.322 64.9135 128.517 78.2708 115.135 80.366ZM99.8236 46.6971C101.196 48.0039 102.562 49.317 103.941 50.616C105.116 51.7225 105.737 53.2132 106.634 54.511C107.117 55.2105 106.302 56.3274 105.431 56.3283C102.588 56.3311 99.745 56.3321 96.9018 56.3337C96.7184 56.3338 96.5344 56.3425 96.3516 56.3318C95.641 56.2902 94.9775 56.4307 94.999 57.2861C95.0189 58.0789 95.681 58.1825 96.3391 58.1804C99.2128 58.1711 102.087 58.1679 104.96 58.1625C105.052 58.1623 105.146 58.1744 105.235 58.1574C106.07 57.9976 106.402 58.3849 106.837 59.1223C107.457 60.1715 107.187 60.6865 106.405 61.4139C104.211 63.4529 102.096 65.5768 99.9546 67.6713C99.7815 67.8406 99.6288 68.0335 99.4844 68.2285C99.215 68.5921 99.36 68.9401 99.5979 69.2328C99.8464 69.5385 100.181 69.6619 100.58 69.4872C100.895 69.3491 101.139 69.125 101.38 68.8886C103.739 66.58 106.134 64.307 108.443 61.9505C109.221 61.1572 109.747 61.9909 110.387 62.0215C110.977 62.0496 110.755 62.5711 110.756 62.8776C110.774 66.2709 110.765 69.6644 110.766 73.0579C110.766 73.6109 110.716 74.2059 111.45 74.3661C112.212 74.5326 112.638 74.1159 112.637 73.1972C112.633 69.8955 112.617 66.5938 112.616 63.292C112.616 62.8739 112.427 62.3126 112.731 62.0682C113.158 61.724 113.783 61.6609 114.282 61.3551C114.526 61.2059 114.68 61.5652 114.841 61.7246C117.253 64.1117 119.657 66.5059 122.063 68.8982C122.193 69.0274 122.315 69.1656 122.455 69.2823C122.927 69.675 123.401 69.684 123.836 69.233C124.269 68.7838 124.143 68.3559 123.74 67.9577C122.068 66.3017 120.396 64.6452 118.723 62.9889C117.876 62.15 117.049 61.2898 116.173 60.4822C115.812 60.1488 115.913 59.9219 116.008 59.4908C116.298 58.1703 117.128 58.1057 118.243 58.1337C121.146 58.2068 124.051 58.1627 126.956 58.1623C127.229 58.1622 127.509 58.1696 127.776 58.1215C128.217 58.0421 128.495 57.7531 128.5 57.3039C128.506 56.8357 128.273 56.473 127.792 56.3636C127.528 56.3035 127.245 56.315 126.971 56.3156C123.761 56.3226 120.551 56.3195 117.341 56.3573C116.795 56.3638 116.656 56.1496 116.402 55.6896C115.739 54.4906 116.302 53.8248 117.13 53.0508C119.138 51.1728 121.076 49.2188 123.043 47.2953C123.174 47.1671 123.306 47.0397 123.434 46.9087C123.872 46.4614 124.223 45.9654 123.635 45.4196C123.107 44.9287 122.597 45.1171 122.119 45.5925C120.624 47.0796 119.112 48.5499 117.605 50.0259C116.776 50.8388 115.925 51.6315 115.124 52.4712C114.787 52.8246 114.565 52.7136 114.14 52.6045C112.703 52.236 112.538 51.3347 112.592 50.0326C112.7 47.4079 112.625 44.7756 112.623 42.1464C112.623 41.9022 112.631 41.6533 112.588 41.4147C112.497 40.899 112.172 40.5964 111.646 40.5971C111.139 40.5979 110.882 40.9495 110.787 41.4008C110.731 41.6655 110.757 41.9485 110.757 42.2233C110.755 45.1198 110.756 48.0164 110.756 51.1244C109.917 49.7712 109.379 48.504 108.908 47.2094C108.097 44.9784 107.354 42.7215 106.495 40.5093C106.21 39.7747 106.498 39.6448 107.076 39.5058C115.88 37.388 124.683 41.6406 128.465 49.846C133.59 60.9684 126.708 73.8658 114.595 75.8374C104.791 77.4331 95.1773 70.4929 93.667 60.7158C92.5844 53.7069 94.9032 47.9358 100.098 43.234C100.981 42.4348 101.002 42.4541 101.385 43.5348C101.719 44.4811 102.046 45.43 102.377 46.3779C102.391 46.4508 102.434 46.5784 102.416 46.5878C102.303 46.6458 102.301 46.5446 102.285 46.4708C101.864 46.0812 101.459 45.6712 101.017 45.3078C100.574 44.9444 100.115 44.9692 99.7278 45.4147C99.3356 45.8653 99.4047 46.2982 99.8236 46.6971ZM108.179 56.9649C108.172 55.1167 109.676 53.6424 111.578 53.6319C113.37 53.622 114.779 55.1216 114.776 57.0337C114.772 58.9161 113.384 60.238 111.412 60.236C109.626 60.2342 108.185 58.7765 108.179 56.9649ZM104.723 32.743C107.009 32.0107 109.365 31.7164 111.758 31.6864C124.364 31.7119 134.037 40.7749 136.727 51.6417C137.139 53.3025 137.449 54.9842 137.459 56.7035C137.46 57.0444 137.688 57.5665 136.992 57.5575C136.383 57.5496 136.539 57.0743 136.527 56.7538C136.404 53.22 135.548 49.8639 133.958 46.7199C130.038 38.9685 123.812 34.2615 115.202 32.9143C111.765 32.3767 108.317 32.6151 104.962 33.6673C104.611 33.7775 104.193 34.0763 104.014 33.4437C103.831 32.797 104.4 32.8465 104.723 32.743ZM101.052 30.5908C103.174 36.5378 105.284 42.4889 107.437 48.4242C107.841 49.5376 108.43 50.584 108.924 51.6653C109.033 51.9048 109.389 52.1722 109.204 52.377C108.909 52.7039 108.471 52.9013 108.072 53.1675C107.791 53.1071 107.706 52.8239 107.557 52.608C105.796 50.0497 104.54 47.2598 103.543 44.3189C101.986 39.7271 100.315 35.1739 98.6616 30.6154C98.4462 30.0216 98.538 29.7993 99.1533 29.6284C100.573 29.2342 100.558 29.2051 101.052 30.5908ZM93.05 2.89081C93.0936 1.72561 93.0433 1.72964 94.2208 1.74138C96.2161 1.76127 97.6765 2.65411 98.4451 4.49298C99.2269 6.36327 98.6225 7.98785 97.3512 9.44495C97.0222 9.8221 96.837 9.80932 96.5694 9.37792C96.3501 9.02422 96.0183 8.74025 95.7283 8.41625C96.2376 7.89571 96.6689 7.33145 96.8559 6.59838C97.2519 5.04519 96.3383 3.76848 94.7498 3.697C94.476 3.68465 94.1952 3.65277 93.9285 3.69644C93.27 3.80444 93.0232 3.60563 93.05 2.89081ZM93.6217 13.302C93.9478 13.2362 94.26 13.101 94.6521 12.9733C94.955 13.0497 94.9688 13.3975 95.0595 13.6509C96.3114 17.1469 97.5505 20.6473 98.7917 24.1471C99.1072 25.0366 99.3912 25.9386 99.7426 26.8135C99.9536 27.3388 99.9307 27.5965 99.3102 27.7951C97.8633 28.258 97.8773 28.2957 97.3661 26.8504C95.9146 22.7469 94.4861 18.635 92.9879 14.5485C92.7005 13.7644 92.8635 13.455 93.6217 13.302ZM84.7023 3.65534C84.7023 3.67017 84.7023 3.68504 84.7023 3.69987C82.8115 3.69987 80.9203 3.67762 79.0302 3.71161C78.3467 3.72387 77.9762 3.47795 77.9509 2.79849C77.9239 2.07691 78.2988 1.75137 79.0191 1.75265C82.8922 1.75951 86.7655 1.77125 90.6384 1.7425C91.5281 1.7359 91.2028 2.34472 91.232 2.74848C91.2616 3.15674 91.448 3.68298 90.6491 3.66773C88.6675 3.62993 86.6847 3.65534 84.7023 3.65534ZM91.1473 9.03712C90.7609 9.09074 90.7834 8.85858 90.7052 8.63388C90.3587 7.63917 89.9993 6.649 89.6207 5.59038C91.7171 5.4493 91.7171 5.4493 92.3447 7.08027C92.8734 8.45405 92.6289 8.83158 91.1473 9.03712ZM58.349 45.6914C63.4102 41.4117 68.4772 37.1388 73.5333 32.853C79.4282 27.8562 85.3144 22.8492 91.2023 17.8441C92.0754 17.1018 91.9894 17.1334 92.491 18.1906C92.9515 19.1612 92.7214 19.6529 91.903 20.3427C83.8924 27.0944 75.9405 33.9157 67.962 40.7056C64.9647 43.2564 61.9415 45.7768 58.902 48.3348C58.4828 47.727 58.3212 47.0367 58.0173 46.4144C57.8113 45.9925 58.1293 45.8772 58.349 45.6914ZM59.802 53.0959C64.5605 53.0886 68.3346 57.6852 67.2031 62.2175C66.2196 61.4646 65.4591 60.7859 65.1767 59.4966C64.6043 56.8828 62.1997 55.0804 59.759 55.1269C57.2208 55.1753 55.054 56.9354 54.5069 59.5524C54.0195 61.8838 54.798 63.853 56.6578 65.3183C58.3993 66.6905 60.3252 66.8867 62.3096 65.8397C62.6711 65.649 62.8776 65.6353 63.1681 65.9256C63.5086 66.266 63.9084 66.547 64.3442 66.9044C62.3978 68.446 60.3321 69.0126 57.916 68.363C48.1158 65.7285 38.3046 63.1352 28.4971 60.5281C28.0557 60.4108 27.6051 60.3252 27.1681 60.1937C25.4586 59.6792 24.4956 58.2231 24.6555 56.4169C24.8013 54.7699 26.1268 53.4203 27.8165 53.2481C28.4834 53.1802 29.1591 53.1831 29.8309 53.1809C39.8212 53.1484 49.8117 53.1112 59.802 53.0959ZM28.5519 47.5506C28.5499 45.6251 28.557 43.6995 28.539 41.7741C28.5315 40.9813 28.0681 40.4857 27.4724 40.607C26.7902 40.7458 26.6907 41.2597 26.6932 41.8628C26.7057 44.7663 26.677 47.6701 26.7156 50.5732C26.7247 51.2556 26.6413 51.757 25.8955 51.9259C25.8082 51.9457 25.7054 51.9753 25.6478 52.0362C24.7716 52.9618 24.1671 52.536 23.4177 51.7605C21.4647 49.7396 19.4173 47.8098 17.4057 45.8455C17.1018 45.5488 16.816 45.1973 16.349 45.1826C15.947 45.17 15.6696 45.4025 15.4815 45.7501C15.2204 46.2325 15.4969 46.5823 15.7999 46.8837C17.0779 48.1553 18.3708 49.412 19.6637 50.6686C20.7373 51.7121 21.799 52.7694 22.9063 53.7762C23.332 54.1632 23.2528 54.472 23.1828 54.9967C23.0062 56.3199 22.2456 56.3671 21.1846 56.3457C18.2211 56.2858 15.2556 56.3309 12.291 56.3212C11.5759 56.3189 10.8384 56.3338 10.8723 57.2882C10.9032 58.1565 11.6043 58.1884 12.286 58.1841C15.5868 58.1634 18.8875 58.1521 22.1883 58.1491C22.5444 58.1488 23.0399 57.9631 23.0727 58.6108C23.1043 59.2366 24.0292 59.7018 23.153 60.5142C20.6217 62.8611 18.1965 65.3222 15.7302 67.7392C15.2608 68.1992 14.8748 68.7086 15.4972 69.2942C16.0966 69.8581 16.6161 69.4834 17.0805 69.0282C19.5899 66.5686 22.0931 64.1026 24.6133 61.6542C24.8073 61.4658 25.0047 60.9537 25.3877 61.352C25.8038 61.7847 26.7358 61.5459 26.7201 62.5675C26.6655 66.1122 26.6958 69.658 26.6834 73.2033C26.6812 73.81 26.7743 74.3271 27.5155 74.3722C28.3142 74.4209 28.5717 73.9846 28.5662 73.233C28.5419 69.9323 28.5795 66.6307 28.5165 63.331C28.4994 62.4355 28.7185 62.4337 29.51 62.5782C31.4817 62.9382 33.0539 63.8276 34.3854 65.3384C35.5738 66.6868 36.9564 67.863 38.2402 69.1285C38.711 69.5926 39.1962 69.8258 39.7439 69.3023C40.3144 68.757 40.0213 68.2917 39.572 67.8242C38.4963 66.705 37.4436 65.5638 36.3419 64.3892C38.0616 64.8447 39.8178 65.3099 41.5741 65.7751C42.0735 65.9074 42.5662 66.0808 43.0737 66.162C43.7946 66.2773 43.7337 66.5407 43.4132 67.0833C37.2206 77.5623 22.7007 79.227 14.2986 70.3272C9.3771 65.1143 7.73421 58.8913 9.96471 52.059C12.2253 45.1347 17.1286 40.7958 24.339 39.2923C28.6578 38.3917 33.6646 39.3553 37.022 41.6072C34.2325 44.6367 31.4489 47.6598 28.552 50.8059C28.5522 49.6466 28.5531 48.5986 28.5519 47.5506ZM52.4991 50.7237C52.5169 50.7818 52.5259 50.8427 52.539 50.9023C52.5839 51.1202 52.5172 51.2572 52.2768 51.2803C51.9588 51.3109 51.6799 51.321 51.5555 50.9164C51.3318 50.1886 51.0875 49.4659 50.818 48.7538C49.6912 45.7765 48.0141 43.1375 45.8646 40.7971C45.6189 40.5295 45.4011 40.3386 45.7458 39.9759C46.0689 39.636 46.2287 39.9112 46.4012 40.0962C49.262 43.1626 51.2698 46.7202 52.4991 50.7237ZM47.382 37.9788C47.7672 37.5946 48.1126 37.1704 48.5484 36.68C49.221 38.5891 49.8709 40.4337 50.5207 42.2782C49.4919 40.9954 48.5188 39.6891 47.3825 38.516C47.2115 38.3395 47.1704 38.1898 47.382 37.9788ZM49.5552 50.6128C49.626 50.8418 49.6678 51.0798 49.7415 51.3915C48.9273 51.3915 48.1689 51.3669 47.4132 51.4014C47.0104 51.4198 46.9047 51.2043 46.7896 50.8945C45.8662 48.4091 44.5653 46.1461 42.7622 44.1899C42.4432 43.8438 42.3826 43.609 42.7414 43.2078C44.1965 41.5807 44.1717 41.5716 45.5488 43.2702C47.3349 45.4736 48.7149 47.8955 49.5552 50.6128ZM45.0823 51.3557C41.8084 51.3557 38.6048 51.3557 35.2582 51.3557C37.2502 49.1822 39.1735 47.0838 41.1346 44.944C42.8624 46.8306 44.167 48.9225 45.0823 51.3557ZM57.8677 51.2075C57.876 51.2313 57.8538 51.2657 57.8312 51.3498C55.5783 51.4411 55.5814 51.4401 54.8533 49.3526C52.5936 42.8736 50.3279 36.3969 48.0829 29.9128C47.9883 29.6398 47.6273 29.2497 48.0224 29.0197C48.5624 28.7054 49.1613 28.4615 49.7993 28.3979C49.8607 28.3917 49.9704 28.6247 50.0179 28.7605C52.6379 36.2417 55.2536 43.7243 57.8677 51.2075ZM39.4064 19.1724C37.4208 19.132 36.024 17.7378 36.0321 15.8476C36.0404 13.8634 37.4958 12.3544 39.4713 12.3349C41.7622 12.3123 44.0535 12.3297 46.3447 12.3297C48.6664 12.3307 50.9883 12.3129 53.3097 12.3371C54.7997 12.3526 55.8288 13.2832 56.1326 14.7146C56.275 15.3856 56.1642 15.6604 55.408 15.6298C54.0048 15.573 52.5977 15.6182 51.1932 15.5833C50.565 15.5676 50.0796 15.7594 49.661 16.2309C49.0326 16.9387 48.3406 17.5908 47.7257 18.3094C47.1397 18.9943 46.4149 19.2563 45.5454 19.2447C43.4991 19.2172 41.4523 19.2142 39.4064 19.1724ZM46.7073 21.0011C47.1298 20.9552 47.2983 21.0476 47.3957 21.4488C47.5095 21.918 47.6894 22.3711 47.8646 22.9043C47.5278 23.3179 46.9623 23.346 46.4996 23.5611C46.1218 23.7367 46.1176 23.4138 46.0431 23.2009C45.9532 22.9435 45.8787 22.681 45.7909 22.4228C45.3489 21.1222 45.351 21.1485 46.7073 21.0011ZM46.1212 26.5412C45.9481 26.2336 45.6996 25.8282 46.3269 25.6113C47.2479 25.2927 48.1413 24.8947 49.0617 24.5744C49.6658 24.3643 50.1663 24.9694 50.2068 25.9C50.3332 26.25 50.031 26.2358 49.8594 26.3013C48.9201 26.6596 47.9764 27.0059 47.0338 27.3553C46.2364 27.6508 46.3206 26.8956 46.1212 26.5412ZM47.1984 33.0319C48.0529 34.6346 48.0449 34.6274 46.9537 35.8318C42.3823 40.8773 37.8135 45.9252 33.2546 50.982C32.9838 51.2823 32.7097 51.4256 32.3097 51.4085C31.7628 51.3852 31.2141 51.4027 30.4176 51.4027C36.0784 45.2055 41.6164 39.1427 47.1984 33.0319ZM2.66318 56.6731C2.646 56.9802 2.96156 57.5751 2.26954 57.5823C1.5243 57.59 1.89471 56.9779 1.81251 56.6238C1.7856 56.5079 1.80827 56.3804 1.80827 56.0883C2.21108 50.9391 3.98014 46.1383 7.27684 41.931C11.328 36.761 16.5114 33.3329 23.0059 32.1351C29.5182 30.9341 35.6388 32.069 41.2334 35.7018C41.4687 35.8546 42.0548 35.9056 41.656 36.4739C41.3346 36.9319 41.0547 36.6922 40.7382 36.487C30.9978 30.1719 17.9415 31.7534 9.74588 40.3952C5.4357 44.94 3.01633 50.3692 2.66318 56.6731ZM4.8537 61.5901C2.56341 49.6028 11.1864 37.2741 23.2111 34.8887C28.9471 33.7507 34.3052 34.7299 39.3384 37.6723C39.9785 38.0464 40.0389 38.3075 39.5289 38.868C38.3363 40.1791 38.3628 40.2032 36.7161 39.3865C26.3508 34.246 13.9676 38.7095 9.13577 49.2364C3.52225 61.4664 11.3428 75.3141 24.3755 77.5981C32.4846 79.0193 40.728 75.0775 44.8836 67.9466C45.115 67.5494 45.2196 66.8357 45.7453 66.8857C46.5183 66.9594 47.2856 67.2582 48.0132 67.5622C48.3003 67.6821 47.9891 67.9956 47.89 68.181C45.4852 72.6804 42.0546 76.1372 37.444 78.3735C34.3448 79.8767 31.0732 80.6479 27.6186 80.5958C16.6298 80.6381 6.92134 72.4118 4.8537 61.5901Z" fill="#1D1D1D"/>
<path d="M88.847 57.6194C89.0372 49.5942 92.4806 43.2782 98.8951 38.5067C99.3995 38.1314 99.5141 38.3161 99.6928 38.7611C100.454 40.6569 100.421 40.6104 98.9216 41.9837C92.9618 47.4426 90.2942 54.1319 92.1775 62.1155C94.086 70.2063 99.3734 75.3101 107.394 77.3419C117.811 79.9809 128.714 73.0816 131.376 62.3652C134.15 51.1965 126.504 39.4226 115.209 37.5155C112.285 37.0217 109.358 37.1 106.493 37.9197C105.783 38.1227 105.541 37.9341 105.313 37.301C104.669 35.5193 104.645 35.528 106.444 35.0882C118.551 32.1287 130.949 39.8205 134.05 52.031C137.322 64.9135 128.517 78.2709 115.134 80.366C103.218 82.2315 91.3974 73.8003 89.2581 61.9119C89.0028 60.4934 88.839 59.074 88.847 57.6194Z" fill="url(#paint0_linear_402_6060)"/>
<path d="M67.2035 62.2175C66.22 61.4646 65.4594 60.7859 65.1771 59.4967C64.6047 56.8829 62.2001 55.0804 59.7594 55.1269C57.2212 55.1753 55.0544 56.9354 54.5073 59.5524C54.0199 61.8839 54.7984 63.853 56.6582 65.3184C58.3997 66.6906 60.3255 66.8868 62.31 65.8398C62.6715 65.6491 62.878 65.6353 63.1685 65.9257C63.5091 66.266 63.9088 66.5471 64.3446 66.9044C62.3982 68.446 60.3325 69.0126 57.9164 68.3631C48.1162 65.7285 38.305 63.1352 28.4975 60.5282C28.056 60.4108 27.6054 60.3253 27.1685 60.1938C25.459 59.6793 24.496 58.2231 24.6559 56.417C24.8017 54.7699 26.1271 53.4204 27.8169 53.2482C28.4838 53.1803 29.1594 53.1831 29.8312 53.181C39.8216 53.1486 49.812 53.1114 59.8024 53.0961C64.5609 53.0887 68.335 57.6852 67.2035 62.2175ZM28.2048 58.8255C29.2808 58.8296 30.1336 57.9898 30.1216 56.938C30.1087 55.814 29.2608 54.9192 28.2042 54.9146C27.0894 54.9096 26.2134 55.8249 26.2332 56.974C26.2511 58.0168 27.1079 58.8214 28.2048 58.8255Z" fill="#007382"/>
<path d="M27.6192 80.5968C16.6301 80.6381 6.92166 72.4118 4.85406 61.5901C2.56373 49.6028 11.1867 37.2741 23.2114 34.8886C28.9475 33.7507 34.3055 34.7299 39.3388 37.6722C39.9788 38.0464 40.0393 38.3074 39.5293 38.868C38.3367 40.179 38.3632 40.2031 36.7165 39.3865C26.3511 34.246 13.9679 38.7094 9.13613 49.2364C3.52261 61.4664 11.3431 75.314 24.3758 77.5981C32.4849 79.0192 40.7283 75.0775 44.884 67.9465C45.1154 67.5494 45.2199 66.8356 45.7456 66.8857C46.5186 66.9593 47.2859 67.2582 48.0135 67.5622C48.3006 67.6821 47.9894 67.9955 47.8903 68.181C45.4855 72.6804 42.0548 76.1372 37.4443 78.3735C34.3452 79.8768 31.0736 80.6479 27.6192 80.5968Z" fill="url(#paint1_linear_402_6060)"/>
<path d="M58.9015 48.3349C58.4823 47.7271 58.3206 47.0368 58.0168 46.4145C57.8108 45.9925 58.1287 45.8772 58.3484 45.6914C63.4096 41.4117 68.4767 37.1388 73.5327 32.853C79.4276 27.8562 85.3139 22.8493 91.2017 17.8441C92.0749 17.1019 91.9889 17.1334 92.4905 18.1906C92.9509 19.1612 92.7209 19.653 91.9025 20.3428C83.8919 27.0944 75.9399 33.9157 67.9615 40.7056C64.9641 43.2564 61.9409 45.7769 58.9015 48.3349Z" fill="url(#paint2_linear_402_6060)"/>
<path d="M46.3449 12.3302C48.6666 12.3307 50.9885 12.3129 53.3099 12.3371C54.7999 12.3526 55.829 13.2832 56.1328 14.7146C56.2752 15.3856 56.1644 15.6604 55.4082 15.6298C54.005 15.573 52.5979 15.6182 51.1934 15.5833C50.5651 15.5676 50.0798 15.7594 49.6611 16.2309C49.0328 16.9387 48.3407 17.5908 47.7259 18.3094C47.1398 18.9943 46.415 19.2563 45.5455 19.2447C43.4993 19.2172 41.4526 19.2142 39.4066 19.1725C37.421 19.132 36.0243 17.7379 36.0323 15.8476C36.0406 13.8635 37.496 12.3545 39.4715 12.335C41.7624 12.3124 44.0537 12.3297 46.3449 12.3302Z" fill="url(#paint3_linear_402_6060)"/>
<path d="M95.2463 26.3031C96.0916 28.3815 96.1093 28.4023 94.5223 29.7577C86.3679 36.722 78.2035 43.6746 70.043 50.6319C68.9736 51.5437 67.8839 52.4336 66.8503 53.3844C66.4308 53.7702 66.174 53.7975 65.7182 53.4318C64.4605 52.4226 64.4341 52.4405 65.7078 51.3564C75.4791 43.0391 85.253 34.7249 95.0273 26.4112C95.0712 26.3738 95.1332 26.3579 95.2463 26.3031Z" fill="#007382"/>
<path d="M1.80802 56.0882C2.21084 50.9391 3.97989 46.1382 7.27664 41.931C11.3277 36.761 16.5112 33.3329 23.0057 32.1351C29.518 30.9341 35.6386 32.069 41.2332 35.7018C41.4685 35.8546 42.0546 35.9056 41.6558 36.4739C41.3344 36.9319 41.0545 36.6922 40.738 36.487C30.9976 30.1719 17.9413 31.7534 9.74564 40.3952C5.43545 44.94 3.01599 50.3692 2.66294 56.6732C2.64575 56.9802 2.96127 57.5752 2.26929 57.5823C1.52405 57.59 1.89447 56.9779 1.81227 56.6238C1.78535 56.5078 1.80802 56.3804 1.80802 56.0882Z" fill="#00B377"/>
<path d="M108.072 53.1674C107.792 53.1071 107.706 52.8238 107.558 52.608C105.797 50.0497 104.54 47.2598 103.543 44.3189C101.987 39.7271 100.315 35.1739 98.662 30.6154C98.4466 30.0215 98.5384 29.7993 99.1537 29.6284C100.573 29.2342 100.558 29.2051 101.052 30.5908C103.174 36.5377 105.284 42.4888 107.438 48.4241C107.842 49.5376 108.43 50.5839 108.924 51.6653C109.034 51.9047 109.39 52.1721 109.205 52.377C108.91 52.7039 108.471 52.9013 108.072 53.1674Z" fill="#007382"/>
<path d="M57.8315 51.3498C55.5787 51.441 55.5817 51.44 54.8537 49.3525C52.594 42.8736 50.3282 36.3968 48.0832 29.9128C47.9887 29.6398 47.6276 29.2497 48.0228 29.0196C48.5628 28.7053 49.1616 28.4615 49.7997 28.3978C49.861 28.3917 49.9707 28.6246 50.0183 28.7605C52.6383 36.2416 55.254 43.7242 57.868 51.2074C57.8763 51.2313 57.8542 51.2658 57.8315 51.3498Z" fill="#007382"/>
<path d="M111.758 31.6875C124.364 31.7119 134.037 40.7749 136.728 51.6417C137.139 53.3025 137.45 54.9842 137.459 56.7035C137.461 57.0444 137.688 57.5665 136.992 57.5575C136.383 57.5497 136.539 57.0743 136.528 56.7539C136.404 53.22 135.548 49.8639 133.958 46.72C130.038 38.9685 123.812 34.2615 115.202 32.9144C111.765 32.3767 108.317 32.6151 104.962 33.6674C104.611 33.7776 104.193 34.0764 104.014 33.4437C103.831 32.7971 104.401 32.8465 104.724 32.743C107.01 32.0106 109.365 31.7164 111.758 31.6875Z" fill="#00B377"/>
<path d="M47.1987 33.0319C48.0532 34.6345 48.0453 34.6273 46.9541 35.8318C42.3827 40.8773 37.8139 45.9251 33.255 50.982C32.9842 51.2823 32.7101 51.4256 32.3101 51.4085C31.7632 51.3851 31.2145 51.4027 30.418 51.4027C36.0788 45.2054 41.6167 39.1427 47.1987 33.0319Z" fill="#007382"/>
<path d="M94.6519 12.9733C94.9548 13.0497 94.9686 13.3974 95.0593 13.6508C96.3112 17.1468 97.5503 20.6473 98.7915 24.1471C99.1069 25.0366 99.391 25.9385 99.7424 26.8135C99.9533 27.3387 99.9304 27.5965 99.31 27.795C97.8631 28.258 97.877 28.2956 97.3658 26.8504C95.9144 22.7468 94.4858 18.635 92.9877 14.5485C92.7002 13.7643 92.8633 13.455 93.6214 13.302C93.9476 13.2362 94.2598 13.1009 94.6519 12.9733Z" fill="#007382"/>
<path d="M49.7419 51.3915C48.9276 51.3915 48.1692 51.367 47.4136 51.4015C47.0107 51.4198 46.9051 51.2044 46.7899 50.8945C45.8665 48.4092 44.5656 46.1462 42.7625 44.19C42.4435 43.8439 42.383 43.6091 42.7418 43.2078C44.1968 41.5808 44.1721 41.5716 45.5491 43.2703C47.3353 45.4736 48.7153 47.8955 49.5555 50.6129C49.6263 50.8419 49.6681 51.0799 49.7419 51.3915Z" fill="url(#paint4_linear_402_6060)"/>
<path d="M84.7021 3.69986C82.8113 3.69986 80.9201 3.67761 79.0299 3.7116C78.3464 3.72386 77.976 3.47794 77.9506 2.79848C77.9236 2.0769 78.2985 1.75136 79.0188 1.75264C82.8919 1.7595 86.7652 1.77124 90.6381 1.74248C91.5278 1.73588 91.2025 2.34471 91.2318 2.74847C91.2613 3.15673 91.4478 3.68297 90.6488 3.66771C88.6672 3.62987 86.6844 3.65528 84.7021 3.65528C84.7021 3.67015 84.7021 3.68503 84.7021 3.69986Z" fill="#00B377"/>
<path d="M86.1138 56.5984C86.5421 49.0347 89.8105 42.6755 95.6453 37.5981C96.3577 36.9783 97.122 36.4149 97.8911 35.8659C98.0633 35.743 98.2786 35.2354 98.5928 35.7486C98.815 36.1115 98.8053 36.3613 98.383 36.6397C96.1999 38.079 94.3177 39.8563 92.6814 41.8936C89.1884 46.2426 87.2946 51.1991 87.029 56.7761C87.016 57.049 87.2021 57.4515 86.7758 57.5575C86.1231 57.72 86.0925 57.2619 86.1138 56.5984Z" fill="#00B377"/>
<path d="M111.412 60.236C109.626 60.2342 108.185 58.7765 108.179 56.9649C108.172 55.1167 109.676 53.6423 111.578 53.6319C113.37 53.622 114.779 55.1216 114.776 57.0338C114.772 58.9161 113.384 60.238 111.412 60.236ZM111.489 55.0337C110.355 55.042 109.541 55.862 109.542 56.9951C109.542 58.0483 110.396 58.9271 111.429 58.9374C112.536 58.9485 113.489 57.9962 113.458 56.9098C113.429 55.8915 112.521 55.0262 111.489 55.0337Z" fill="url(#paint5_linear_402_6060)"/>
<path d="M52.5384 50.9019C52.5842 51.1202 52.5175 51.2572 52.2771 51.2803C51.9591 51.3109 51.6803 51.321 51.5558 50.9163C51.3321 50.1886 51.0878 49.4658 50.8183 48.7537C49.6915 45.7765 48.0144 43.1374 45.8649 40.797C45.6191 40.5294 45.4013 40.3385 45.7461 39.9758C46.0693 39.6359 46.229 39.9112 46.4015 40.0961C49.2623 43.1626 51.2701 46.7202 52.4994 50.7236C52.5173 50.7818 52.5262 50.8427 52.5384 50.9019Z" fill="#00B377"/>
<path d="M71.4815 71.5705C70.7202 71.5705 69.9587 71.5608 69.1976 71.5742C68.7426 71.5822 68.4016 71.4776 68.4124 70.9374C68.4214 70.4819 68.6152 70.168 69.1156 70.1647C70.7599 70.1539 72.4044 70.1499 74.0488 70.1484C74.514 70.1481 74.7007 70.4478 74.7045 70.8579C74.7083 71.2795 74.4985 71.5514 74.0395 71.5526C73.1869 71.5548 72.3342 71.5532 71.4815 71.5532C71.4815 71.559 71.4815 71.5647 71.4815 71.5705Z" fill="#00B377"/>
<path d="M50.207 25.9001C50.3334 26.25 50.0311 26.2358 49.8595 26.3013C48.9203 26.6596 47.9766 27.0059 47.034 27.3553C46.2366 27.6509 46.3208 26.8957 46.1214 26.5413C45.9483 26.2337 45.6997 25.8284 46.327 25.6113C47.248 25.2927 48.1415 24.8948 49.0619 24.5745C49.6659 24.3643 50.1665 24.9694 50.207 25.9001Z" fill="url(#paint6_linear_402_6060)"/>
<path d="M47.8642 22.9043C47.5274 23.3179 46.962 23.3459 46.4992 23.561C46.1215 23.7366 46.1172 23.4138 46.0428 23.2008C45.9529 22.9435 45.8783 22.6809 45.7906 22.4228C45.3486 21.1222 45.3506 21.1484 46.707 21.0011C47.1295 20.9552 47.298 21.0476 47.3954 21.4489C47.5092 21.918 47.689 22.3712 47.8642 22.9043Z" fill="url(#paint7_linear_402_6060)"/>
<path d="M28.2044 58.8254C27.1074 58.8213 26.2506 58.0167 26.2327 56.9739C26.213 55.8248 27.0889 54.9096 28.2037 54.9144C29.2604 54.9191 30.1083 55.8139 30.1212 56.9379C30.1332 57.9897 29.2804 58.8295 28.2044 58.8254Z" fill="#1D1D1D"/>
<path d="M111.488 55.0337C112.52 55.0262 113.428 55.8915 113.457 56.9097C113.488 57.9962 112.535 58.9485 111.428 58.9374C110.396 58.927 109.542 58.0482 109.541 56.9951C109.54 55.862 110.354 55.042 111.488 55.0337ZM111.481 56.2019C111.033 56.2825 110.74 56.5283 110.766 56.9846C110.788 57.3677 110.987 57.686 111.441 57.6731C111.958 57.6585 112.196 57.3397 112.188 56.8536C112.181 56.41 111.872 56.2478 111.481 56.2019Z" fill="#1D1D1D"/>
<defs>
<linearGradient id="paint0_linear_402_6060" x1="134.735" y1="57.5394" x2="88.8467" y2="57.5394" gradientUnits="userSpaceOnUse">
<stop stop-color="#EEE5D3"/>
<stop offset="1" stop-color="#FFFAF4"/>
</linearGradient>
<linearGradient id="paint1_linear_402_6060" x1="48.1322" y1="57.513" x2="4.48438" y2="57.513" gradientUnits="userSpaceOnUse">
<stop stop-color="#EEE5D3"/>
<stop offset="1" stop-color="#FFFAF4"/>
</linearGradient>
<linearGradient id="paint2_linear_402_6060" x1="92.7247" y1="32.835" x2="57.9502" y2="32.835" gradientUnits="userSpaceOnUse">
<stop stop-color="#E3E5FC"/>
<stop offset="1" stop-color="#EFEEEB"/>
</linearGradient>
<linearGradient id="paint3_linear_402_6060" x1="56.1862" y1="15.7842" x2="36.0322" y2="15.7842" gradientUnits="userSpaceOnUse">
<stop stop-color="#E3E5FC"/>
<stop offset="1" stop-color="#EFEEEB"/>
</linearGradient>
<linearGradient id="paint4_linear_402_6060" x1="49.7419" y1="46.6972" x2="42.4971" y2="46.6972" gradientUnits="userSpaceOnUse">
<stop stop-color="#EEE5D3"/>
<stop offset="1" stop-color="#FFFAF4"/>
</linearGradient>
<linearGradient id="paint5_linear_402_6060" x1="114.776" y1="56.9339" x2="108.179" y2="56.9339" gradientUnits="userSpaceOnUse">
<stop stop-color="#EEE5D3"/>
<stop offset="1" stop-color="#FFFAF4"/>
</linearGradient>
<linearGradient id="paint6_linear_402_6060" x1="50.237" y1="25.9776" x2="45.9238" y2="25.9776" gradientUnits="userSpaceOnUse">
<stop stop-color="#E3E5FC"/>
<stop offset="1" stop-color="#EFEEEB"/>
</linearGradient>
<linearGradient id="paint7_linear_402_6060" x1="47.8642" y1="22.3009" x2="45.5283" y2="22.3009" gradientUnits="userSpaceOnUse">
<stop stop-color="#EEE5D3"/>
<stop offset="1" stop-color="#FFFAF4"/>
</linearGradient>
</defs>
</svg>
