<svg width="40" height="40" viewBox="0 0 40 40" fill="none" xmlns="http://www.w3.org/2000/svg">
<path d="M38.6188 20.2437L34.2438 14.6187C34.1855 14.5431 34.1108 14.4818 34.0252 14.4396C33.9396 14.3973 33.8454 14.3752 33.75 14.375H28.125V11.875C28.125 11.0462 27.7958 10.2513 27.2097 9.66529C26.6237 9.07924 25.8288 8.75 25 8.75H4.375C3.5462 8.75 2.75134 9.07924 2.16529 9.66529C1.57924 10.2513 1.25 11.0462 1.25 11.875V25C1.25 25.8288 1.57924 26.6237 2.16529 27.2097C2.75134 27.7958 3.5462 28.125 4.375 28.125C4.54076 28.125 4.69973 28.0592 4.81694 27.9419C4.93415 27.8247 5 27.6658 5 27.5C5 27.3342 4.93415 27.1753 4.81694 27.0581C4.69973 26.9408 4.54076 26.875 4.375 26.875C3.87772 26.875 3.40081 26.6775 3.04917 26.3258C2.69754 25.9742 2.5 25.4973 2.5 25V22.5H26.875V26.875H14.3188C14.162 25.9479 13.6627 25.1135 12.9198 24.5371C12.1769 23.9607 11.2446 23.6845 10.3076 23.7631C9.37062 23.8418 8.49737 24.2695 7.8609 24.9616C7.22443 25.6538 6.8712 26.5597 6.8712 27.5C6.8712 28.4403 7.22443 29.3462 7.8609 30.0384C8.49737 30.7305 9.37062 31.1582 10.3076 31.2369C11.2446 31.3155 12.1769 31.0393 12.9198 30.4629C13.6627 29.8865 14.162 29.0521 14.3188 28.125H28.8062C28.9585 28.9941 29.4123 29.7817 30.088 30.3493C30.7636 30.9168 31.6176 31.2279 32.5 31.2279C33.3824 31.2279 34.2364 30.9168 34.912 30.3493C35.5877 29.7817 36.0415 28.9941 36.1937 28.125H38.125C38.2908 28.125 38.4497 28.0592 38.5669 27.9419C38.6842 27.8247 38.75 27.6658 38.75 27.5V20.625C38.7496 20.4869 38.7034 20.3528 38.6188 20.2437ZM2.5 21.25V11.875C2.5 11.3777 2.69754 10.9008 3.04917 10.5492C3.40081 10.1975 3.87772 10 4.375 10H25C25.4973 10 25.9742 10.1975 26.3258 10.5492C26.6775 10.9008 26.875 11.3777 26.875 11.875V21.25H2.5ZM10.625 30C10.1305 30 9.6472 29.8534 9.23607 29.5787C8.82495 29.304 8.50452 28.9135 8.3153 28.4567C8.12608 27.9999 8.07657 27.4972 8.17304 27.0123C8.2695 26.5273 8.5076 26.0819 8.85723 25.7322C9.20686 25.3826 9.65232 25.1445 10.1373 25.048C10.6222 24.9516 11.1249 25.0011 11.5817 25.1903C12.0385 25.3795 12.429 25.7 12.7037 26.1111C12.9784 26.5222 13.125 27.0055 13.125 27.5C13.125 28.163 12.8616 28.7989 12.3928 29.2678C11.9239 29.7366 11.288 30 10.625 30ZM32.5 30C32.0055 30 31.5222 29.8534 31.1111 29.5787C30.7 29.304 30.3795 28.9135 30.1903 28.4567C30.0011 27.9999 29.9516 27.4972 30.048 27.0123C30.1445 26.5273 30.3826 26.0819 30.7322 25.7322C31.0819 25.3826 31.5273 25.1445 32.0123 25.048C32.4972 24.9516 32.9999 25.0011 33.4567 25.1903C33.9135 25.3795 34.304 25.7 34.5787 26.1111C34.8534 26.5222 35 27.0055 35 27.5C35 28.163 34.7366 28.7989 34.2678 29.2678C33.7989 29.7366 33.163 30 32.5 30ZM37.5 26.875H36.1937C36.0415 26.0059 35.5877 25.2183 34.912 24.6508C34.2364 24.0832 33.3824 23.7721 32.5 23.7721C31.6176 23.7721 30.7636 24.0832 30.088 24.6508C29.4123 25.2183 28.9585 26.0059 28.8062 26.875H28.125V15.625H33.4437L37.5 20.8375V26.875Z" fill="#1D1D1D"/>
<path d="M32.5 16.875H30C29.8342 16.875 29.6753 16.9408 29.5581 17.0581C29.4408 17.1753 29.375 17.3342 29.375 17.5V21.25C29.375 21.4158 29.4408 21.5747 29.5581 21.6919C29.6753 21.8092 29.8342 21.875 30 21.875H35.625C35.7439 21.8752 35.8603 21.8415 35.9607 21.7778C36.0611 21.7142 36.1412 21.6232 36.1918 21.5156C36.2423 21.408 36.2611 21.2883 36.2459 21.1704C36.2308 21.0525 36.1823 20.9413 36.1063 20.85L32.9813 17.1C32.9225 17.0294 32.8489 16.9727 32.7657 16.9338C32.6825 16.8949 32.5918 16.8749 32.5 16.875ZM30.625 20.625V18.125H32.2062L34.2875 20.625H30.625ZM14.375 14.6875C14.375 14.1073 14.1445 13.5509 13.7343 13.1407C13.3241 12.7305 12.7677 12.5 12.1875 12.5H10.625C10.4592 12.5 10.3003 12.5658 10.1831 12.6831C10.0658 12.8003 10 12.9592 10 13.125V18.125C10 18.2908 10.0658 18.4497 10.1831 18.5669C10.3003 18.6842 10.4592 18.75 10.625 18.75C10.7908 18.75 10.9497 18.6842 11.0669 18.5669C11.1842 18.4497 11.25 18.2908 11.25 18.125V16.875H12.1625L13.2312 18.4687C13.2879 18.5547 13.3648 18.6254 13.4553 18.6744C13.5458 18.7235 13.6471 18.7495 13.75 18.75C13.8729 18.7514 13.9931 18.7142 14.0938 18.6438C14.2308 18.5521 14.326 18.4101 14.3588 18.2485C14.3916 18.087 14.3592 17.919 14.2688 17.7813L13.4125 16.4937C13.7084 16.2944 13.9509 16.0254 14.1188 15.7105C14.2866 15.3956 14.3745 15.0443 14.375 14.6875ZM11.25 13.75H12.1875C12.4361 13.75 12.6746 13.8488 12.8504 14.0246C13.0262 14.2004 13.125 14.4389 13.125 14.6875C13.125 14.9361 13.0262 15.1746 12.8504 15.3504C12.6746 15.5262 12.4361 15.625 12.1875 15.625H11.25V13.75ZM8.125 13.75C8.29076 13.75 8.44973 13.6842 8.56694 13.5669C8.68415 13.4497 8.75 13.2908 8.75 13.125C8.75 12.9592 8.68415 12.8003 8.56694 12.6831C8.44973 12.5658 8.29076 12.5 8.125 12.5H5.625C5.45924 12.5 5.30027 12.5658 5.18306 12.6831C5.06585 12.8003 5 12.9592 5 13.125V18.125C5 18.2908 5.06585 18.4497 5.18306 18.5669C5.30027 18.6842 5.45924 18.75 5.625 18.75C5.79076 18.75 5.94973 18.6842 6.06694 18.5669C6.18415 18.4497 6.25 18.2908 6.25 18.125V16.25H8.125C8.29076 16.25 8.44973 16.1842 8.56694 16.0669C8.68415 15.9497 8.75 15.7908 8.75 15.625C8.75 15.4592 8.68415 15.3003 8.56694 15.1831C8.44973 15.0658 8.29076 15 8.125 15H6.25V13.75H8.125ZM18.75 13.75C18.9158 13.75 19.0747 13.6842 19.1919 13.5669C19.3092 13.4497 19.375 13.2908 19.375 13.125C19.375 12.9592 19.3092 12.8003 19.1919 12.6831C19.0747 12.5658 18.9158 12.5 18.75 12.5H16.25C16.0842 12.5 15.9253 12.5658 15.8081 12.6831C15.6908 12.8003 15.625 12.9592 15.625 13.125V18.125C15.625 18.2908 15.6908 18.4497 15.8081 18.5669C15.9253 18.6842 16.0842 18.75 16.25 18.75H18.75C18.9158 18.75 19.0747 18.6842 19.1919 18.5669C19.3092 18.4497 19.375 18.2908 19.375 18.125C19.375 17.9592 19.3092 17.8003 19.1919 17.6831C19.0747 17.5658 18.9158 17.5 18.75 17.5H16.875V16.25H18.75C18.9158 16.25 19.0747 16.1842 19.1919 16.0669C19.3092 15.9497 19.375 15.7908 19.375 15.625C19.375 15.4592 19.3092 15.3003 19.1919 15.1831C19.0747 15.0658 18.9158 15 18.75 15H16.875V13.75H18.75ZM23.75 13.75C23.9158 13.75 24.0747 13.6842 24.1919 13.5669C24.3092 13.4497 24.375 13.2908 24.375 13.125C24.375 12.9592 24.3092 12.8003 24.1919 12.6831C24.0747 12.5658 23.9158 12.5 23.75 12.5H21.25C21.0842 12.5 20.9253 12.5658 20.8081 12.6831C20.6908 12.8003 20.625 12.9592 20.625 13.125V18.125C20.625 18.2908 20.6908 18.4497 20.8081 18.5669C20.9253 18.6842 21.0842 18.75 21.25 18.75H23.75C23.9158 18.75 24.0747 18.6842 24.1919 18.5669C24.3092 18.4497 24.375 18.2908 24.375 18.125C24.375 17.9592 24.3092 17.8003 24.1919 17.6831C24.0747 17.5658 23.9158 17.5 23.75 17.5H21.875V16.25H23.75C23.9158 16.25 24.0747 16.1842 24.1919 16.0669C24.3092 15.9497 24.375 15.7908 24.375 15.625C24.375 15.4592 24.3092 15.3003 24.1919 15.1831C24.0747 15.0658 23.9158 15 23.75 15H21.875V13.75H23.75Z" fill="#1D1D1D"/>
</svg>
