<svg width="60" height="60" viewBox="0 0 60 60" fill="none" xmlns="http://www.w3.org/2000/svg">
<path d="M29.9999 57.8313C45.3678 57.8313 57.826 45.3731 57.826 30.0052C57.826 14.6373 45.3678 2.17914 29.9999 2.17914C14.632 2.17914 2.17383 14.6373 2.17383 30.0052C2.17383 45.3731 14.632 57.8313 29.9999 57.8313Z" fill="#C5F0FC"/>
<path d="M16.618 6.53662V38.9415H4.61622C3.36914 38.9415 2.4315 37.8163 2.64719 36.5974L7.93545 6.53662H16.618Z" fill="#0066ED"/>
<path d="M16.6207 39.3799H4.61751C3.89485 39.3799 3.21466 39.0624 2.75015 38.5095C2.28565 37.9559 2.09034 37.2307 2.21601 36.5182L7.50644 6.45875C7.54295 6.2507 7.72298 6.09955 7.93443 6.09955H16.6207C16.8611 6.09955 17.0555 6.29401 17.0555 6.53433V38.9452C17.0555 39.1855 16.8611 39.3799 16.6207 39.3799ZM8.29957 6.96911L3.07199 36.6693C2.99132 37.1271 3.117 37.5941 3.41591 37.9508C3.71483 38.3066 4.15301 38.5104 4.61751 38.5104H16.186V6.96911H8.29957Z" fill="black"/>
<path d="M46.3602 38.9415H13.3551C12.3331 38.9415 11.4799 38.182 11.3673 37.16L7.93555 6.53662H42.6096C43.6129 6.53662 44.4661 7.2774 44.5974 8.28062L48.3479 36.6818C48.4979 37.882 47.5697 38.9415 46.3602 38.9415Z" fill="white"/>
<path d="M46.3606 38.9414H13.3556C12.3335 38.9414 11.4803 38.182 11.3678 37.16L10.0176 25.1112C13.9275 28.693 20.5848 31.0559 28.1515 31.0559C36.0278 31.0559 42.9288 28.4961 46.7638 24.6518L48.3484 36.6818C48.4984 37.8819 47.5701 38.9414 46.3606 38.9414Z" fill="#EBF0F2"/>
<path d="M46.3579 39.3799H13.3569C12.1137 39.3799 11.0718 38.4484 10.9334 37.2128L7.50265 6.58273C7.48906 6.4596 7.52813 6.33647 7.6105 6.24476C7.69287 6.1522 7.8109 6.09955 7.93489 6.09955H42.6088C43.8274 6.09955 44.8668 7.01072 45.0264 8.21911L48.7756 36.6218C48.8673 37.3181 48.655 38.0204 48.1913 38.5486C47.7285 39.0768 47.0602 39.3799 46.3579 39.3799ZM8.42147 6.96911L11.7978 37.116C11.887 37.9109 12.557 38.5104 13.3569 38.5104H46.3579C46.8097 38.5104 47.2402 38.3151 47.5375 37.9754C47.8355 37.6357 47.9722 37.184 47.9128 36.7356L44.1637 8.3329C44.0618 7.55505 43.3926 6.96911 42.6088 6.96911H8.42147Z" fill="black"/>
<path d="M45.2207 13.0163L44.5949 8.27596C44.4633 7.27911 43.6135 6.53406 42.608 6.53406H7.93457L8.6606 13.0163H45.2207Z" fill="#FF6C55"/>
<path d="M45.2173 13.0158H8.65865L8.15234 8.49634C12.1373 9.67778 19.2446 10.4654 27.3552 10.4654C34.3125 10.4654 40.5385 9.88403 44.6922 8.98387L45.2173 13.0158Z" fill="#FF544C"/>
<path d="M45.2209 13.4509H8.66094C8.4393 13.4509 8.25333 13.2845 8.2287 13.0646L7.50265 6.58273C7.48906 6.4596 7.52813 6.33647 7.6105 6.24476C7.69287 6.1522 7.8109 6.09955 7.93489 6.09955H42.6088C43.8274 6.09955 44.8668 7.01072 45.0264 8.21911L45.6523 12.9593C45.6684 13.0832 45.6302 13.2089 45.5478 13.3032C45.4655 13.3966 45.3457 13.4509 45.2209 13.4509ZM9.04986 12.5814H44.725L44.1637 8.3329C44.0618 7.55505 43.3926 6.96911 42.6088 6.96911H8.42147L9.04986 12.5814Z" fill="black"/>
<path d="M16.0118 10.8991C15.7715 10.8991 15.5771 10.7046 15.5771 10.4643C15.5771 10.224 15.7715 10.0295 16.0118 10.0295C17.3629 10.0295 18.4617 8.46195 18.4617 6.5343C18.4617 4.60665 17.3629 3.03821 16.0118 3.03821C14.6608 3.03821 13.5619 4.60665 13.5619 6.5343C13.5619 6.77462 13.3675 6.96908 13.1272 6.96908C12.8868 6.96908 12.6924 6.77462 12.6924 6.5343C12.6924 4.12686 14.1819 2.16864 16.0118 2.16864C17.8418 2.16864 19.3313 4.12686 19.3313 6.5343C19.3313 8.94089 17.8418 10.8991 16.0118 10.8991ZM26.5774 10.8991C26.3371 10.8991 26.1426 10.7046 26.1426 10.4643C26.1426 10.224 26.3371 10.0295 26.5774 10.0295C27.9285 10.0295 29.0273 8.46195 29.0273 6.5343C29.0273 4.60665 27.9285 3.03821 26.5774 3.03821C25.2264 3.03821 24.1275 4.60665 24.1275 6.5343C24.1275 6.77462 23.933 6.96908 23.6927 6.96908C23.4524 6.96908 23.2579 6.77462 23.2579 6.5343C23.2579 4.12686 24.7474 2.16864 26.5774 2.16864C28.4074 2.16864 29.8969 4.12686 29.8969 6.5343C29.8969 8.94089 28.4074 10.8991 26.5774 10.8991ZM37.1438 10.8991C36.9035 10.8991 36.709 10.7046 36.709 10.4643C36.709 10.224 36.9035 10.0295 37.1438 10.0295C38.4949 10.0295 39.5937 8.46195 39.5937 6.5343C39.5937 4.60665 38.4949 3.03821 37.1438 3.03821C35.7928 3.03821 34.6939 4.60665 34.6939 6.5343C34.6939 6.77462 34.4994 6.96908 34.2591 6.96908C34.0188 6.96908 33.8243 6.77462 33.8243 6.5343C33.8243 4.12686 35.3138 2.16864 37.1438 2.16864C38.9738 2.16864 40.4633 4.12686 40.4633 6.5343C40.4633 8.94089 38.9738 10.8991 37.1438 10.8991Z" fill="black"/>
<path d="M57.3899 34.045V48.1651C57.3899 49.0875 56.6409 49.8365 55.7185 49.8365H28.2954C27.373 49.8365 26.624 49.0875 26.624 48.1651V34.045C26.624 33.1227 27.373 32.3798 28.2954 32.3798H55.7185C56.6409 32.3798 57.3899 33.1227 57.3899 34.045Z" fill="#00C53B"/>
<path d="M57.3899 41.4734V48.1651C57.3899 49.0875 56.6409 49.8365 55.7185 49.8365H28.2954C27.373 49.8365 26.624 49.0875 26.624 48.1651V42.5443C30.5053 43.3614 34.9128 43.8443 39.9951 43.8443C47.0025 43.8443 53.001 42.9281 57.3899 41.4734Z" fill="#00B327"/>
<path d="M54.9132 37.3444V44.8656C53.539 44.8656 52.4185 45.9861 52.4185 47.3603H31.5943C31.5943 45.9861 30.4738 44.8656 29.0996 44.8656V37.3444C30.4738 37.3444 31.5943 36.2302 31.5943 34.8559H52.4185C52.4185 36.2302 53.539 37.3444 54.9132 37.3444Z" fill="white"/>
<path d="M55.718 50.2716H28.2945C27.1336 50.2716 26.1885 49.3264 26.1885 48.1647V34.0453C26.1885 32.8871 27.1336 31.9453 28.2945 31.9453H55.718C56.8789 31.9453 57.824 32.8871 57.824 34.0453V48.1647C57.824 49.3264 56.8789 50.2716 55.718 50.2716ZM28.2945 32.8149C27.6126 32.8149 27.058 33.3668 27.058 34.0453V48.1647C27.058 48.8466 27.6126 49.402 28.2945 49.402H55.718C56.3999 49.402 56.9544 48.8466 56.9544 48.1647V34.0453C56.9544 33.3668 56.3999 32.8149 55.718 32.8149H28.2945Z" fill="black"/>
<path d="M54.9132 42.1791V44.8657C53.539 44.8657 52.4185 45.9861 52.4185 47.3604H31.5943C31.5943 45.9861 30.4738 44.8657 29.0996 44.8657V42.9962C32.4486 43.541 35.9523 43.8443 39.9946 43.8443C45.7763 43.8443 50.7719 43.219 54.9132 42.1791Z" fill="#EBF0F2"/>
<path d="M52.4175 47.7954H31.5938C31.3534 47.7954 31.159 47.6009 31.159 47.3606C31.159 46.2244 30.2351 45.3005 29.0988 45.3005C28.8585 45.3005 28.6641 45.106 28.6641 44.8657V37.3445C28.6641 37.1041 28.8585 36.9097 29.0988 36.9097C30.2351 36.9097 31.159 35.9883 31.159 34.8564C31.159 34.616 31.3534 34.4216 31.5938 34.4216H52.4175C52.6578 34.4216 52.8522 34.616 52.8522 34.8564C52.8522 35.9883 53.7762 36.9097 54.9124 36.9097C55.1527 36.9097 55.3471 37.1041 55.3471 37.3445V44.8657C55.3471 45.106 55.1527 45.3005 54.9124 45.3005C53.7762 45.3005 52.8522 46.2244 52.8522 47.3606C52.8522 47.6009 52.6578 47.7954 52.4175 47.7954ZM31.9963 46.9258H52.0149C52.2043 45.658 53.2097 44.6525 54.4776 44.4632V37.747C53.2097 37.5585 52.2052 36.5556 52.0149 35.2911H31.9963C31.806 36.5556 30.8015 37.5585 29.5336 37.747V44.4632C30.8015 44.6525 31.8069 45.658 31.9963 46.9258Z" fill="black"/>
<path d="M42.0069 47.36C44.6978 47.36 46.8791 44.5608 46.8791 41.1078C46.8791 37.6548 44.6978 34.8557 42.0069 34.8557C39.3161 34.8557 37.1348 37.6548 37.1348 41.1078C37.1348 44.5608 39.3161 47.36 42.0069 47.36Z" fill="#00C53B"/>
<path d="M46.8773 41.1082C46.8773 44.5624 44.6983 47.3604 42.0055 47.3604C39.5666 47.3604 37.5485 45.0638 37.1895 42.0615C38.2418 42.501 39.4427 42.7486 40.7117 42.7486C43.2312 42.7486 45.4659 41.7767 46.834 40.2787C46.8649 40.5511 46.8773 40.8296 46.8773 41.1082Z" fill="#00B327"/>
<path d="M42.0068 47.7954C39.0805 47.7954 36.7002 44.7952 36.7002 41.1081C36.7002 37.4209 39.0805 34.4216 42.0068 34.4216C44.933 34.4216 47.3133 37.4209 47.3133 41.1081C47.3133 44.7952 44.933 47.7954 42.0068 47.7954ZM42.0068 35.2911C39.5602 35.2911 37.5698 37.9007 37.5698 41.1081C37.5698 44.3163 39.5602 46.9258 42.0068 46.9258C44.4533 46.9258 46.4437 44.3163 46.4437 41.1081C46.4437 37.9007 44.4533 35.2911 42.0068 35.2911Z" fill="black"/>
<path d="M32.7213 42.5392C33.2447 42.5392 33.6691 41.8984 33.6691 41.1079C33.6691 40.3174 33.2447 39.6766 32.7213 39.6766C32.1978 39.6766 31.7734 40.3174 31.7734 41.1079C31.7734 41.8984 32.1978 42.5392 32.7213 42.5392Z" fill="#00C53B"/>
<path d="M32.7204 42.9746C31.9451 42.9746 31.3379 42.1551 31.3379 41.1081C31.3379 40.061 31.9451 39.2416 32.7204 39.2416C33.4957 39.2416 34.1028 40.061 34.1028 41.1081C34.1028 42.1551 33.4957 42.9746 32.7204 42.9746ZM32.7204 40.1111C32.4834 40.1111 32.2075 40.5468 32.2075 41.1081C32.2075 41.6694 32.4834 42.105 32.7204 42.105C32.9573 42.105 33.2333 41.6694 33.2333 41.1081C33.2333 40.5468 32.9573 40.1111 32.7204 40.1111Z" fill="black"/>
<path d="M51.2916 42.5392C51.815 42.5392 52.2394 41.8984 52.2394 41.1079C52.2394 40.3174 51.815 39.6766 51.2916 39.6766C50.7681 39.6766 50.3438 40.3174 50.3438 41.1079C50.3438 41.8984 50.7681 42.5392 51.2916 42.5392Z" fill="#00C53B"/>
<path d="M51.2917 42.9746C50.5163 42.9746 49.9092 42.1551 49.9092 41.1081C49.9092 40.061 50.5163 39.2416 51.2917 39.2416C52.067 39.2416 52.675 40.061 52.675 41.1081C52.675 42.1551 52.067 42.9746 51.2917 42.9746ZM51.2917 40.1111C51.0547 40.1111 50.7787 40.5468 50.7787 41.1081C50.7787 41.6694 51.0547 42.105 51.2917 42.105C51.5294 42.105 51.8054 41.6694 51.8054 41.1081C51.8054 40.5468 51.5294 40.1111 51.2917 40.1111Z" fill="black"/>
<path d="M43.8545 43.1754C43.7034 43.4031 43.4886 43.5846 43.2104 43.7199C42.9322 43.8551 42.61 43.9334 42.2444 43.9544V44.5189C42.2444 44.5878 42.2218 44.6448 42.1768 44.6897C42.1318 44.7347 42.072 44.7574 41.9979 44.7574C41.929 44.7574 41.872 44.7363 41.8271 44.6939C41.7818 44.6512 41.7595 44.593 41.7595 44.5189V43.9544C41.1869 43.9172 40.6514 43.793 40.1536 43.5808C40.0898 43.5542 40.0368 43.5106 39.9944 43.4497C39.952 43.3886 39.9307 43.3239 39.9307 43.2547C39.9307 43.1647 39.9611 43.0868 40.0222 43.0204C40.083 42.9541 40.1613 42.9208 40.2568 42.9208C40.3098 42.9208 40.36 42.9315 40.4078 42.9528C40.8371 43.1434 41.2875 43.2495 41.7595 43.2708V41.442C41.3987 41.3466 41.0956 41.2434 40.8491 41.1321C40.6026 41.0208 40.3972 40.863 40.2328 40.6588C40.0685 40.455 39.9863 40.1965 39.9863 39.8837C39.9863 39.6084 40.0539 39.3538 40.1891 39.1205C40.3244 38.8873 40.5256 38.6938 40.7935 38.5402C41.061 38.3865 41.3829 38.2936 41.7595 38.2619V37.7052C41.7595 37.6366 41.7818 37.578 41.8271 37.5305C41.872 37.4826 41.929 37.459 41.9979 37.459C42.0668 37.459 42.125 37.4826 42.1729 37.5305C42.2205 37.578 42.2444 37.6366 42.2444 37.7052V38.2538C42.7636 38.2752 43.225 38.3625 43.6277 38.5162C43.7762 38.5693 43.8503 38.6754 43.8503 38.8342C43.8503 38.9193 43.8212 38.996 43.763 39.0649C43.7047 39.1338 43.6277 39.1681 43.5323 39.1681C43.5006 39.1681 43.4582 39.1577 43.4052 39.1364C43.0448 39.0092 42.6578 38.9377 42.2444 38.9219V40.8141C42.6261 40.904 42.9425 41.0021 43.1945 41.1082C43.4462 41.2143 43.6568 41.3718 43.8267 41.5811C43.9962 41.7908 44.081 42.0677 44.081 42.4119C44.081 42.693 44.0056 42.9473 43.8545 43.1754ZM40.9762 40.3686C41.1539 40.4961 41.4149 40.6048 41.7595 40.6947V38.9455C41.4415 38.9882 41.1869 39.0846 40.9963 39.2357C40.8054 39.3868 40.71 39.5844 40.71 39.828C40.71 40.0613 40.7986 40.2415 40.9762 40.3686ZM43.3654 42.3644C43.3654 42.1576 43.2712 41.9975 43.0833 41.8833C42.895 41.7694 42.6155 41.662 42.2444 41.5614V43.2708C42.9917 43.2178 43.3654 42.9156 43.3654 42.3644Z" fill="black"/>
<path d="M20.5546 29.5818C20.4313 29.5302 20.3332 29.456 20.2615 29.3579C20.1898 29.2598 20.1533 29.139 20.1533 28.9944C20.1533 28.8196 20.2124 28.6674 20.3307 28.5391C20.4489 28.4108 20.5961 28.3454 20.7722 28.3454C20.864 28.3454 20.9621 28.3668 21.0652 28.407C21.8073 28.7064 22.6262 28.856 23.523 28.856C24.3267 28.856 25.0034 28.724 25.5556 28.4611C26.1065 28.1995 26.382 27.758 26.382 27.1404C26.382 25.8423 25.2437 25.1933 22.9658 25.1933H22.7193C22.5432 25.1933 22.3922 25.1279 22.2627 24.9996C22.1344 24.8713 22.0702 24.7191 22.0702 24.543C22.0702 24.3682 22.1344 24.2172 22.2627 24.0877C22.3922 23.9594 22.5432 23.894 22.7193 23.894H22.8123C23.8425 23.894 24.6299 23.738 25.177 23.4236C25.7229 23.1091 25.9959 22.6424 25.9959 22.0249C25.9959 21.5293 25.7896 21.1381 25.377 20.8501C24.9657 20.5608 24.3569 20.4174 23.5532 20.4174C22.6878 20.4174 21.8891 20.5872 21.1583 20.9268C21.0552 20.9683 20.9621 20.9884 20.8803 20.9884C20.7256 20.9884 20.591 20.9343 20.4778 20.8262C20.3646 20.718 20.308 20.5822 20.308 20.4174C20.308 20.1797 20.4112 20.0048 20.6175 19.8916C21.6061 19.3658 22.6262 19.103 23.6777 19.103C24.8626 19.103 25.7795 19.3457 26.4285 19.83C27.0776 20.3142 27.4021 20.9985 27.4021 21.8852C27.4021 22.5959 27.2247 23.1556 26.8688 23.5619C26.5141 23.9694 26.0676 24.2713 25.5317 24.4663C26.1191 24.6009 26.6424 24.8814 27.1002 25.309C27.5593 25.7367 27.7882 26.3731 27.7882 27.2171C27.7882 28.1655 27.4147 28.9001 26.6675 29.4195C25.9204 29.9403 24.9607 30.2006 23.7859 30.2006C22.6413 30.2006 21.5646 29.9944 20.5546 29.5818ZM29.8806 29.861C29.7574 29.7365 29.6957 29.5818 29.6957 29.3969C29.6957 29.2107 29.7574 29.0548 29.8806 28.9252C30.0052 28.7969 30.1599 28.7328 30.3448 28.7328H32.1837V20.8966L30.6077 21.6689C30.463 21.7305 30.3448 21.762 30.2517 21.762C30.0567 21.762 29.897 21.6991 29.7725 21.5758C29.6492 21.4526 29.5876 21.2928 29.5876 21.0966C29.5876 20.8086 29.7209 20.5972 29.9888 20.4627L32.0919 19.3658C32.2353 19.2942 32.3799 19.2577 32.5246 19.2577H32.8491C33.0541 19.2577 33.2302 19.3294 33.3736 19.474C33.5182 19.6187 33.5899 19.7935 33.5899 19.9998V28.7328H35.1207C35.3056 28.7328 35.4628 28.7969 35.5924 28.9252C35.7207 29.0548 35.7848 29.2107 35.7848 29.3969C35.7848 29.5818 35.7207 29.7365 35.5924 29.861C35.4628 29.9843 35.3056 30.0459 35.1207 30.0459H30.3448C30.1599 30.0459 30.0052 29.9843 29.8806 29.861Z" fill="black"/>
<path d="M40.8252 13.7811V20.9003C40.8252 21.9749 41.6963 22.846 42.7708 22.846H44.23V24.6832C44.23 25.2953 44.9306 25.6429 45.418 25.2728L48.614 22.846H53.6937C54.7683 22.846 55.6394 21.9749 55.6394 20.9003V13.7811C55.6394 12.7066 54.7683 11.8356 53.6938 11.8356H42.7707C41.6962 11.8356 40.8252 12.7066 40.8252 13.7811Z" fill="#FBC56D"/>
<path d="M55.6414 16.0607V20.9035C55.6414 21.9725 54.7706 22.8434 53.6944 22.8434H48.6123L45.4192 25.2719C44.9306 25.64 44.2297 25.2931 44.2297 24.6842V22.8434H42.7712C41.695 22.8434 40.8242 21.9725 40.8242 20.9035V18.8432C42.3252 19.1972 43.9748 19.3954 45.6952 19.3954C50.1769 19.3954 53.3262 18.0715 55.6414 16.0607Z" fill="#EBAE56"/>
<path d="M44.972 25.8592C44.7945 25.8592 44.6153 25.8185 44.4489 25.7352C44.0455 25.5357 43.7959 25.1323 43.7959 24.6831V23.2811H42.7709C41.4581 23.2811 40.3906 22.2128 40.3906 20.9V13.7813C40.3906 12.4684 41.4581 11.401 42.7709 11.401H53.6939C55.0068 11.401 56.0742 12.4684 56.0742 13.7813V20.9C56.0742 22.2128 55.0068 23.2811 53.6939 23.2811H48.7602L45.6819 25.6189C45.4721 25.7777 45.2233 25.8592 44.972 25.8592ZM42.7709 12.2706C41.9378 12.2706 41.2602 12.9482 41.2602 13.7813V20.9C41.2602 21.733 41.9378 22.4115 42.7709 22.4115H44.2306C44.471 22.4115 44.6654 22.606 44.6654 22.8463V24.6831C44.6654 24.8538 44.7843 24.9311 44.8353 24.9565C44.8871 24.9829 45.0195 25.0304 45.1554 24.926L48.3509 22.4998C48.4265 22.443 48.519 22.4115 48.6141 22.4115H53.6939C54.527 22.4115 55.2047 21.733 55.2047 20.9V13.7813C55.2047 12.9482 54.527 12.2706 53.6939 12.2706H42.7709Z" fill="black"/>
<path d="M50.0498 17.8544C49.8944 17.663 49.6987 17.5166 49.4693 17.4199C49.2661 17.3345 49.0113 17.2538 48.7109 17.1801V15.7305C49.0183 15.7507 49.3102 15.8089 49.5767 15.9027C49.6345 15.9257 49.6818 15.937 49.7217 15.937C49.8315 15.937 49.9254 15.8943 49.9939 15.814C50.0587 15.7371 50.0915 15.6493 50.0915 15.5536C50.0915 15.3753 50.0033 15.2495 49.8381 15.1909C49.5082 15.0646 49.1295 14.9881 48.7109 14.9633V14.5832C48.7109 14.4992 48.68 14.4236 48.6213 14.3649C48.5016 14.2448 48.297 14.2476 48.1868 14.3668C48.1314 14.4245 48.1018 14.4996 48.1018 14.5832V14.975C47.8024 15.0097 47.5396 15.0909 47.3195 15.2171C47.076 15.3574 46.8892 15.5372 46.7649 15.7516C46.6405 15.9661 46.5772 16.2031 46.5772 16.456C46.5772 16.7455 46.656 16.99 46.8104 17.1824C46.961 17.3692 47.1511 17.5151 47.3759 17.617C47.5781 17.7075 47.8221 17.7925 48.1018 17.869V19.2655C47.7452 19.2378 47.4003 19.151 47.0751 19.0065C46.9188 18.9375 46.7423 18.9689 46.6339 19.0872C46.5645 19.1618 46.5293 19.2519 46.5293 19.3537C46.5293 19.4316 46.5537 19.5063 46.6016 19.5762C46.649 19.6442 46.709 19.6935 46.7799 19.7221C47.1891 19.8972 47.6335 20.0051 48.1018 20.0445V20.4406C48.1018 20.5311 48.1314 20.6053 48.1905 20.6611C48.2473 20.7146 48.3186 20.7418 48.4026 20.7418C48.4913 20.7418 48.5678 20.7118 48.6241 20.656C48.6809 20.5996 48.7109 20.5255 48.7109 20.4406V20.0445C49.0005 20.0187 49.2614 19.9497 49.4876 19.8399C49.7414 19.716 49.9404 19.5475 50.0793 19.3387C50.2192 19.1271 50.29 18.8882 50.29 18.6292C50.29 18.3124 50.2093 18.052 50.0498 17.8544ZM48.7109 18.0252C48.9596 18.0984 49.153 18.1763 49.2863 18.2571C49.42 18.3387 49.4824 18.4438 49.4824 18.5884C49.4824 18.9811 49.2299 19.2022 48.7109 19.2622V18.0252ZM47.5805 16.7948C47.4533 16.7033 47.3918 16.5771 47.3918 16.4081C47.3918 16.2275 47.4603 16.0858 47.6016 15.9741C47.7288 15.8732 47.8967 15.8023 48.1018 15.7624V17.0266C47.8775 16.96 47.7025 16.8821 47.5805 16.7948Z" fill="black"/>
</svg>
