<svg width="140" height="40" viewBox="0 0 140 40" fill="none" xmlns="http://www.w3.org/2000/svg">
<path fill-rule="evenodd" clip-rule="evenodd" d="M83.5663 11.6667C82.6826 11.6667 81.9663 12.383 81.9663 13.2667V31.0068C81.9663 31.8905 82.6826 32.6068 83.5663 32.6068H90.5119C91.3955 32.6068 92.1119 31.8905 92.1119 31.0068V13.2667C92.1119 12.383 91.3955 11.6667 90.5119 11.6667H83.5663ZM83.17 1.32478C81.9949 2.29345 81.4074 3.50427 81.4074 4.95727C81.4074 6.41026 81.9806 7.59259 83.127 8.50427C84.2734 9.41596 85.5917 9.8718 87.082 9.8718C88.5437 9.8718 89.8334 9.41596 90.9511 8.50427C92.0975 7.5641 92.6707 6.38177 92.6707 4.95727C92.6707 3.53276 92.0975 2.35043 90.9511 1.41026C89.8334 0.470085 88.5437 0 87.082 0C85.5631 0 84.259 0.441595 83.17 1.32478ZM95.809 19.6368C95.0434 19.6944 94.3904 19.0887 94.3904 18.3209V13.1281C94.3904 12.3446 95.0255 11.7094 95.809 11.7094C96.5925 11.7094 97.2277 11.0743 97.2277 10.2907V9.10257C97.2277 6.16809 98.0015 3.91738 99.5491 2.35043C101.097 0.783476 103.347 0 106.299 0C107.474 0 108.634 0.0997154 109.781 0.299146C110.415 0.389157 110.855 0.968614 110.855 1.6088V8.23022C110.855 8.34112 110.744 8.41705 110.641 8.37607L110.297 8.24786C109.981 8.1339 109.666 8.09117 109.351 8.11966C107.861 8.2906 107.201 9.31624 107.373 11.1966C107.398 11.4865 107.64 11.7094 107.931 11.7094H109.212C110.096 11.7094 110.812 12.4258 110.812 13.3094V18.0583C110.812 18.9837 110.014 19.7069 109.093 19.6154C108.172 19.5238 107.373 20.2471 107.373 21.1725V31.0496C107.373 31.9332 106.657 32.6496 105.773 32.6496H98.8277C97.944 32.6496 97.2277 31.9332 97.2277 31.0496V20.9526C97.2277 20.1848 96.5747 19.5791 95.809 19.6368ZM129.439 11.8434C129.636 11.1569 130.263 10.6837 130.977 10.6837H137.898C139.052 10.6837 139.827 11.869 139.363 12.9262L127.912 39.0425C127.657 39.6242 127.082 40 126.447 40H119.326C118.139 40 117.365 38.7519 117.893 37.6883L121.469 30.4888C121.689 30.0457 121.692 29.5256 121.476 29.0802L113.687 12.9806C113.172 11.9181 113.946 10.6837 115.127 10.6837H122.431C123.139 10.6837 123.762 11.1483 123.965 11.8261L125.196 15.9528C125.654 17.4849 127.828 17.4726 128.268 15.9354L129.439 11.8434ZM71.0991 32.4359C70.2155 32.4359 69.4991 31.7195 69.4991 30.8359V2.02734C69.4991 1.14368 70.2154 0.427338 71.0991 0.427338H78.0877C78.9713 0.427338 79.6877 1.14368 79.6877 2.02734V30.8359C79.6877 31.7195 78.9714 32.4359 78.0877 32.4359H71.0991ZM63.811 18.6137C65.1694 18.8408 66.9197 18.0487 66.9197 16.6714V12.9502C66.9197 12.2605 66.4777 11.6484 65.8229 11.4314L65.63 11.3675C65.0568 11.1966 64.6555 11.0969 64.4263 11.0684C63.2512 10.812 62.1048 10.6837 60.9871 10.6837C58.1784 10.6837 55.771 11.4387 53.7648 12.9487C51.6726 14.5157 50.3543 16.6382 49.8097 19.3162C49.6378 20.1709 49.5518 21.0541 49.5518 21.9658C49.5518 25.1282 50.6122 27.6781 52.733 29.6154C54.8539 31.5242 57.5192 32.4786 60.7291 32.4786C61.8577 32.4786 63.5325 32.1863 65.7533 31.6017C66.445 31.4196 66.9197 30.7885 66.9197 30.0732V26.193C66.9197 24.8743 65.376 24.1408 64.0945 24.4523C63.7643 24.5325 63.445 24.5726 63.1366 24.5726C62.2195 24.5726 61.46 24.302 60.8581 23.7607C60.2563 23.1909 59.9553 22.4501 59.9553 21.5384C59.9553 20.6268 60.2276 19.9003 60.7721 19.359C61.3453 18.8176 62.0905 18.547 63.0076 18.547C63.2771 18.547 63.5449 18.5692 63.811 18.6137ZM40.7934 11.8434C40.9899 11.1569 41.6176 10.6837 42.3316 10.6837H49.2523C50.4067 10.6837 51.1812 11.869 50.7176 12.9262L39.2668 39.0425C39.0117 39.6242 38.4366 40 37.8014 40H30.6806C29.4931 40 28.7194 38.7519 29.2476 37.6883L32.8233 30.4888C33.0434 30.0457 33.0461 29.5256 32.8306 29.0802L25.0408 12.9806C24.5267 11.9181 25.3007 10.6837 26.4811 10.6837H33.7857C34.4931 10.6837 35.1165 11.1483 35.3188 11.8261L36.5507 15.9528C37.0081 17.4849 39.1821 17.4726 39.6221 15.9354L40.7934 11.8434ZM21.565 12.3504C22.1637 12.7624 23.0697 12.317 23.0697 11.5903V3.92825C23.0697 3.24089 22.6322 2.62416 21.9693 2.4423C20.1883 1.9537 18.3482 1.70939 16.4492 1.70939C13.1533 1.70939 10.23 2.52136 7.6793 4.14529C5.12857 5.76922 3.19403 8.07692 1.87567 11.0684C0.958558 13.1766 0.5 15.2991 0.5 17.4359C0.5 18.49 0.614639 19.5442 0.843919 20.5983C1.6464 24.3305 3.42331 27.2792 6.17466 29.4444C8.926 31.5812 12.2219 32.6496 16.0623 32.6496C17.7246 32.6496 19.4012 32.4501 21.0921 32.0513L21.8397 31.8736C22.5607 31.7022 23.0697 31.0581 23.0697 30.3169V21.7566C23.0697 21.4322 22.7004 21.239 22.4248 21.4103C21.0491 22.265 19.6018 22.7493 18.0828 22.8632C16.3059 22.9772 14.787 22.4929 13.5259 21.4103C12.2649 20.2991 11.6344 18.8604 11.6344 17.094C11.6344 15.4131 12.2076 14.0171 13.354 12.906C14.529 11.7949 15.9763 11.2393 17.6959 11.2393C19.1003 11.2393 20.39 11.6097 21.565 12.3504Z" fill="#00B377"/>
</svg>
