<svg width="694" height="200" viewBox="0 0 694 200" fill="none" xmlns="http://www.w3.org/2000/svg">
<path opacity="0.1" fill-rule="evenodd" clip-rule="evenodd" d="M416.354 58.3335C411.256 58.3335 407.123 62.4663 407.123 67.5643V153.804C407.123 158.902 411.256 163.035 416.354 163.035H448.592C453.69 163.035 457.823 158.902 457.823 153.804V67.5643C457.823 62.4663 453.69 58.3335 448.592 58.3335H416.354ZM413.138 6.62394C407.266 11.4673 404.33 17.5214 404.33 24.7864C404.33 32.0514 407.195 37.9631 412.923 42.5215C418.652 47.0799 425.24 49.3591 432.688 49.3591C439.992 49.3591 446.437 47.0799 452.022 42.5215C457.751 37.8206 460.616 31.9089 460.616 24.7864C460.616 17.6639 457.751 11.7522 452.022 7.0513C446.437 2.35043 439.992 0 432.688 0C425.097 0 418.581 2.20798 413.138 6.62394ZM476.298 98.1842C472.472 98.4725 469.209 95.4459 469.209 91.6089V65.6367C469.209 61.7214 472.383 58.5473 476.298 58.5473C480.213 58.5473 483.387 55.3733 483.387 51.458V45.5131C483.387 30.8407 487.254 19.5871 494.988 11.7523C502.722 3.91754 513.965 0.00015024 528.717 0.00015024C534.589 0.00015024 540.389 0.498729 546.118 1.49589C549.285 1.94596 551.489 4.84192 551.489 8.0412V41.1519C551.489 41.7061 550.93 42.0855 550.415 41.8806L548.696 41.2396C547.12 40.6698 545.545 40.4561 543.97 40.5986C536.522 41.4533 533.228 46.5815 534.087 55.9832C534.209 57.4327 535.421 58.5473 536.875 58.5473H542.433C547.316 58.5473 551.274 62.5054 551.274 67.388V90.2965C551.274 94.9209 547.282 98.5351 542.681 98.0774C538.079 97.6197 534.087 101.234 534.087 105.858V154.018C534.087 159.116 529.955 163.249 524.857 163.249H492.618C487.52 163.249 483.387 159.116 483.387 154.018V104.76C483.387 100.923 480.124 97.8959 476.298 98.1842ZM644.102 60.1103C645.235 56.149 648.856 53.4185 652.977 53.4185H684.741C691.401 53.4185 695.869 60.255 693.196 66.3542L637.052 194.474C635.581 197.831 632.263 200 628.597 200H595.81C588.96 200 584.496 192.801 587.542 186.665L604.262 152.983C605.53 150.427 605.546 147.429 604.304 144.86L566.491 66.6679C563.527 60.5382 567.993 53.4185 574.801 53.4185H608.417C612.498 53.4185 616.095 56.099 617.262 60.0102L621.947 75.7118C624.585 84.5527 637.129 84.4818 639.667 75.6117L644.102 60.1103ZM354.052 162.351C348.954 162.351 344.822 158.218 344.822 153.12V11.5386C344.822 6.4406 348.954 2.30784 354.052 2.30784H386.506C391.604 2.30784 395.736 6.44059 395.736 11.5386V153.12C395.736 158.218 391.604 162.351 386.506 162.351H354.052ZM313.937 92.7692C321.873 93.1911 332.194 88.5715 332.194 80.6245V65.6385C332.194 61.6599 329.644 58.1289 325.868 56.8768L325.749 56.8373C322.884 55.9826 320.879 55.484 319.734 55.3416C313.862 54.0595 308.133 53.4185 302.547 53.4185C288.512 53.4185 276.481 57.1934 266.456 64.7433C256.001 72.5781 249.412 83.1907 246.691 96.581C245.832 100.855 245.402 105.271 245.402 109.829C245.402 125.641 250.701 138.39 261.3 148.077C271.898 157.621 285.217 162.393 301.258 162.393C306.744 162.393 314.813 161.01 325.463 158.244C329.457 157.207 332.194 153.563 332.194 149.437V133.434C332.194 125.825 323.192 121.763 315.642 122.713C314.844 122.813 314.06 122.863 313.289 122.863C308.706 122.863 304.91 121.51 301.903 118.803C298.895 115.954 297.391 112.251 297.391 107.692C297.391 103.134 298.752 99.5013 301.473 96.7947C304.337 94.0881 308.061 92.7349 312.644 92.7349C313.076 92.7349 313.507 92.7463 313.937 92.7692ZM201.118 60.1103C202.251 56.149 205.873 53.4185 209.993 53.4185H241.758C248.417 53.4185 252.885 60.255 250.212 66.3542L194.068 194.474C192.597 197.831 189.279 200 185.613 200H152.826C145.976 200 141.512 192.801 144.558 186.665L161.278 152.983C162.546 150.427 162.562 147.429 161.32 144.86L123.507 66.6679C120.543 60.5382 125.009 53.4185 131.818 53.4185H165.433C169.514 53.4185 173.111 56.099 174.278 60.0102L178.963 75.7119C181.601 84.5527 194.146 84.4819 196.683 75.6118L201.118 60.1103ZM105.284 61.7526C108.276 63.8123 112.804 61.5869 112.804 57.9552V20.5254C112.804 16.5605 110.281 12.9971 106.449 11.9809C97.8152 9.69186 88.9055 8.54733 79.7196 8.54733C63.2493 8.54733 48.6409 12.6072 35.8942 20.7269C23.1476 28.8465 13.4803 40.385 6.89215 55.3424C2.3091 65.8837 0.0175781 76.4963 0.0175781 87.1801C0.0175781 92.4507 0.590459 97.7214 1.73622 102.992C5.74639 121.653 14.626 136.397 28.3752 147.223C42.1243 157.907 58.5947 163.249 77.7862 163.249C86.0929 163.249 94.4713 162.252 102.921 160.257L105.709 159.594C109.868 158.605 112.804 154.889 112.804 150.614V108.782C112.804 107.161 110.958 106.196 109.581 107.052C102.706 111.325 95.4739 113.747 87.8832 114.317C79.0035 114.887 71.4129 112.465 65.1112 107.052C58.8095 101.496 55.6586 94.3026 55.6586 85.4706C55.6586 77.0661 58.523 70.086 64.2519 64.5304C70.1239 58.9748 77.3565 56.1971 85.9497 56.1971C92.9675 56.1971 99.4124 58.0489 105.284 61.7526Z" fill="#1D1D1D"/>
</svg>
