<?xml version="1.0" encoding="UTF-8"?>
<svg version="1.1" xmlns="http://www.w3.org/2000/svg" width="696" height="447">
<path d="M0 0 C229.68 0 459.36 0 696 0 C696 147.51 696 295.02 696 447 C466.32 447 236.64 447 0 447 C0 299.49 0 151.98 0 0 Z " fill="#FCFDFD" transform="translate(0,0)"/>
<path d="M0 0 C1.28812843 -0.00021904 1.28812843 -0.00021904 2.60227966 -0.0004425 C5.44296793 0.0002546 8.28359076 0.00803756 11.12426758 0.01586914 C13.09296126 0.01773404 15.06165542 0.0191576 17.03034973 0.02015686 C22.21382934 0.02397638 27.39728096 0.03380187 32.58074951 0.04486084 C37.86934022 0.05508709 43.15793546 0.05965709 48.4465332 0.06469727 C58.82480071 0.07542462 69.20304744 0.09249429 79.58129883 0.11352539 C80.2718335 1.72747192 80.2718335 1.72747192 80.97631836 3.37402344 C81.59704426 4.81201888 82.21798684 6.24992082 82.83911133 7.68774414 C83.14051025 8.39378784 83.44190918 9.09983154 83.75244141 9.82727051 C88.64688269 21.12088503 95.42954483 30.90291367 103.58129883 40.11352539 C104.48235352 41.14026367 104.48235352 41.14026367 105.40161133 42.18774414 C116.48699663 54.016954 131.47053701 63.38284025 146.58129883 69.11352539 C146.58129883 69.44352539 146.58129883 69.77352539 146.58129883 70.11352539 C89.49129883 70.11352539 32.40129883 70.11352539 -26.41870117 70.11352539 C-26.33620117 86.03602539 -26.25370117 101.95852539 -26.16870117 118.36352539 C-26.15291016 123.37056641 -26.13711914 128.37760742 -26.12084961 133.53637695 C-26.08758455 138.06810604 -26.08758455 138.06810604 -26.0491333 142.59979248 C-26.03462496 144.60089261 -26.02775183 146.60205781 -26.02716064 148.60321045 C-26.0558657 169.23611856 -26.0558657 169.23611856 -16.46166992 187.07836914 C-8.05571585 195.45217807 1.3532579 199.40761501 13.19262034 199.51425925 C14.10627515 199.5075216 15.01992996 199.50078395 15.96127129 199.49384212 C17.4623318 199.500832 17.4623318 199.500832 18.99371678 199.50796309 C22.33789563 199.51988818 25.68166634 199.51052702 29.02584839 199.50120544 C31.45131175 199.50537943 33.87677316 199.5108573 36.30223095 199.51752526 C41.57105925 199.52897122 46.83976854 199.53111235 52.1085968 199.52497482 C59.94370559 199.51587236 67.77873221 199.52392493 75.61383471 199.53526606 C89.60907223 199.55492422 103.6042727 199.55728201 117.59952074 199.55207086 C129.84829521 199.54751231 142.09705501 199.54811458 154.34582901 199.55391121 C155.98935713 199.55466808 157.63288524 199.55542406 159.27641336 199.55617915 C161.75311477 199.55732436 164.22981619 199.55847424 166.70651759 199.5596384 C189.73031499 199.57034222 212.75410752 199.57506985 235.77790642 199.56716824 C236.64566547 199.56687106 237.51342452 199.56657389 238.4074793 199.56626771 C245.45412874 199.56381882 252.50077812 199.56120721 259.5474275 199.55858358 C287.03318776 199.54848138 314.51888693 199.55683651 342.00463867 199.58007812 C372.89228844 199.60615415 403.77990142 199.61899775 434.6675626 199.61189038 C437.96142077 199.61117432 441.25527894 199.61049993 444.54913712 199.60984993 C445.76566472 199.60959522 445.76566472 199.60959522 447.00676864 199.60933536 C459.24552241 199.60703307 471.48424202 199.61500602 483.72298813 199.6281414 C497.64276984 199.64305443 511.56247151 199.64389342 525.48225151 199.62607049 C533.26942397 199.61651003 541.05640973 199.6179371 548.84356971 199.63530518 C554.6612742 199.64703729 560.47882383 199.63781041 566.29651846 199.62048281 C568.64769526 199.61671178 570.99889464 199.61967638 573.35005139 199.63009446 C595.14366492 199.81567128 595.14366492 199.81567128 613.58129883 189.11352539 C614.12399414 188.62368164 614.66668945 188.13383789 615.22583008 187.62915039 C626.31533003 176.28697829 625.32122191 160.85771739 625.28833008 146.18774414 C625.30087971 144.23513258 625.31564548 142.28253398 625.3326416 140.32995605 C625.37978021 133.1537717 625.38429648 125.97735828 625.39379883 118.80102539 C625.45567383 102.73415039 625.51754883 86.66727539 625.58129883 70.11352539 C569.48129883 70.11352539 513.38129883 70.11352539 455.58129883 70.11352539 C458.94089045 67.59383167 462.34397615 65.26054827 465.83129883 62.92602539 C479.00074987 53.8920247 486.87325813 42.5082875 493.58129883 28.11352539 C494.07823242 27.0887207 494.07823242 27.0887207 494.58520508 26.04321289 C496.41155958 22.10816889 497.06694079 18.39984241 497.58129883 14.11352539 C497.91129883 13.78352539 498.24129883 13.45352539 498.58129883 13.11352539 C498.81611576 10.93059765 498.99493205 8.74149365 499.14379883 6.55102539 C499.22758789 5.35348633 499.31137695 4.15594727 499.39770508 2.92211914 C499.45829102 1.9952832 499.51887695 1.06844727 499.58129883 0.11352539 C513.24651312 0.04392596 526.91168504 -0.00933652 540.57704067 -0.04191113 C546.92284354 -0.05754757 553.26852488 -0.07874923 559.61425781 -0.11279297 C565.74155429 -0.14545804 571.86873407 -0.16334282 577.99611092 -0.17110634 C580.33041279 -0.17663698 582.66470848 -0.18743694 584.99896049 -0.20366478 C588.27581313 -0.22553365 591.55218736 -0.22843753 594.82910156 -0.22705078 C595.78792236 -0.23783661 596.74674316 -0.24862244 597.73461914 -0.25973511 C609.35426514 -0.20674295 619.03758776 4.18482477 627.65942383 11.99633789 C637.80981961 22.89698031 639.88173504 34.68541042 639.87182617 49.04418945 C639.87781744 50.45593112 639.88462436 51.86766953 639.8921814 53.27940369 C639.90978949 57.09987151 639.91453462 60.92024964 639.91581297 64.74075413 C639.91723828 67.13242325 639.92151509 69.52406983 639.9268074 71.91573334 C639.94529178 80.27318255 639.95348017 88.63056813 639.9519043 96.98803711 C639.95070391 104.75598967 639.97179006 112.52366392 640.00339162 120.29154611 C640.02961944 126.97886585 640.04026885 133.66609507 640.03899348 140.3534658 C640.03848567 144.33942447 640.04406732 148.32513573 640.06534958 152.31104279 C640.08484172 156.0639112 640.08478249 159.816299 640.07031631 163.56918526 C640.06725825 165.58640522 640.08382822 167.6036258 640.10119629 169.62077332 C640.01368056 182.4008543 636.317532 192.83786729 627.58129883 202.27368164 C617.6068567 211.80283618 605.75389419 215.42896848 592.25812244 215.3707943 C590.71160302 215.37605341 590.71160302 215.37605341 589.13384077 215.38141876 C585.66858549 215.39074504 582.20349781 215.38580619 578.73823547 215.38095093 C576.23286638 215.38468656 573.72749846 215.38928774 571.22213238 215.39468157 C565.76944342 215.40437649 560.31680527 215.4078251 554.86410904 215.40576935 C546.75553098 215.40271976 538.64699222 215.41104244 530.5384218 215.4215186 C515.21336277 215.44086504 499.88831711 215.44648707 484.5632473 215.44763272 C472.72808263 215.44855168 460.89292321 215.45266776 449.05776024 215.45903397 C445.65140238 215.46082905 442.24504451 215.46260868 438.83868665 215.46438372 C437.56844754 215.46504687 437.56844754 215.46504687 436.27254704 215.46572341 C412.45105081 215.47803274 388.62955639 215.48592445 364.80805683 215.48503685 C363.46073537 215.48499011 363.46073537 215.48499011 362.0861953 215.48494243 C357.53364468 215.48477622 352.98109405 215.48457814 348.42854343 215.48437302 C347.52438686 215.48433313 346.62023029 215.48429324 345.68867503 215.48425214 C343.86024949 215.48417126 342.03182396 215.48408767 340.20339842 215.48400136 C311.7581371 215.48277593 283.31292346 215.49778701 254.86767578 215.52514648 C222.9110137 215.55587066 190.95438295 215.57307876 158.99770516 215.57122004 C155.58977552 215.57107078 152.18184589 215.57097337 148.77391624 215.57091141 C147.51523487 215.57087644 147.51523487 215.57087644 146.2311256 215.57084078 C132.72989577 215.57077924 119.22870735 215.58354878 105.72748983 215.60077594 C92.15680459 215.61773351 78.58617989 215.61970529 65.01548991 215.60655729 C56.95505182 215.59916886 48.89479773 215.60282284 40.83437915 215.62244197 C34.81311372 215.63585847 28.79206502 215.62832821 22.77079704 215.61269553 C20.33675654 215.60961729 17.90269612 215.61328889 15.46867911 215.62441568 C-1.63919859 215.69743858 -15.14283485 215.22698867 -28.41870117 203.11352539 C-38.75780828 191.95771571 -41.0291336 179.31630054 -40.9362793 164.50170898 C-40.94171569 163.08907861 -40.94884676 161.67645393 -40.95751953 160.26383972 C-40.97557277 156.46839281 -40.96876193 152.67338648 -40.95600319 148.87793303 C-40.94578505 144.88326155 -40.95529271 140.88862458 -40.96154785 136.89395142 C-40.96879717 130.19135857 -40.95930659 123.48894283 -40.94018555 116.78637695 C-40.91840414 109.06257819 -40.92548818 101.33920168 -40.94749117 93.61541307 C-40.96570177 86.95342655 -40.9681765 80.29156637 -40.95773649 73.62956297 C-40.9515348 69.6638438 -40.95057375 65.69832249 -40.96388245 61.73261642 C-40.97552401 58.00424699 -40.96726595 54.27641702 -40.94430542 50.54810524 C-40.93658288 48.54528651 -40.94830161 46.5424216 -40.96081543 44.53962708 C-40.84302367 31.83667993 -37.16698481 21.27629094 -28.38354492 11.95336914 C-20.04342263 4.08394159 -11.45154412 -0.05069883 0 0 Z " fill="#1A7EB2" transform="translate(48.418701171875,226.886474609375)"/>
<path d="M0 0 C3.39554235 -0.11660824 6.79056679 -0.18738372 10.1875 -0.25 C11.14720703 -0.28351563 12.10691406 -0.31703125 13.09570312 -0.3515625 C17.32366051 -0.41008094 20.1906603 -0.43292743 23.96484375 1.5859375 C26.44061733 4.52265165 27.87646086 7.33783908 29.375 10.875 C29.89835938 12.06867188 30.42171875 13.26234375 30.9609375 14.4921875 C32.06912732 18.23336967 32.04607479 20.27880686 31 24 C29.08268479 26.52737004 28.08494591 26.9716847 25 28 C22.26568283 28.22809443 19.55075247 28.4164271 16.8125 28.5625 C15.41884829 28.64026373 14.02521324 28.71832648 12.6315918 28.79663086 C10.83395386 28.89729858 10.83395386 28.89729858 9 29 C9.48758789 30.02125977 9.97517578 31.04251953 10.47753906 32.09472656 C15.08013438 41.77863795 19.47626986 51.53334397 23.72521973 61.37701416 C25.54926955 65.60079218 27.38376212 69.82002722 29.21875 74.0390625 C29.603797 74.92443695 29.98884399 75.8098114 30.38555908 76.72201538 C34.95449724 87.21296681 39.59934244 97.67007963 44.25 108.125 C44.6713623 109.07304504 45.09272461 110.02109009 45.52685547 110.99786377 C49.70926974 120.40688454 53.90440601 129.80962447 58.15625 139.1875 C58.77704948 140.55971894 59.39781888 141.93195148 60.01855469 143.30419922 C61.13771573 145.77768029 62.26435134 148.24726273 63.39550781 150.71533203 C63.87858398 151.78122559 64.36166016 152.84711914 64.859375 153.9453125 C65.27670898 154.85812988 65.69404297 155.77094727 66.12402344 156.71142578 C67 159 67 159 67 162 C63.37 162 59.74 162 56 162 C46.91988438 144.45886756 38.82624028 126.5781913 30.87692261 108.50537109 C26.37284177 98.28157514 21.6954684 88.13711588 17 78 C13.65453161 80.71936118 10.52387367 83.31095093 7.75 86.625 C4.89307588 89.97493315 1.97069159 93.25024344 -1 96.5 C-4.45575413 100.28934126 -7.8652289 104.11083698 -11.23046875 107.98046875 C-15.510948 112.86569562 -19.8781865 117.67628383 -24.2578125 122.47265625 C-28.15929798 126.76157147 -31.92864942 131.1060606 -35.5625 135.625 C-38.91365611 139.78748864 -42.43416176 143.53759483 -46.37109375 147.1484375 C-48.31104033 149.35355663 -49.21876001 151.17076365 -50 154 C-49.27937788 155.93257751 -48.55125878 157.86342075 -47.75390625 159.765625 C-45.47001104 166.53447506 -46.76755407 172.77655273 -49.83984375 179.03125 C-51 181 -51 181 -53.3125 183.8125 C-55.21808287 185.80382184 -55.21808287 185.80382184 -54.9375 188 C-53.79247326 190.44272372 -52.39612171 192.69336414 -51 195 C-51 195.66 -51 196.32 -51 197 C-49.98679687 196.89558594 -49.98679687 196.89558594 -48.953125 196.7890625 C-46.19823012 196.6218579 -43.7302179 196.5763455 -41 197 C-38.08986364 200.11800325 -37 201.72325931 -37 206 C-45.58 206 -54.16 206 -63 206 C-67 199 -67 199 -67 197 C-64.36 197 -61.72 197 -59 197 C-59.99 195.35 -60.98 193.7 -62 192 C-63.0832959 192.23771118 -63.0832959 192.23771118 -64.18847656 192.48022461 C-75.40603587 194.55405092 -86.31646237 191.82888483 -97.28359985 189.55276489 C-102.37033789 188.49771797 -107.46463844 187.480466 -112.55859375 186.4609375 C-113.59320236 186.25306107 -114.62781097 186.04518463 -115.69377136 185.83100891 C-127.86346746 183.40110401 -140.08669181 181.29365063 -152.31933594 179.20874023 C-174.92559206 175.34949252 -174.92559206 175.34949252 -180 171 C-183.05146436 166.52451893 -183.95053785 162.29132736 -183 157 C-180.73200065 152.54800128 -178.47203264 150.18147934 -174 148 C-173.21496094 147.76796875 -172.42992187 147.5359375 -171.62109375 147.296875 C-168.1712702 145.58995783 -166.56608633 143.12139429 -164.5 140 C-163.62205673 138.72329559 -162.74310025 137.44728751 -161.86328125 136.171875 C-161.40002441 135.49318359 -160.93676758 134.81449219 -160.45947266 134.11523438 C-157.93010816 130.44939061 -155.304156 126.85377772 -152.6875 123.25 C-151.57653305 121.71375124 -150.46585879 120.17729079 -149.35546875 118.640625 C-148.80036621 117.87298828 -148.24526367 117.10535156 -147.67333984 116.31445312 C-144.94736862 112.54406982 -142.22376931 108.77197414 -139.5 105 C-136.15688165 100.37063705 -132.81338065 95.74155174 -129.46875 91.11328125 C-128.59766602 89.90768555 -128.59766602 89.90768555 -127.70898438 88.67773438 C-126.60627308 87.15158194 -125.50341901 85.62553265 -124.40039062 84.09960938 C-123.40495805 82.72180833 -122.41238895 81.34193263 -121.4230957 79.9597168 C-120.46996399 78.64717806 -119.49674144 77.34900937 -118.50463867 76.06567383 C-115.4162266 72.08039274 -115.4162266 72.08039274 -115.3125 67.0625 C-116.88744804 61.75741186 -118.95362734 56.5625061 -120.96606445 51.40844727 C-123 46.19472349 -123 46.19472349 -123 44 C-123.70125 44.08121094 -124.4025 44.16242188 -125.125 44.24609375 C-132.72909062 44.75234435 -132.72909062 44.75234435 -136.3359375 42.6171875 C-138.34932908 40.83522024 -140.18159689 38.97921426 -142 37 C-142.969375 36.113125 -143.93875 35.22625 -144.9375 34.3125 C-147.01307156 31.98534401 -147.41147481 30.94262595 -148 28 C-140.31399281 27.82202124 -132.62851985 27.69971961 -124.94091797 27.61547852 C-122.32776023 27.58034934 -119.71473936 27.53263455 -117.10205078 27.47192383 C-113.33852323 27.38668215 -109.57681918 27.34723332 -105.8125 27.31640625 C-104.06984863 27.26221275 -104.06984863 27.26221275 -102.29199219 27.20692444 C-95.30567384 27.20356809 -91.4631617 28.18583783 -86.3972168 33.10215759 C-85 35 -85 35 -84 39 C-97.365 39.495 -97.365 39.495 -111 40 C-108.70125763 46.77769338 -108.70125763 46.77769338 -106.39257812 53.55200195 C-105.9662207 54.81983521 -105.9662207 54.81983521 -105.53125 56.11328125 C-105.23798828 56.97735596 -104.94472656 57.84143066 -104.64257812 58.73168945 C-104 61 -104 61 -104 64 C-103.33047806 63.88804291 -102.66095612 63.77608582 -101.97114563 63.66073608 C-82.64913377 60.43022237 -63.32542922 57.21000285 -44 54 C-42.91883911 53.82027649 -41.83767822 53.64055298 -40.72375488 53.4553833 C-35.3886621 52.56886113 -30.05299462 51.68605167 -24.71591187 50.81158447 C-23.21717251 50.5655117 -21.71865027 50.31811223 -20.22036743 50.0692749 C-12.16613833 48.73289774 -4.14915859 47.58185398 4 47 C3.6918335 46.31897217 3.38366699 45.63794434 3.06616211 44.9362793 C1.67987488 41.85777101 0.30855046 38.77282238 -1.0625 35.6875 C-1.54783203 34.61564453 -2.03316406 33.54378906 -2.53320312 32.43945312 C-2.98759766 31.41142578 -3.44199219 30.38339844 -3.91015625 29.32421875 C-4.33433838 28.37635498 -4.75852051 27.42849121 -5.19555664 26.4519043 C-6 24 -6 24 -5 21 C2.83931699 17.30106014 11.54420442 17.66670587 20 18 C19.67 17.236875 19.34 16.47375 19 15.6875 C18 13 18 13 18 10 C13.38 10 8.76 10 4 10 C0 2.25 0 2.25 0 0 Z " fill="#103B64" transform="translate(405,67)"/>
<path d="M0 0 C3.64031255 1.45612502 5.80293929 2.38143555 8.79296875 4.58203125 C9.49703857 5.09572266 10.2011084 5.60941406 10.92651367 6.13867188 C11.67263916 6.69103516 12.41876465 7.24339844 13.1875 7.8125 C14.7915598 8.9858232 16.39572977 10.15899578 18 11.33203125 C18.82242188 11.93611816 19.64484375 12.54020508 20.4921875 13.16259766 C24.54190765 16.12971154 28.61532199 19.06382819 32.6875 22 C33.41670654 22.52698486 34.14591309 23.05396973 34.8972168 23.59692383 C35.59500244 24.10118896 36.29278809 24.6054541 37.01171875 25.125 C37.67606934 25.60710938 38.34041992 26.08921875 39.02490234 26.5859375 C40.36324374 27.54411715 41.71304705 28.48645095 43.07275391 29.4140625 C44.74764692 30.56342475 46.37876893 31.77610866 48 33 C48 33.66 48 34.32 48 35 C47.09983154 35.35191406 46.19966309 35.70382813 45.2722168 36.06640625 C41.07611461 37.70789074 36.88161087 39.35343514 32.6875 41 C31.93579529 41.29490326 31.18409058 41.58980652 30.40960693 41.89364624 C20.65878633 45.72239372 10.93755682 49.59694946 1.34643555 53.81445312 C-1.61319061 55.09846799 -3.7352195 56 -7 56 C-6.37648073 49.55696754 -5.3117647 43.33685628 -4 37 C-68.10211174 36.57478954 -129.00941944 49.70735668 -177 95 C-177.74636719 95.69351563 -178.49273437 96.38703125 -179.26171875 97.1015625 C-203.09450214 119.97770711 -217.47392027 151.59351727 -218.33691406 184.57373047 C-218.74850732 218.22411779 -205.16999257 246.2693396 -183 271 C-186.82858508 271 -187.32325147 270.06220795 -189.984375 267.4140625 C-190.75523437 266.64707031 -191.52609375 265.88007813 -192.3203125 265.08984375 C-193.12210938 264.27644531 -193.92390625 263.46304687 -194.75 262.625 C-195.53632813 261.85027344 -196.32265625 261.07554687 -197.1328125 260.27734375 C-219.33343497 237.96608695 -230.19130778 207.06945084 -230.5 175.875 C-230.17391888 143.06308766 -215.09912571 111.83885762 -192.953125 88.10546875 C-191.35939276 86.38742539 -189.88541074 84.65134665 -188.4375 82.8125 C-185.24892013 79.13336938 -181.74527394 76.101914 -178 73 C-177.47083984 72.55849609 -176.94167969 72.11699219 -176.39648438 71.66210938 C-167.66095795 64.40355738 -158.74424186 57.83543001 -149 52 C-148.39639648 51.63310059 -147.79279297 51.26620117 -147.17089844 50.88818359 C-101.72338215 23.45557761 -51.99332488 17.32215366 0 18 C0 12.06 0 6.12 0 0 Z " fill="#24AEDF" transform="translate(359,3)"/>
<path d="M0 0 C3.18455334 2.12303556 4.15817721 3.73495052 6 7 C6.33 7.33 6.66 7.66 7 8 C7 53.87 7 99.74 7 147 C-222.68 147 -452.36 147 -689 147 C-689 103.77 -689 60.54 -689 16 C-686.69 14.02 -684.38 12.04 -682 10 C-681.98969254 11.01096237 -681.97938507 12.02192474 -681.96876526 13.06352234 C-681.87056369 22.63973628 -681.76779038 32.21589197 -681.66066074 41.79201031 C-681.605742 46.71394 -681.55237561 51.63587585 -681.50268555 56.55786133 C-681.45457906 61.31711729 -681.40222686 66.07631011 -681.34705925 70.83548927 C-681.3268431 72.64172585 -681.308099 74.44797959 -681.29092598 76.25424767 C-681.66404819 104.46943999 -681.66404819 104.46943999 -669.15625 128.91796875 C-655.42247096 142.17902713 -639.48020382 141.57949216 -621.55566406 141.50793457 C-619.04597741 141.51254608 -616.53629346 141.51890067 -614.02661514 141.52684355 C-608.57993282 141.54004628 -603.13346763 141.54087959 -597.68678284 141.53065491 C-589.58727239 141.51549175 -581.48789527 141.52327709 -573.38838565 141.53548814 C-558.92065143 141.55652893 -544.45298794 141.55473439 -529.98524702 141.54317249 C-517.32418217 141.53310425 -504.66314323 141.53048626 -492.0020752 141.53526306 C-491.16174273 141.5355686 -490.32141026 141.53587414 -489.45561317 141.53618894 C-486.04429985 141.53743433 -482.63298655 141.53870793 -479.22167327 141.540028 C-447.23082768 141.55225984 -415.24002712 141.54117675 -383.24918848 141.51964041 C-354.83667446 141.50065845 -326.42423215 141.50235697 -298.01171875 141.52148438 C-266.07881953 141.54290993 -234.14596007 141.55139231 -202.21305466 141.53903532 C-198.80801138 141.53775248 -195.4029681 141.53650112 -191.9979248 141.53526306 C-190.74034219 141.5347886 -190.74034219 141.5347886 -189.45735386 141.53430455 C-176.80525787 141.52975756 -164.15319064 141.53507035 -151.50109863 141.54518127 C-137.11291016 141.55662238 -122.7248034 141.55375032 -108.3366251 141.5320583 C-100.28727762 141.52032269 -92.23810714 141.51953252 -84.18876429 141.534643 C-78.17594922 141.54468419 -72.16336307 141.53377461 -66.15056181 141.5147447 C-63.72003948 141.51027865 -61.28949344 141.51254488 -58.85898638 141.52224785 C-41.90734556 141.58472723 -27.06211144 140.95395617 -13.77734375 129 C-6.91361869 121.81554013 -1.91549424 112.59630575 -1.84851074 102.50154114 C-1.84016708 101.60558731 -1.83182343 100.70963348 -1.82322693 99.78652954 C-1.81904251 98.81130341 -1.81485809 97.83607727 -1.81054688 96.83129883 C-1.80225357 95.79844254 -1.79396027 94.76558624 -1.78541565 93.70143127 C-1.76802508 91.45992878 -1.75285555 89.21840821 -1.73963928 86.97687721 C-1.71861992 83.43511315 -1.69159875 79.89344049 -1.66296387 76.35173035 C-1.59311707 67.55889419 -1.53362438 58.76599345 -1.47393799 49.9730835 C-1.4231036 42.53882098 -1.36832225 35.10460863 -1.30812073 27.67041588 C-1.28145159 24.1709833 -1.26069784 20.67154627 -1.2401123 17.17207336 C-1.2235186 15.04155247 -1.20664759 12.91103371 -1.18945312 10.78051758 C-1.18526871 9.79921875 -1.18108429 8.81791992 -1.17677307 7.80688477 C-1.16842941 6.91939041 -1.16008575 6.03189606 -1.15148926 5.11750793 C-1.14633553 4.34194455 -1.14118179 3.56638117 -1.13587189 2.76731586 C-1 1 -1 1 0 0 Z " fill="#FDFDFD" transform="translate(689,300)"/>
<path d="M0 0 C1.48484417 2.35828192 2.04054506 3.60168304 1.75439453 6.4128418 C0.91100207 9.30521393 -0.04488023 10.56647913 -2.1328125 12.70703125 C-3.09574219 13.7115332 -3.09574219 13.7115332 -4.078125 14.73632812 C-4.75359375 15.42146484 -5.4290625 16.10660156 -6.125 16.8125 C-7.44144866 18.17187633 -8.75655669 19.53255226 -10.0703125 20.89453125 C-10.72338379 21.56935547 -11.37645508 22.24417969 -12.04931641 22.93945312 C-15.13797785 26.20206922 -18.06174358 29.60249678 -21 33 C-22.45390807 34.62896054 -23.91157732 36.25458179 -25.375 37.875 C-26.51582031 39.13957031 -26.51582031 39.13957031 -27.6796875 40.4296875 C-28.44539063 41.27789062 -29.21109375 42.12609375 -30 43 C-31.50028679 44.66640851 -33.00028872 46.33307353 -34.5 48 C-36.7717129 50.52500493 -39.04435414 53.04913304 -41.3203125 55.5703125 C-44.66841572 59.2815998 -48.01312165 62.99525951 -51.3125 66.75 C-51.86164063 67.37390625 -52.41078125 67.9978125 -52.9765625 68.640625 C-54.66587229 70.61039935 -56.3174001 72.60163879 -57.9609375 74.609375 C-58.49162842 75.24907227 -59.02231934 75.88876953 -59.5690918 76.54785156 C-60.63494031 77.83349416 -61.69139515 79.12699191 -62.73754883 80.42871094 C-64.23046875 82.21875 -64.23046875 82.21875 -67 85 C-71 85 -71 85 -73.125 84.0625 C-75.95048461 83.01829917 -78.1967969 82.70190887 -81.1796875 82.43359375 C-82.53296143 82.3087561 -82.53296143 82.3087561 -83.91357422 82.18139648 C-84.94635498 82.09160522 -84.94635498 82.09160522 -86 82 C-88.57743347 74.70780066 -91.15089326 67.41421216 -93.71940422 60.11886597 C-94.9124158 56.73074349 -96.10674849 53.34309934 -97.30419922 49.95654297 C-98.46153396 46.68328054 -99.6152691 43.40876925 -100.76660538 40.13339233 C-101.41664778 38.2870375 -102.07033236 36.44196624 -102.72409058 34.59692383 C-104.76838328 28.77157688 -106.6431816 23.02453335 -108 17 C-106.87476929 16.81377075 -106.87476929 16.81377075 -105.72680664 16.6237793 C-102.59258447 16.10444664 -99.45852424 15.58414681 -96.32455444 15.06329346 C-94.81306014 14.81219001 -93.30152426 14.56133665 -91.78994751 14.31072998 C-80.38017853 12.41817933 -68.97745865 10.48615855 -57.57860756 8.52903938 C-53.16704876 7.77222243 -48.75496486 7.01847049 -44.342906 6.264575 C-39.91825221 5.50809785 -35.49452779 4.7464365 -31.07136154 3.98131275 C-28.26157978 3.49655298 -25.45097873 3.0166791 -22.64014816 2.53804207 C-20.68719717 2.20394792 -18.73525974 1.86394599 -16.78335571 1.52378845 C-11.12339271 0.56411704 -5.74458497 -0.2976908 0 0 Z " fill="#F9FBFC" transform="translate(414,125)"/>
<path d="M0 0 C15.35015621 10.55947027 27.05174317 26.89609108 30.6015625 45.3828125 C31.87917388 56.98151974 32.28854958 68.98700467 28 80 C27.63648438 80.99257812 27.27296875 81.98515625 26.8984375 83.0078125 C19.19333175 102.84224602 5.10123482 115.51294966 -14 124 C-22.51492475 127.17721073 -30.89417984 128.17986851 -39.9375 128.1875 C-40.69740234 128.19974609 -41.45730469 128.21199219 -42.24023438 128.22460938 C-47.50605031 128.23809994 -51.93774518 127.45976452 -57 126 C-57.98484375 125.72800781 -58.9696875 125.45601562 -59.984375 125.17578125 C-78.14284263 119.50767201 -92.11383048 108.00065165 -101.42578125 91.46875 C-109.57951455 75.88285271 -112.37600317 55.97386561 -107.375 38.875 C-106.63699993 36.89581799 -105.84568454 34.93561959 -105 33 C-104.56429688 31.97777344 -104.12859375 30.95554688 -103.6796875 29.90234375 C-98.80412455 19.36526645 -91.56367807 9.75305078 -82 3 C-81.01 3 -80.02 3 -79 3 C-78.27249212 4.40691607 -77.56859647 5.82606022 -76.875 7.25 C-76.28332031 8.43335938 -76.28332031 8.43335938 -75.6796875 9.640625 C-75 12 -75 12 -75.62109375 14.0234375 C-77.27341901 16.3919264 -79.15382109 18.32381955 -81.1875 20.375 C-90.94441873 31.01318881 -95.38018434 43.6797229 -95.25 58 C-95.26160156 59.27617187 -95.26160156 59.27617187 -95.2734375 60.578125 C-95.22753729 75.54159214 -89.15999269 88.30252276 -79.04296875 99.0859375 C-67.46328288 110.30040137 -53.36808426 114.45347902 -37.62768555 114.43383789 C-21.56003527 114.11399782 -7.9643516 108.45798568 3.3125 96.8125 C14.85982073 83.45060029 18.2228692 68.79035869 17.24560547 51.61669922 C15.94289531 37.7375268 9.19060396 25.38522311 -1.0625 16 C-2.35539305 14.97477621 -3.66717586 13.97274665 -5 13 C-5.5775 12.55398437 -6.155 12.10796875 -6.75 11.6484375 C-20.36595653 2.08205425 -38.01123089 0.54018937 -54 3 C-54.67354499 1.56570999 -55.33859701 0.12742943 -56 -1.3125 C-56.37125 -2.11300781 -56.7425 -2.91351563 -57.125 -3.73828125 C-58 -6 -58 -6 -58 -9 C-38.07847112 -14.77101068 -17.54852863 -10.53746368 0 0 Z " fill="#0E3862" transform="translate(507,168)"/>
<path d="M0 0 C-1.78071179 4.04707225 -4.40362095 7.45278561 -7 11 C-7.59063232 10.86070068 -8.18126465 10.72140137 -8.78979492 10.57788086 C-23.36109485 7.37313285 -39.65733498 6.58948759 -53 14 C-53.97066406 14.53109375 -54.94132812 15.0621875 -55.94140625 15.609375 C-69.09204678 23.41029918 -77.82785782 34.97183931 -82.42651367 49.55200195 C-83.48168151 54.05611772 -83.53047211 58.51638262 -83.5 63.125 C-83.49427979 64.13401367 -83.48855957 65.14302734 -83.48266602 66.18261719 C-83.12585414 81.23839632 -77.57272585 94.01276381 -67.4375 105.1875 C-54.96578123 116.93411885 -40.28784281 120.76880205 -23.58984375 120.27734375 C-9.47024176 119.58246442 4.35478035 113.52416053 14 103 C14.87624766 101.70213753 15.73181827 100.38998816 16.5625 99.0625 C19 96 19 96 22.375 95.4375 C26.09432174 96.01463613 29.42736816 96.83342634 33 98 C26.7808771 112.98243244 13.49699501 122.69392352 -1 129 C-3.96304935 130.17403842 -6.92967867 131.14713296 -10 132 C-10.721875 132.20625 -11.44375 132.4125 -12.1875 132.625 C-30.10345015 136.98293382 -48.70817911 133.59212073 -64.453125 124.3359375 C-80.45642249 114.22721694 -91.57952304 98.3497497 -96 80 C-98.94006213 66.83333417 -98.47627957 51.38115381 -93 39 C-92.56429687 37.9790625 -92.12859375 36.958125 -91.6796875 35.90625 C-88.38417764 28.77498276 -84.20584973 22.85913284 -79 17 C-78.44570312 16.36320312 -77.89140625 15.72640625 -77.3203125 15.0703125 C-72.58778064 9.97548155 -66.97464805 6.48884558 -61 3 C-60.03126953 2.4121875 -60.03126953 2.4121875 -59.04296875 1.8125 C-40.55288421 -8.5000526 -19.31790085 -6.43930028 0 0 Z " fill="#0F3860" transform="translate(265,162)"/>
<path d="M0 0 C1.26972656 0.00257813 2.53945313 0.00515625 3.84765625 0.0078125 C5.11480469 0.00523437 6.38195312 0.00265625 7.6875 0 C10.91015625 0.1328125 10.91015625 0.1328125 12.91015625 1.1328125 C12.9332817 10.24240415 12.95107237 19.35198576 12.96196842 28.4616003 C12.96719681 32.69112621 12.97429365 36.9206321 12.9855957 41.15014648 C12.99642616 45.22849793 13.00243342 49.30683007 13.00503349 53.38519478 C13.00688746 54.94458889 13.01050752 56.5039819 13.01588631 58.06336784 C13.02309887 60.24010412 13.0241471 62.41675964 13.02368164 64.59350586 C13.02590225 65.83482773 13.02812286 67.0761496 13.03041077 68.35508728 C12.91015625 71.1328125 12.91015625 71.1328125 11.91015625 72.1328125 C9.37966223 72.20594817 6.87710788 72.22528777 4.34765625 72.1953125 C3.2812793 72.18854492 3.2812793 72.18854492 2.19335938 72.18164062 C0.43225612 72.16982114 -1.32880411 72.15188513 -3.08984375 72.1328125 C-3.41984375 70.1528125 -3.74984375 68.1728125 -4.08984375 66.1328125 C-4.85296875 66.9165625 -5.61609375 67.7003125 -6.40234375 68.5078125 C-10.52270965 72.53235593 -12.67052292 73.4255358 -18.33984375 73.4453125 C-24.59524479 73.32034333 -29.0049435 73.0345239 -33.734375 68.5859375 C-41.20573617 60.36925807 -42.40633033 52.45255175 -42.3046875 41.64453125 C-41.84445704 34.1218552 -39.28324479 27.65527201 -34.08984375 22.1328125 C-28.53411012 17.52273566 -23.47319104 17.69147405 -16.39453125 17.69921875 C-11.34988667 18.36110474 -8.54391185 20.58379786 -5.08984375 24.1328125 C-5.05225952 23.0955603 -5.05225952 23.0955603 -5.01391602 22.03735352 C-4.89832214 18.92313384 -4.77543133 15.80924461 -4.65234375 12.6953125 C-4.61302734 11.60669922 -4.57371094 10.51808594 -4.53320312 9.39648438 C-4.47036133 7.84477539 -4.47036133 7.84477539 -4.40625 6.26171875 C-4.36959229 5.30338135 -4.33293457 4.34504395 -4.29516602 3.35766602 C-3.97409837 -0.12139399 -3.59034982 0.15432604 0 0 Z " fill="#28B3E4" transform="translate(505.08984375,308.8671875)"/>
<path d="M0 0 C6.6 -0.061875 13.2 -0.12375 20 -0.1875 C22.06765625 -0.21481201 24.1353125 -0.24212402 26.265625 -0.27026367 C27.92707741 -0.27903561 29.58853634 -0.28667787 31.25 -0.29296875 C32.09433594 -0.30831665 32.93867188 -0.32366455 33.80859375 -0.33947754 C40.61806052 -0.34244678 45.78681085 1.05714144 51.6875 4.625 C57.3176954 10.40736284 59.3355441 15.42451 59.5625 23.5625 C59.28312359 30.72599763 58.43650499 35.61779644 53.26953125 40.703125 C45.30686249 47.25126778 36.99033126 48.45816236 26.9375 48.1875 C23.658125 48.125625 20.37875 48.06375 17 48 C17 54.93 17 61.86 17 69 C11.39 69 5.78 69 0 69 C0 46.23 0 23.46 0 0 Z " fill="#23AFE2" transform="translate(342,312)"/>
<path d="M0 0 C0.84051407 -0.00807175 1.68102814 -0.01614349 2.54701233 -0.02445984 C4.33511277 -0.03832669 6.12323997 -0.04903714 7.91137695 -0.05688477 C10.61788293 -0.07395217 13.32312035 -0.11779453 16.02929688 -0.16210938 C35.16296274 -0.33770662 35.16296274 -0.33770662 43.1953125 6.2734375 C43.71996094 6.94246094 44.24460938 7.61148437 44.78515625 8.30078125 C45.33300781 8.97238281 45.88085938 9.64398438 46.4453125 10.3359375 C50.49539565 16.36771272 49.61937254 26.21978356 48.72265625 33.23828125 C46.34708436 39.49716806 40.69220689 43.53152542 34.72265625 46.23828125 C28.80990903 48.3829553 23.4772239 48.47827897 17.28515625 48.36328125 C14.12953125 48.32203125 10.97390625 48.28078125 7.72265625 48.23828125 C7.72265625 55.16828125 7.72265625 62.09828125 7.72265625 69.23828125 C5.10328125 69.25890625 2.48390625 69.27953125 -0.21484375 69.30078125 C-1.04105225 69.30988525 -1.86726074 69.31898926 -2.71850586 69.32836914 C-4.57168134 69.3355207 -6.42483683 69.28856645 -8.27734375 69.23828125 C-10.11417597 67.40144903 -9.40508568 64.45172653 -9.40673828 61.99023438 C-9.4084906 61.33820541 -9.41024292 60.68617645 -9.41204834 60.01438904 C-9.41646579 57.84940972 -9.41352926 55.68451146 -9.41015625 53.51953125 C-9.41082932 52.02119938 -9.41179937 50.52286762 -9.41305542 49.02453613 C-9.41453225 45.88044192 -9.41237833 42.73637608 -9.40771484 39.59228516 C-9.40201755 35.55341586 -9.40529664 31.51461301 -9.41128731 27.47574615 C-9.41489333 24.38063045 -9.41375414 21.2855306 -9.41115952 18.19041443 C-9.41049036 16.7008005 -9.41131827 15.21118515 -9.41363907 13.72157288 C-9.41616628 11.6431189 -9.41232408 9.56477394 -9.40673828 7.48632812 C-9.40594269 6.30131714 -9.40514709 5.11630615 -9.40432739 3.89538574 C-9.14083639 -1.61810485 -4.41569445 0.03994687 0 0 Z " fill="#0C365D" transform="translate(51.27734375,311.76171875)"/>
<path d="M0 0 C4.95 0 9.9 0 15 0 C17.24863796 5.62159491 18.41180313 11.089192 19.625 17 C19.96917969 18.62035156 19.96917969 18.62035156 20.3203125 20.2734375 C20.536875 21.31757813 20.7534375 22.36171875 20.9765625 23.4375 C21.17330566 24.38496094 21.37004883 25.33242188 21.57275391 26.30859375 C21.98797622 28.92425705 22.07854706 31.35698123 22 34 C22.66 34 23.32 34 24 34 C24.03738281 33.41806885 24.07476562 32.8361377 24.11328125 32.23657227 C24.67499686 25.2364668 26.16661309 18.70460025 28 11.9375 C28.27328125 10.89400391 28.5465625 9.85050781 28.828125 8.77539062 C30.85672693 1.14327307 30.85672693 1.14327307 32 0 C34.35313555 -0.07271741 36.70833668 -0.08370868 39.0625 -0.0625 C40.35285156 -0.05347656 41.64320313 -0.04445313 42.97265625 -0.03515625 C43.97167969 -0.02355469 44.97070312 -0.01195312 46 0 C47.37726416 3.98627022 48.53492038 7.95162074 49.5078125 12.0546875 C49.90419922 13.71757812 49.90419922 13.71757812 50.30859375 15.4140625 C50.57800781 16.55617188 50.84742188 17.69828125 51.125 18.875 C51.40214844 20.0403125 51.67929688 21.205625 51.96484375 22.40625 C52.64563575 25.27027153 53.32394102 28.13485822 54 31 C56.09399181 24.38924499 57.77787627 17.80028059 59.125 11 C59.45843387 9.33283065 59.79425363 7.66613615 60.1328125 6 C60.27605957 5.278125 60.41930664 4.55625 60.56689453 3.8125 C61 2 61 2 62 0 C66.95 0 71.9 0 77 0 C76.44464988 6.5204638 75.21304591 12.37561457 73.3125 18.625 C70.94111346 26.65342032 68.72106672 34.7077087 66.625 42.8125 C66.36243408 43.82715332 66.09986816 44.84180664 65.8293457 45.88720703 C65.21755339 48.25762005 64.60846065 50.62872959 64 53 C58.39 53 52.78 53 47 53 C44.76199021 46.56081394 42.95862469 40.12776257 41.375 33.5 C40.94853278 31.71797626 40.51901479 29.93667887 40.0859375 28.15625 C39.8082251 26.99319336 39.8082251 26.99319336 39.52490234 25.80664062 C39.15595738 23.9953765 39.15595738 23.9953765 38 23 C35.19744705 32.96955596 32.45128954 42.93681138 30 53 C24.72 53 19.44 53 14 53 C10.80091557 43.85975877 8.09350823 34.78302892 5.81689453 25.37207031 C4.29665207 19.10001191 2.57717573 12.92573204 0.69921875 6.75 C0 4 0 4 0 0 Z " fill="#0E3860" transform="translate(160,328)"/>
<path d="M0 0 C0.79929932 -0.0107959 1.59859863 -0.0215918 2.42211914 -0.03271484 C9.39833671 0.13278593 14.54322883 2.19327269 19.8359375 6.73828125 C20.46757812 7.46402344 21.09921875 8.18976563 21.75 8.9375 C22.72066406 10.01451172 22.72066406 10.01451172 23.7109375 11.11328125 C28.5351991 18.39497187 28.0597951 27.24064972 27.375 35.625 C25.9503261 42.43277719 22.95118253 46.71880146 17.66796875 51.15234375 C11.81287121 54.91277266 6.74577431 56.15995685 -0.0625 56.0625 C-0.8138623 56.05347656 -1.56522461 56.04445313 -2.33935547 56.03515625 C-10.42155563 55.78176265 -14.88573888 53.70766902 -20.4375 47.8125 C-25.37572048 42.12357617 -27.15336501 36.1328364 -27 28.6875 C-26.99129883 27.98383301 -26.98259766 27.28016602 -26.97363281 26.55517578 C-26.82175409 21.18588936 -26.08465223 17.36861502 -23.625 12.625 C-23.109375 11.59375 -22.59375 10.5625 -22.0625 9.5 C-15.77431783 2.08316975 -9.48898986 0.07888382 0 0 Z " fill="#0C365E" transform="translate(130.625,326.375)"/>
<path d="M0 0 C6.90153448 3.6242695 11.43613554 8.80869502 14.09765625 16.1015625 C15.05713687 19.21510887 15.23226715 22.03577228 15.22265625 25.2890625 C15.22652344 26.60970703 15.22652344 26.60970703 15.23046875 27.95703125 C15.09765625 30.1015625 15.09765625 30.1015625 14.09765625 31.1015625 C11.3587154 31.19014896 8.64512355 31.21679729 5.90625 31.19921875 C5.08641129 31.1978038 4.26657257 31.19638885 3.42189026 31.19493103 C0.79294243 31.18931539 -1.83592148 31.17676029 -4.46484375 31.1640625 C-6.24283732 31.15904951 -8.02083221 31.15448626 -9.79882812 31.15039062 C-14.1666992 31.13934089 -18.53450723 31.12206581 -22.90234375 31.1015625 C-22.62354364 32.40588172 -22.3320675 33.70749644 -22.03515625 35.0078125 C-21.79369873 36.09545898 -21.79369873 36.09545898 -21.54736328 37.20507812 C-21.03550756 39.31945445 -21.03550756 39.31945445 -18.77734375 40.6015625 C-13.7583196 41.47443627 -9.66518231 41.92672098 -4.96484375 39.7265625 C-2.80531969 38.26234524 -2.80531969 38.26234524 -1.90234375 36.1015625 C2.71765625 36.1015625 7.33765625 36.1015625 12.09765625 36.1015625 C13.09765625 41.1015625 13.09765625 41.1015625 12.1640625 43.19921875 C7.62000903 49.1359951 3.10792067 51.76480769 -3.90234375 54.1015625 C-14.03371075 54.6875815 -22.37648744 54.78546671 -31.08984375 48.9765625 C-36.82893094 43.80197569 -39.49023548 36.87796493 -40.140625 29.33984375 C-40.38605023 19.66492278 -38.30507092 11.78573888 -31.6171875 4.5703125 C-22.94034546 -2.86133353 -10.49174046 -4.07483205 0 0 Z " fill="#27B1E3" transform="translate(443.90234375,327.8984375)"/>
<path d="M0 0 C4.06364842 3.19226814 5.54164843 5.60550165 6.89453125 10.67578125 C7.15400347 13.79129735 7.1280584 16.88725152 7.08984375 20.01171875 C7.08701385 20.89107086 7.08418396 21.77042297 7.08126831 22.67642212 C7.07012837 25.46801719 7.04503536 28.25928415 7.01953125 31.05078125 C7.00949345 32.95051618 7.000369 34.85025617 6.9921875 36.75 C6.97020931 41.39205232 6.93572235 46.03386127 6.89453125 50.67578125 C1.94453125 50.67578125 -3.00546875 50.67578125 -8.10546875 50.67578125 C-8.10546875 48.69578125 -8.10546875 46.71578125 -8.10546875 44.67578125 C-9.02779297 45.30806641 -9.02779297 45.30806641 -9.96875 45.953125 C-10.77699219 46.50097656 -11.58523438 47.04882812 -12.41796875 47.61328125 C-13.21847656 48.15855469 -14.01898437 48.70382812 -14.84375 49.265625 C-20.16107803 52.58091933 -26.03956529 52.35147682 -32.10546875 51.67578125 C-36.54292876 50.04166899 -39.29871742 47.75985335 -42.10546875 43.98828125 C-43.8854209 38.09218974 -44.18303508 32.91380363 -41.48046875 27.30078125 C-35.04758228 20.19074884 -27.28678585 18.55505087 -18.23046875 17.05078125 C-17.44671875 16.91671875 -16.66296875 16.78265625 -15.85546875 16.64453125 C-13.93951401 16.31741703 -12.02258593 15.99601241 -10.10546875 15.67578125 C-10.67891812 12.80853439 -10.96692025 11.81432975 -13.10546875 9.67578125 C-15.20964843 9.31938564 -15.20964843 9.31938564 -17.54296875 9.36328125 C-18.32542969 9.34652344 -19.10789062 9.32976562 -19.9140625 9.3125 C-22.60503371 9.75859683 -23.4303051 10.57030033 -25.10546875 12.67578125 C-25.43546875 13.33578125 -25.76546875 13.99578125 -26.10546875 14.67578125 C-31.05546875 14.67578125 -36.00546875 14.67578125 -41.10546875 14.67578125 C-41.10546875 7.69288673 -39.79378273 5.48720195 -35.10546875 0.67578125 C-25.27923386 -6.69917784 -10.29286236 -6.47361844 0 0 Z " fill="#26B2E5" transform="translate(568.10546875,330.32421875)"/>
<path d="M0 0 C6.12705213 3.79495616 9.08974621 9.06230492 12.2578125 15.3984375 C12.2578125 20.3484375 12.2578125 25.2984375 12.2578125 30.3984375 C0.3778125 30.3984375 -11.5021875 30.3984375 -23.7421875 30.3984375 C-22.38990673 36.8528271 -22.38990673 36.8528271 -20.1796875 39.3359375 C-16.37650383 40.99373551 -12.81221855 41.20524011 -8.7421875 40.3984375 C-7.3720565 39.12389703 -6.00328056 37.84614678 -4.69140625 36.51171875 C-0.11636691 33.89872033 6.15786144 35.08405695 11.2578125 35.3984375 C11.03887289 40.76245786 9.90237282 43.91079683 6.16015625 47.8203125 C-0.79029731 53.58619184 -9.16684589 54.25323898 -17.890625 53.83984375 C-24.34539971 53.10009776 -29.11457121 51.17447564 -33.609375 46.42578125 C-40.07991563 38.14410843 -41.74868571 29.83199639 -40.7421875 19.3984375 C-38.8655189 12.02044894 -35.2776009 5.22123749 -28.68359375 1.1171875 C-19.40484089 -3.64987819 -9.65714156 -4.3783182 0 0 Z " fill="#0E3963" transform="translate(279.7421875,328.6015625)"/>
<path d="M0 0 C3.3338 2.68537917 5.25759285 5.13901694 6.6875 9.25 C6.6875 10.57 6.6875 11.89 6.6875 13.25 C4.28975255 13.38572155 1.89974755 13.48436868 -0.5 13.5625 C-1.51030273 13.6253418 -1.51030273 13.6253418 -2.54101562 13.68945312 C-6.55756881 13.78741784 -8.031204 13.50751883 -11.0390625 10.75390625 C-11.78929687 9.92761719 -12.53953125 9.10132813 -13.3125 8.25 C-16.70579364 7.43071829 -20.15453893 7.67101947 -23.3125 9.25 C-23.3125 10.9 -23.3125 12.55 -23.3125 14.25 C-22.20132813 14.48074219 -21.09015625 14.71148437 -19.9453125 14.94921875 C-10.32928729 17.02423869 -1.57475222 19.11537326 6.3125 25.3125 C8.60623408 30.21275007 8.59237559 34.96103728 7.6875 40.25 C5.12019741 45.69461907 0.53978486 48.1490192 -4.80444336 50.4296875 C-8.99722556 51.80102481 -12.99787398 51.83037569 -17.375 51.75 C-18.22126953 51.76546875 -19.06753906 51.7809375 -19.93945312 51.796875 C-26.43047198 51.75683788 -32.01874607 50.37156248 -36.83959961 45.80273438 C-39.08145914 43.22019016 -41.22595478 40.50963567 -42.3125 37.25 C-42.02013193 35.90708906 -41.69079212 34.57128118 -41.3125 33.25 C-38.89395554 33.11463371 -36.48300217 33.01579721 -34.0625 32.9375 C-33.38058594 32.89560547 -32.69867187 32.85371094 -31.99609375 32.81054688 C-29.984375 32.76171875 -29.984375 32.76171875 -26.3125 33.25 C-24.14453125 35.74609375 -24.14453125 35.74609375 -22.3125 38.25 C-19.8374201 38.88708137 -19.8374201 38.88708137 -17.25 38.625 C-15.96416016 38.57472656 -15.96416016 38.57472656 -14.65234375 38.5234375 C-12.16149553 38.31298473 -12.16149553 38.31298473 -9.3125 37.25 C-9.3125 35.93 -9.3125 34.61 -9.3125 33.25 C-14.50425048 31.40208881 -19.53324791 29.9683458 -24.9375 28.875 C-30.91446693 27.53979452 -35.99649852 25.88604328 -39.45703125 20.453125 C-41.2351917 15.87375289 -41.02877934 11.0503282 -40.3125 6.25 C-37.73088186 1.15798078 -33.58965107 -1.72896342 -28.3125 -3.75 C-18.62724181 -6.05065103 -8.31889778 -5.77785264 0 0 Z " fill="#29B3E4" transform="translate(650.3125,330.75)"/>
<path d="M0 0 C2.75810567 2.38242733 3.79501568 4.57276897 4.99291992 7.99047852 C5.35306686 9.00485489 5.71321381 10.01923126 6.08427429 11.06434631 C6.46251846 12.15815109 6.84076263 13.25195587 7.23046875 14.37890625 C7.62575272 15.50191635 8.02103668 16.62492645 8.42829895 17.78196716 C9.26182955 20.15522903 10.09120954 22.52995213 10.91674805 24.90600586 C12.18473008 28.55452976 13.46524434 32.19846064 14.74804688 35.84179688 C15.55542386 38.1455754 16.36208895 40.44960357 17.16796875 42.75390625 C17.55228561 43.84973526 17.93660248 44.94556427 18.33256531 46.07460022 C18.68325577 47.08582443 19.03394623 48.09704865 19.39526367 49.13891602 C19.70598312 50.0314357 20.01670258 50.92395538 20.33683777 51.84352112 C21 54 21 54 21 56 C17.37 56.33 13.74 56.66 10 57 C9.72027344 56.18917969 9.44054687 55.37835938 9.15234375 54.54296875 C5.00540791 43.08889195 -0.65098745 33.85655131 -9 25 C-12.25524265 28.02272532 -14.61820737 31.25718301 -17 35 C-16.34 35 -15.68 35 -15 35 C-9.98374625 40.93863794 -3 49.95911766 -3 58 C-16.65199833 59.73589405 -30.24422775 61.40548823 -44 62 C-42.20481294 58.02066868 -39.72398073 54.5143449 -37.25 50.9375 C-36.76829346 50.23923096 -36.28658691 49.54096191 -35.7902832 48.8215332 C-30.30550092 40.92424856 -24.5808263 33.20626921 -18.84667969 25.48925781 C-15.65662642 21.18918073 -12.48587733 16.87488942 -9.3125 12.5625 C-8.16299984 11.00112579 -7.01327696 9.43991551 -5.86328125 7.87890625 C-5.14072144 6.89772827 -5.14072144 6.89772827 -4.40356445 5.89672852 C-2.94425178 3.92466378 -1.47401849 1.9610902 0 0 Z " fill="#F7F8F9" transform="translate(295,152)"/>
<path d="M0 0 C4.95 0 9.9 0 15 0 C16 1 16 1 16.12025452 3.81568909 C16.1169236 5.70431923 16.1169236 5.70431923 16.11352539 7.63110352 C16.11367142 8.32375305 16.11381744 9.01640259 16.1139679 9.7300415 C16.11326874 12.02969446 16.10547628 14.32926737 16.09765625 16.62890625 C16.09579208 18.21931412 16.09436817 19.80972257 16.09336853 21.40013123 C16.08954329 25.5939593 16.07971295 29.78775295 16.06866455 33.98156738 C16.05845057 38.25788914 16.05387094 42.53421644 16.04882812 46.81054688 C16.03809068 55.20704884 16.02049384 63.60351618 16 72 C10.72 72 5.44 72 0 72 C0 48.24 0 24.48 0 0 Z " fill="#27B3E4" transform="translate(585,309)"/>
<path d="M0 0 C0.680625 -0.00515625 1.36125 -0.0103125 2.0625 -0.015625 C4 0.25 4 0.25 7 2.25 C7.328125 5.03515625 7.328125 5.03515625 7.25 8.3125 C7.23453125 9.39660156 7.2190625 10.48070312 7.203125 11.59765625 C7 14.25 7 14.25 6 15.25 C2.73401213 15.45497832 -0.53015954 15.56956845 -3.80078125 15.67578125 C-7.53066409 16.3452474 -8.68571948 17.3200439 -11 20.25 C-12.49983085 23.2496617 -12.23902055 26.36946961 -12.31640625 29.6640625 C-12.33718735 30.39370209 -12.35796844 31.12334167 -12.37937927 31.87509155 C-12.44481917 34.20829763 -12.50373368 36.54161721 -12.5625 38.875 C-12.60569053 40.45574095 -12.64930499 42.03647039 -12.69335938 43.6171875 C-12.80129369 47.49467697 -12.90040755 51.3722513 -13 55.25 C-18.28 55.25 -23.56 55.25 -29 55.25 C-29.02464071 47.86271409 -29.0428316 40.47545188 -29.05493164 33.08813477 C-29.05997363 30.57283105 -29.06680703 28.05753028 -29.07543945 25.54223633 C-29.08751094 21.93570225 -29.09322949 18.32920677 -29.09765625 14.72265625 C-29.10281754 13.59038101 -29.10797882 12.45810577 -29.11329651 11.29151917 C-29.11337204 10.25051559 -29.11344757 9.20951202 -29.11352539 8.13696289 C-29.115746 7.21540909 -29.11796661 6.29385529 -29.12025452 5.34437561 C-29 3.25 -29 3.25 -28 2.25 C-25.64686445 2.17728259 -23.29166332 2.16629132 -20.9375 2.1875 C-19.64714844 2.19652344 -18.35679687 2.20554687 -17.02734375 2.21484375 C-16.02832031 2.22644531 -15.02929688 2.23804688 -14 2.25 C-13.34 3.9 -12.68 5.55 -12 7.25 C-11.236875 6.46625 -10.47375 5.6825 -9.6875 4.875 C-6.47092541 1.73322947 -4.49928419 -0.03408549 0 0 Z " fill="#0F3B65" transform="translate(328,325.75)"/>
<path d="M0 0 C5.25654344 2.57123076 9.66042187 6.63846678 12 12 C12.70348862 17.73782902 13.34227928 23.8110178 10 28.8125 C9.34 29.534375 8.68 30.25625 8 31 C3.74583729 29.58194576 2.08858873 26.87880764 0 23 C-0.6875 19.1875 -0.6875 19.1875 -1 16 C-2.94967279 13.60435072 -2.94967279 13.60435072 -6.5625 13.8125 C-9.82963695 13.60712194 -9.82963695 13.60712194 -11 15 C-11.07179964 16.51928038 -11.08392007 18.04167482 -11.0625 19.5625 C-11.05347656 20.38878906 -11.04445313 21.21507812 -11.03515625 22.06640625 C-11.02355469 22.70449219 -11.01195312 23.34257812 -11 24 C-10.13375 24.165 -9.2675 24.33 -8.375 24.5 C-3.78851116 26.53843949 -1.51360501 29.72152338 1 34 C1 34.66 1 35.32 1 36 C-3.88945107 37.62981702 -8.6485763 38.04636424 -13.37890625 35.94140625 C-18.79101824 32.65134146 -22.32911419 29.19986576 -24 23 C-24.87150533 17.73744861 -24.61745232 13.39891418 -22 8.6875 C-16.49269725 1.10342108 -9.28675765 -1.90601576 0 0 Z " fill="#F4F7F8" transform="translate(337,215)"/>
<path d="M0 0 C6.93 0 13.86 0 21 0 C17.3167757 6.44564253 13.40365799 12.05506172 9 18 C13.29 18 17.58 18 22 18 C22 20 22 20 20.6015625 21.41015625 C19.94929688 21.95542969 19.29703125 22.50070313 18.625 23.0625 C15.41657062 25.7907947 12.25019633 28.55144446 9.125 31.375 C8.28839844 32.12910156 7.45179688 32.88320312 6.58984375 33.66015625 C4.83052991 35.24964191 3.0727708 36.84084977 1.31640625 38.43359375 C0.44886719 39.21863281 -0.41867187 40.00367188 -1.3125 40.8125 C-2.09238281 41.52019531 -2.87226563 42.22789062 -3.67578125 42.95703125 C-6.05881449 45.05169744 -8.5077918 47.03711035 -11 49 C-9.23465356 44.15984684 -6.80463275 39.7164873 -4.375 35.1875 C-3.95476562 34.39923828 -3.53453125 33.61097656 -3.1015625 32.79882812 C-2.0700054 30.86465856 -1.03531446 28.93216094 0 27 C-3.96 27 -7.92 27 -12 27 C-8.30649376 17.82477702 -4.59433555 8.77100423 0 0 Z " fill="#2CB6E5" transform="translate(352,144)"/>
<path d="M0 0 C3.97982763 0.06901435 4.94362172 0.25334702 8.25 2.75 C12.14930076 8.15870751 11.66387392 14.0064521 11.1875 20.4375 C10.01187065 23.78804365 8.85143967 25.67141576 6.5625 28.3125 C2.80549314 30.09213483 -0.75484041 30.35607891 -4.8125 29.4375 C-7.60528995 27.28869456 -9.24001862 24.58246277 -10.8125 21.4375 C-11.85238656 9.09523982 -11.85238656 9.09523982 -8.9375 4.75 C-4.68229793 0.11933893 -4.68229793 0.11933893 0 0 Z " fill="#F6F8F9" transform="translate(130.8125,339.5625)"/>
<path d="M0 0 C0.68835938 0.00451172 1.37671875 0.00902344 2.0859375 0.01367188 C3.76566335 0.02533664 5.44534375 0.04326729 7.125 0.0625 C6.70347656 0.67738281 6.28195312 1.29226562 5.84765625 1.92578125 C5.29980469 2.73402344 4.75195312 3.54226562 4.1875 4.375 C3.36958984 5.57576172 3.36958984 5.57576172 2.53515625 6.80078125 C0.98662674 9.0883143 0.98662674 9.0883143 0.125 12.0625 C-11.50996393 12.18179412 -23.08984156 11.91051073 -34.71020508 11.31787109 C-37.36176264 11.18503202 -40.0137536 11.06705396 -42.66601562 10.94921875 C-44.35941956 10.86547971 -46.05278114 10.78087847 -47.74609375 10.6953125 C-48.93023109 10.64517502 -48.93023109 10.64517502 -50.13829041 10.59402466 C-55.64619879 10.29130121 -55.64619879 10.29130121 -57.875 8.0625 C-57.875 7.0725 -57.875 6.0825 -57.875 5.0625 C-56.57353027 4.94656494 -55.27206055 4.83062988 -53.93115234 4.71118164 C-49.08914709 4.27924482 -44.2474164 3.84429464 -39.40576172 3.40844727 C-37.31273615 3.22045387 -35.21963763 3.03327085 -33.12646484 2.84692383 C-30.11275871 2.57848207 -27.09932948 2.3070991 -24.0859375 2.03515625 C-23.15445892 1.95282242 -22.22298035 1.87048859 -21.26327515 1.78565979 C-1.41625926 -0.01784048 -1.41625926 -0.01784048 0 0 Z " fill="#ECF1F4" transform="translate(305.875,213.9375)"/>
<path d="M0 0 C2.92699758 1.64643614 5.49315247 3.56494977 6.6484375 6.8359375 C7.56740018 12.49266335 7.65886381 18.0580856 5.8125 23.5 C3.73485981 26.3657106 2.26432059 27.63354022 -1 29 C-4.8200098 29.55708476 -6.44146305 29.34273858 -9.75 27.3125 C-13.6358909 23.31866769 -14.29159129 19.46414179 -14.3125 14 C-14.32925781 12.989375 -14.34601563 11.97875 -14.36328125 10.9375 C-13.84861619 6.77590724 -12.12730022 4.16756095 -9.25 1.1875 C-5.91812934 -0.57098729 -3.71653027 -0.51262487 0 0 Z " fill="#F9FCFD" transform="translate(494,340)"/>
<path d="M0 0 C1.45229367 0.06145089 2.90460646 0.12245062 4.35693359 0.18310547 C8.58328712 0.36743392 12.80786966 0.57894554 17.0324707 0.79956055 C19.69137062 0.93770109 22.35053018 1.06966718 25.00976562 1.20117188 C26.71876906 1.28869119 28.42775415 1.3765694 30.13671875 1.46484375 C31.31508553 1.52272316 31.31508553 1.52272316 32.51725769 1.58177185 C41.59354215 2.06671937 41.59354215 2.06671937 46 3 C47.99609375 5.94140625 47.99609375 5.94140625 49.4375 9.5625 C49.93121094 10.76003906 50.42492187 11.95757812 50.93359375 13.19140625 C51.28550781 14.11824219 51.63742187 15.04507813 52 16 C44.8721732 15.31144012 37.916748 14.13650295 30.88671875 12.78515625 C29.75474564 12.5693541 28.62277252 12.35355194 27.45649719 12.13121033 C25.07864271 11.67660556 22.70113966 11.22015907 20.32397461 10.76196289 C16.68276517 10.06158927 13.03972633 9.37135323 9.39648438 8.68164062 C7.08061121 8.23759391 4.76485184 7.7929532 2.44921875 7.34765625 C1.36066086 7.14237808 0.27210297 6.93709991 -0.84944153 6.7256012 C-1.86116928 6.52877243 -2.87289703 6.33194366 -3.9152832 6.12915039 C-4.80302933 5.95895889 -5.69077545 5.7887674 -6.60542297 5.61341858 C-8.96156815 5.00984508 -10.87711535 4.17290605 -13 3 C-9.39852681 -1.26828269 -5.19390896 -0.25337986 0 0 Z " fill="#EFF2F4" transform="translate(259,235)"/>
<path d="M0 0 C4.021875 -0.0928125 4.021875 -0.0928125 8.125 -0.1875 C8.95789551 -0.21481201 9.79079102 -0.24212402 10.64892578 -0.27026367 C15.50273718 -0.3241177 18.81697656 0.27277043 23 3 C25.47361688 6.71042531 25.54607278 9.69862675 25 14 C23.3218279 17.85979583 21.85005984 19.43335794 18 21 C15.89355469 21.22705078 15.89355469 21.22705078 13.671875 21.1953125 C12.9509668 21.19031738 12.23005859 21.18532227 11.48730469 21.18017578 C10.58399414 21.16196777 9.68068359 21.14375977 8.75 21.125 C4.41875 21.063125 4.41875 21.063125 0 21 C0 14.07 0 7.14 0 0 Z " fill="#F6FBFC" transform="translate(359,325)"/>
<path d="M0 0 C2.68125 -0.0825 5.3625 -0.165 8.125 -0.25 C8.95789551 -0.28641602 9.79079102 -0.32283203 10.64892578 -0.36035156 C15.90410752 -0.43809465 18.85351331 0.49628176 23 4 C25.50304378 7.75456567 25.45280074 9.54745934 25 14 C21.94736842 19.68421053 21.94736842 19.68421053 18 21 C16.59175107 21.08021999 15.18002769 21.10765977 13.76953125 21.09765625 C13.04612549 21.09515869 12.32271973 21.09266113 11.57739258 21.09008789 C10.66497803 21.08098389 9.75256348 21.07187988 8.8125 21.0625 C5.904375 21.041875 2.99625 21.02125 0 21 C0 14.07 0 7.14 0 0 Z " fill="#F7F8F9" transform="translate(59,325)"/>
<path d="M0 0 C8.3984375 -0.1953125 8.3984375 -0.1953125 11 0 C13 2 13 2 13.125 4.5 C13.08375 5.325 13.0425 6.15 13 7 C13 7.66 13 8.32 13 9 C13.33 9.33 13.66 9.66 14 10 C14.3125 12.375 14.3125 12.375 14 15 C11.80597774 17.143352 10.49122201 17.94417932 7.421875 18.29296875 C6.54015625 18.25816406 5.6584375 18.22335937 4.75 18.1875 C3.1825 18.125625 1.615 18.06375 0 18 C0 12.06 0 6.12 0 0 Z " fill="#A4A7A9" transform="translate(290,397)"/>
<path d="M0 0 C2.4375 1.5625 2.4375 1.5625 4 4 C4.56288002 7.94016013 4.60396028 10.05782196 2.4375 13.4375 C-0.96719488 15.61999672 -3.03430012 15.63734462 -7 15 C-9.96135546 12.41830549 -10.86756104 10.81118865 -11.5 6.9375 C-11 4 -11 4 -9.4375 1.625 C-6.06489221 -0.62340519 -3.97487617 -0.56783945 0 0 Z " fill="#F4F7F8" transform="translate(239,221)"/>
<path d="M0 0 C10.47895309 -0.3698454 10.47895309 -0.3698454 12.87109375 1.328125 C14 3 14 3 13.75 5.9375 C13 9 13 9 12.3125 11.0625 C11.8716356 13.79585931 12.84076717 15.54515402 14 18 C13.01 18 12.02 18 11 18 C10.608125 17.030625 10.21625 16.06125 9.8125 15.0625 C8.32405113 11.77823609 8.32405113 11.77823609 5.3125 11.125 C4.549375 11.08375 3.78625 11.0425 3 11 C3 13.31 3 15.62 3 18 C2.01 18 1.02 18 0 18 C0 12.06 0 6.12 0 0 Z " fill="#A7AAAB" transform="translate(495,397)"/>
<path d="M0 0 C0.3125 3.1875 0.3125 3.1875 0 7 C-2.1727422 9.63016161 -3.94673788 11.47336894 -7 13 C-14.16587678 13.4549763 -14.16587678 13.4549763 -17.0625 11.875 C-18.46771358 9.06457284 -17.72549141 6.96791942 -17 4 C-15.58398286 3.51891725 -14.16715563 3.04021859 -12.75 2.5625 C-11.96109375 2.29566406 -11.1721875 2.02882813 -10.359375 1.75390625 C-6.64940884 0.56843693 -3.9565059 0 0 0 Z " fill="#EEF8FB" transform="translate(559,357)"/>
<path d="M0 0 C2.9375 1.625 2.9375 1.625 5 4 C5.33 5.98 5.66 7.96 6 10 C-0.93 10 -7.86 10 -15 10 C-14.03678403 5.18392014 -13.60008685 3.83023424 -9.8125 0.953125 C-6.34360264 -0.87103654 -3.87365867 -0.55337981 0 0 Z " fill="#EFF9FC" transform="translate(436,339)"/>
<path d="M0 0 C3.1001347 0.92166167 3.84373199 1.78234099 5.75 4.4375 C7 7 7 7 7 10 C0.07 10 -6.86 10 -14 10 C-13 4 -13 4 -10.9375 1.625 C-6.88574081 -0.6163987 -4.60723732 -0.43878451 0 0 Z " fill="#EFF3F5" transform="translate(270,339)"/>
<path d="M0 0 C1.588125 -0.061875 3.17625 -0.12375 4.8125 -0.1875 C6.15248047 -0.23970703 6.15248047 -0.23970703 7.51953125 -0.29296875 C10 0 10 0 11.84375 1.3125 C13 3 13 3 12.6875 6.1875 C12.460625 7.115625 12.23375 8.04375 12 9 C11.34 9 10.68 9 10 9 C10.99 11.97 11.98 14.94 13 18 C12.01 18 11.02 18 10 18 C9.608125 17.030625 9.21625 16.06125 8.8125 15.0625 C7.32405113 11.77823609 7.32405113 11.77823609 4.3125 11.125 C3.1678125 11.063125 3.1678125 11.063125 2 11 C2 13.31 2 15.62 2 18 C1.34 18 0.68 18 0 18 C0 12.06 0 6.12 0 0 Z " fill="#9D9FA0" transform="translate(218,397)"/>
<path d="M0 0 C1.32 0 2.64 0 4 0 C5.0063655 2.43504509 6.00526413 4.87270864 7 7.3125 C7.28617187 8.00279297 7.57234375 8.69308594 7.8671875 9.40429688 C9.08910744 12.41545674 10 14.71886984 10 18 C9.01 17.67 8.02 17.34 7 17 C6.67 16.01 6.34 15.02 6 14 C3.36 13.67 0.72 13.34 -2 13 C-2.33 14.65 -2.66 16.3 -3 18 C-3.99 18 -4.98 18 -6 18 C-5.31583566 13.82423832 -3.98634991 10.11919593 -2.4375 6.1875 C-1.75494141 4.44533203 -1.75494141 4.44533203 -1.05859375 2.66796875 C-0.70925781 1.78753906 -0.35992187 0.90710938 0 0 Z " fill="#969A9B" transform="translate(409,397)"/>
<path d="M0 0 C0.99 0 1.98 0 3 0 C4.17112946 2.62309099 5.33705964 5.24828142 6.5 7.875 C6.83386719 8.62136719 7.16773438 9.36773437 7.51171875 10.13671875 C7.98544922 11.20986328 7.98544922 11.20986328 8.46875 12.3046875 C8.90864258 13.2944458 8.90864258 13.2944458 9.35742188 14.30419922 C10 16 10 16 10 18 C9.01 18 8.02 18 7 18 C6.67 16.35 6.34 14.7 6 13 C3.03 13 0.06 13 -3 13 C-3.33 14.65 -3.66 16.3 -4 18 C-4.99 18 -5.98 18 -7 18 C-5.06375702 11.79522136 -2.74390859 5.89174281 0 0 Z " fill="#979B9D" transform="translate(523,397)"/>
<path d="M0 0 C0.99 0 1.98 0 3 0 C4.00904375 2.2463236 5.0073602 4.49643937 6 6.75 C6.28617188 7.38421875 6.57234375 8.0184375 6.8671875 8.671875 C8.36006702 12.08417104 9 14.20781917 9 18 C8.34 18 7.68 18 7 18 C6.835 17.360625 6.67 16.72125 6.5 16.0625 C5.218214 13.83880759 5.218214 13.83880759 3.0859375 13.51171875 C1.06424845 13.2724022 -0.96841939 13.13106972 -3 13 C-3.33 14.65 -3.66 16.3 -4 18 C-4.99 18 -5.98 18 -7 18 C-5.26375242 11.5811453 -3.14819255 5.86215164 0 0 Z " fill="#9FA3A5" transform="translate(580,397)"/>
<path d="M0 0 C3.96 0 7.92 0 12 0 C12 0.66 12 1.32 12 2 C9.03 2 6.06 2 3 2 C3 3.65 3 5.3 3 7 C5.97 7 8.94 7 12 7 C12 7.99 12 8.98 12 10 C9.03 10 6.06 10 3 10 C3 11.65 3 13.3 3 15 C5.97 15 8.94 15 12 15 C12.33 15.99 12.66 16.98 13 18 C8.71 18 4.42 18 0 18 C0 12.06 0 6.12 0 0 Z " fill="#A2A4A6" transform="translate(348,397)"/>
<path d="M0 0 C1.20462891 -0.02126953 1.20462891 -0.02126953 2.43359375 -0.04296875 C4.5625 0.1875 4.5625 0.1875 6.5625 2.1875 C6.5625 3.1775 6.5625 4.1675 6.5625 5.1875 C5.7271875 4.6925 5.7271875 4.6925 4.875 4.1875 C2.25965478 3.0565399 0.3818354 3.03087026 -2.4375 3.1875 C-2.4375 4.1775 -2.4375 5.1675 -2.4375 6.1875 C-1.48037109 6.55101562 -1.48037109 6.55101562 -0.50390625 6.921875 C0.73552734 7.42460937 0.73552734 7.42460937 2 7.9375 C2.82371094 8.26234375 3.64742188 8.5871875 4.49609375 8.921875 C6.5625 10.1875 6.5625 10.1875 7.44140625 12.1875 C7.5625 14.1875 7.5625 14.1875 6.0625 16.4375 C2.69308002 18.79609399 0.59234298 18.70038911 -3.4375 18.1875 C-5.375 16.875 -5.375 16.875 -6.4375 15.1875 C-6.4375 14.1975 -6.4375 13.2075 -6.4375 12.1875 C-5.633125 12.6825 -5.633125 12.6825 -4.8125 13.1875 C-1.8983939 14.41449204 0.43117708 14.32983286 3.5625 14.1875 C3.2325 13.1975 2.9025 12.2075 2.5625 11.1875 C0.24402126 10.4708793 -2.09069703 9.80507973 -4.4375 9.1875 C-5.0975 8.5275 -5.7575 7.8675 -6.4375 7.1875 C-5.70874183 0.04566993 -5.70874183 0.04566993 0 0 Z " fill="#9A9D9F" transform="translate(457.4375,396.8125)"/>
<path d="M0 0 C3.96 0 7.92 0 12 0 C12 0.66 12 1.32 12 2 C9.03 2 6.06 2 3 2 C3 3.98 3 5.96 3 8 C5.64 8 8.28 8 11 8 C11 8.66 11 9.32 11 10 C8.36 10 5.72 10 3 10 C3 11.65 3 13.3 3 15 C5.97 15 8.94 15 12 15 C12.33 15.99 12.66 16.98 13 18 C8.71 18 4.42 18 0 18 C0 12.06 0 6.12 0 0 Z " fill="#A3A5A7" transform="translate(150,397)"/>
<path d="M0 0 C3.62880809 1.12163159 5.1649125 2.0626845 7.4375 5.0625 C7.4375 5.7225 7.4375 6.3825 7.4375 7.0625 C6.4475 7.0625 5.4575 7.0625 4.4375 7.0625 C3.7775 6.0725 3.1175 5.0825 2.4375 4.0625 C-0.60445427 3.72909529 -0.60445427 3.72909529 -3.5625 4.0625 C-4.7870178 5.06719623 -4.7870178 5.06719623 -4.6953125 7.09375 C-4.69273437 7.9084375 -4.69015625 8.723125 -4.6875 9.5625 C-4.69007813 10.3771875 -4.69265625 11.191875 -4.6953125 12.03125 C-4.7870178 14.05780377 -4.7870178 14.05780377 -3.5625 15.0625 C-1.23432036 15.43010731 1.0993385 15.76491581 3.4375 16.0625 C3.7675 15.0725 4.0975 14.0825 4.4375 13.0625 C5.4275 13.0625 6.4175 13.0625 7.4375 13.0625 C6.28576645 15.53050047 5.38966435 17.11033565 3.4375 19.0625 C-0.22872297 19.40196509 -2.67572872 19.55255781 -5.9375 17.75 C-8.86522411 14.70967112 -8.97048918 11.17051624 -8.90234375 7.07421875 C-8.5625 5.0625 -8.5625 5.0625 -6.5 2 C-3.5625 0.0625 -3.5625 0.0625 0 0 Z " fill="#9A9C9C" transform="translate(179.5625,395.9375)"/>
<path d="M0 0 C1.9375 1.4375 1.9375 1.4375 3 3 C3 3.66 3 4.32 3 5 C2.01 5 1.02 5 0 5 C-0.33 4.34 -0.66 3.68 -1 3 C-2.98 3 -4.96 3 -7 3 C-7 3.99 -7 4.98 -7 6 C-6.36191406 6.20496094 -5.72382813 6.40992188 -5.06640625 6.62109375 C-4.24011719 6.89050781 -3.41382813 7.15992188 -2.5625 7.4375 C-1.73878906 7.70433594 -0.91507812 7.97117187 -0.06640625 8.24609375 C2 9 2 9 3 10 C3.28792759 12.73531209 3.34443368 14.41243666 1.9375 16.8125 C-1.13629218 18.69643714 -3.48385658 18.43180709 -7 18 C-9.4375 16 -9.4375 16 -11 14 C-10.01 13.67 -9.02 13.34 -8 13 C-7.34 13.66 -6.68 14.32 -6 15 C-3.41645782 15.16687448 -3.41645782 15.16687448 -1 15 C-1 13.68 -1 12.36 -1 11 C-3.97 10.01 -6.94 9.02 -10 8 C-10.35664336 2.65034965 -10.35664336 2.65034965 -8.9375 0.0625 C-5.78137095 -1.66828045 -3.38695279 -0.8467382 0 0 Z " fill="#A0A2A4" transform="translate(380,397)"/>
<path d="M0 0 C1.9375 1.375 1.9375 1.375 3 3 C3 3.99 3 4.98 3 6 C2.01 5.67 1.02 5.34 0 5 C-0.33 4.34 -0.66 3.68 -1 3 C-3.91634129 2.7497843 -3.91634129 2.7497843 -7 3 C-9.31282587 6.46923881 -9.42478586 7.92205575 -9 12 C-7.95625978 14.04451019 -7.95625978 14.04451019 -6 15 C-3.3727086 14.92466753 -3.3727086 14.92466753 -1 14 C-0.67 13.34 -0.34 12.68 0 12 C0.99 12 1.98 12 3 12 C1.25 16.875 1.25 16.875 -1 18 C-4.73671591 18.34599221 -7.11909553 18.53317902 -10.375 16.5625 C-12.72393731 12.85840655 -13.35037821 9.36804841 -13 5 C-9.35169123 -1.03858003 -6.71190237 -1.41303208 0 0 Z " fill="#A3A5A5" transform="translate(265,397)"/>
<path d="M0 0 C0.495 1.485 0.495 1.485 1 3 C-13.19 17.19 -27.38 31.38 -42 46 C-42.66 45.67 -43.32 45.34 -44 45 C-43.18845459 44.19369141 -42.37690918 43.38738281 -41.54077148 42.55664062 C-38.49844491 39.5325667 -35.45955409 36.50505938 -32.42163086 33.4765625 C-31.11232826 32.17225416 -29.80212531 30.86884892 -28.4909668 29.56640625 C-19.15603663 20.33224865 -19.15603663 20.33224865 -10.36303711 10.58789062 C-8.37744635 8.27474674 -6.23374423 6.13784047 -4.0625 4 C-3.29035156 3.236875 -2.51820313 2.47375 -1.72265625 1.6875 C-1.15417969 1.130625 -0.58570313 0.57375 0 0 Z " fill="#F6F6F6" transform="translate(695,99)"/>
<path d="M0 0 C3.96 0 7.92 0 12 0 C12 0.66 12 1.32 12 2 C8.7 2 5.4 2 2 2 C2 3.65 2 5.3 2 7 C4.97 7 7.94 7 11 7 C11 7.99 11 8.98 11 10 C8.03 10 5.06 10 2 10 C2 11.98 2 13.96 2 16 C5.3 16 8.6 16 12 16 C12 16.66 12 17.32 12 18 C8.04 18 4.08 18 0 18 C0 12.06 0 6.12 0 0 Z " fill="#9DA0A2" transform="translate(109,397)"/>
<path d="M0 0 C0.66 0 1.32 0 2 0 C2.33 4.62 2.66 9.24 3 14 C5.97 14.495 5.97 14.495 9 15 C10.94090826 13.05909174 10.39919435 9.52706098 10.5625 6.9375 C10.64628906 5.64714844 10.73007812 4.35679687 10.81640625 3.02734375 C10.87699219 2.02832031 10.93757813 1.02929688 11 0 C11.99 0 12.98 0 14 0 C14.10823773 2.24893954 14.18569645 4.49937575 14.25 6.75 C14.29640625 8.00296875 14.3428125 9.2559375 14.390625 10.546875 C14 14 14 14 12.20703125 16.42578125 C9.02954297 18.69220209 6.8044211 18.48419905 3 18 C1.296875 16.953125 1.296875 16.953125 0 15 C-0.2172101 12.35003674 -0.28351554 9.94923442 -0.1875 7.3125 C-0.17396484 6.61060547 -0.16042969 5.90871094 -0.14648438 5.18554688 C-0.11120182 3.45670171 -0.05739583 1.72825235 0 0 Z " fill="#A3A5A7" transform="translate(428,397)"/>
<path d="M0 0 C0.66 0 1.32 0 2 0 C2.33 2.31 2.66 4.62 3 7 C5.31 4.69 7.62 2.38 10 0 C10.99 0.33 11.98 0.66 13 1 C12.154375 1.721875 11.30875 2.44375 10.4375 3.1875 C7.77299982 5.68010351 7.77299982 5.68010351 7.875 8.375 C9.41718648 11.97343512 11.59873079 14.92531212 14 18 C10.68369046 17.44257776 9.35412222 16.6380442 7.375 13.9375 C6.59125 12.968125 5.8075 11.99875 5 11 C4.34 11 3.68 11 3 11 C2.67 13.31 2.34 15.62 2 18 C1.34 18 0.68 18 0 18 C0 12.06 0 6.12 0 0 Z " fill="#96999A" transform="translate(326,397)"/>
<path d="M0 0 C8.3984375 -0.1953125 8.3984375 -0.1953125 11 0 C11.66 0.66 12.32 1.32 13 2 C12.625 4.625 12.625 4.625 12 7 C11.443125 6.0409375 11.443125 6.0409375 10.875 5.0625 C8.41947207 2.36141928 6.55421195 2.31592995 3 2 C3 4.31 3 6.62 3 9 C4.65 9 6.3 9 8 9 C8 9.33 8 9.66 8 10 C6.35 10 4.7 10 3 10 C3 12.64 3 15.28 3 18 C2.01 18 1.02 18 0 18 C0 12.06 0 6.12 0 0 Z " fill="#A5A7A8" transform="translate(495,397)"/>
<path d="M0 0 C0.99 0 1.98 0 3 0 C3 4.95 3 9.9 3 15 C5.97 15 8.94 15 12 15 C12 15.99 12 16.98 12 18 C8.04 18 4.08 18 0 18 C0 12.06 0 6.12 0 0 Z " fill="#ABADAE" transform="translate(130,397)"/>
<path d="M0 0 C4.62 0 9.24 0 14 0 C14 0.66 14 1.32 14 2 C12.02 2 10.04 2 8 2 C8 7.28 8 12.56 8 18 C7.01 18 6.02 18 5 18 C5 12.72 5 7.44 5 2 C3.35 2 1.7 2 0 2 C0 1.34 0 0.68 0 0 Z " fill="#A2A5A6" transform="translate(195,397)"/>
<path d="M0 0 C1.65 0.33 3.3 0.66 5 1 C5 3.33333333 5 5.66666667 5 8 C5.33 8.33 5.66 8.66 6 9 C6.1875 11.4375 6.1875 11.4375 6 14 C4 16 4 16 1.3984375 16.1953125 C0.40070313 16.17210937 -0.59703125 16.14890625 -1.625 16.125 C-3.12933594 16.09792969 -3.12933594 16.09792969 -4.6640625 16.0703125 C-5.43492187 16.04710937 -6.20578125 16.02390625 -7 16 C-7 15.67 -7 15.34 -7 15 C-4.36 14.67 -1.72 14.34 1 14 C1.59070014 12.05396726 1.59070014 12.05396726 2 10 C0.50256881 8.50256881 -0.98824239 8.66797307 -3.0625 8.4375 C-4.361875 8.293125 -5.66125 8.14875 -7 8 C-7 7.67 -7 7.34 -7 7 C-4.36 7 -1.72 7 1 7 C1.15149298 3.37114676 1.15149298 3.37114676 0 0 Z " fill="#95989B" transform="translate(298,398)"/>
<path d="M0 0 C0.33 0.99 0.66 1.98 1 3 C-6.26 10.26 -13.52 17.52 -21 25 C-21.66 24.67 -22.32 24.34 -23 24 C-20.21408091 20.3886234 -17.24078717 17.20477843 -14 14 C-12.81573251 12.81708037 -11.63218268 11.63344199 -10.44921875 10.44921875 C-6.96614583 6.96614583 -3.48307292 3.48307292 0 0 Z " fill="#F6F6F6" transform="translate(695,86)"/>
<path d="M0 0 C1.60875 -0.04125 3.2175 -0.0825 4.875 -0.125 C5.77992188 -0.14820313 6.68484375 -0.17140625 7.6171875 -0.1953125 C10 0 10 0 12 2 C11.67 2.99 11.34 3.98 11 5 C10.34 4.34 9.68 3.68 9 3 C6.67724823 2.59952556 4.34260643 2.2602896 2 2 C2 4.31 2 6.62 2 9 C3.65 9 5.3 9 7 9 C7 9.33 7 9.66 7 10 C5.35 10 3.7 10 2 10 C2 12.64 2 15.28 2 18 C1.34 18 0.68 18 0 18 C0 12.06 0 6.12 0 0 Z " fill="#979899" transform="translate(218,397)"/>
<path d="M0 0 C1.16337891 0.00966797 2.32675781 0.01933594 3.52539062 0.02929688 C4.74033203 0.05443359 5.95527344 0.07957031 7.20703125 0.10546875 C8.43357422 0.11900391 9.66011719 0.13253906 10.92382812 0.14648438 C13.95616789 0.18188134 16.98763121 0.23126115 20.01953125 0.29296875 C20.01953125 0.62296875 20.01953125 0.95296875 20.01953125 1.29296875 C19.34599609 1.23947266 18.67246094 1.18597656 17.97851562 1.13085938 C2.99098159 -0.04821594 2.99098159 -0.04821594 -10.203125 5.921875 C-14.17433386 9.72818937 -17.71584206 13.86851113 -20.98046875 18.29296875 C-21.64046875 17.96296875 -22.30046875 17.63296875 -22.98046875 17.29296875 C-19.22219788 12.68908693 -15.35382904 8.70479953 -10.8125 4.87109375 C-8.9756218 3.3914016 -8.9756218 3.3914016 -7.73974609 1.71264648 C-5.17963923 -0.35327378 -3.25194532 -0.04758944 0 0 Z " fill="#F5F6F6" transform="translate(36.98046875,220.70703125)"/>
<path d="M0 0 C0.66 0 1.32 0 2 0 C2.66 1.65 3.32 3.3 4 5 C4.66 4.34 5.32 3.68 6 3 C6.50615298 4.26839526 7.00469099 5.53983102 7.5 6.8125 C7.7784375 7.52019531 8.056875 8.22789062 8.34375 8.95703125 C9 11 9 11 9 14 C8.01 13.67 7.02 13.34 6 13 C5.67 12.01 5.34 11.02 5 10 C1.48809191 8.77030122 1.48809191 8.77030122 -2 8 C-1.47731534 5.23723823 -0.89130413 2.6739124 0 0 Z " fill="#9DA1A3" transform="translate(410,401)"/>
<path d="M0 0 C4.29 0 8.58 0 13 0 C13 0.66 13 1.32 13 2 C11.02 2 9.04 2 7 2 C7 6.95 7 11.9 7 17 C6.34 17 5.68 17 5 17 C5 12.05 5 7.1 5 2 C3.35 2 1.7 2 0 2 C0 1.34 0 0.68 0 0 Z " fill="#919496" transform="translate(473,397)"/>
<path d="M0 0 C6.875 0.875 6.875 0.875 8 2 C8.28792759 4.73531209 8.34443368 6.41243666 6.9375 8.8125 C3.86370782 10.69643714 1.51614342 10.43180709 -2 10 C-4.4375 8 -4.4375 8 -6 6 C-5.01 5.67 -4.02 5.34 -3 5 C-2.34 5.66 -1.68 6.32 -1 7 C1.58354218 7.16687448 1.58354218 7.16687448 4 7 C3.72965366 4.56282742 3.72965366 4.56282742 3 2 C2.01 1.34 1.02 0.68 0 0 Z " fill="#9A9C9D" transform="translate(375,405)"/>
<path d="M0 0 C0.99 0 1.98 0 3 0 C3 5.94 3 11.88 3 18 C2.01 18 1.02 18 0 18 C0 12.06 0 6.12 0 0 Z " fill="#A5A7A8" transform="translate(313,397)"/>
<path d="M0 0 C0.33 0.66 0.66 1.32 1 2 C1.66 2 2.32 2 3 2 C3.99 4.97 4.98 7.94 6 11 C3.69 11 1.38 11 -1 11 C-2.0257259 6.58937864 -2.03684712 4.07369424 0 0 Z " fill="#9DA0A3" transform="translate(522,398)"/>
<path d="M0 0 C0.99 0 1.98 0 3 0 C3 5.94 3 11.88 3 18 C2.01 18 1.02 18 0 18 C0 12.06 0 6.12 0 0 Z " fill="#A6A9AB" transform="translate(562,397)"/>
<path d="M0 0 C0.99 0 1.98 0 3 0 C3 5.94 3 11.88 3 18 C2.01 18 1.02 18 0 18 C0 12.06 0 6.12 0 0 Z " fill="#A0A2A4" transform="translate(240,397)"/>
<path d="M0 0 C3.11939446 3.01256588 5.88884408 6.19949899 8.625 9.5625 C9.40101563 10.51253906 10.17703125 11.46257812 10.9765625 12.44140625 C13 15 13 15 15 18 C11.95667235 16.6415798 9.87690849 15.11536976 7.546875 12.7421875 C6.61875 11.80439453 6.61875 11.80439453 5.671875 10.84765625 C5.03765625 10.19667969 4.4034375 9.54570312 3.75 8.875 C3.1003125 8.21628906 2.450625 7.55757813 1.78125 6.87890625 C0.18288273 5.25703357 -1.41061897 3.6306719 -3 2 C-2.01 1.34 -1.02 0.68 0 0 Z " fill="#40B4E8" transform="translate(161,257)"/>
<path d="M0 0 C2.31 0 4.62 0 7 0 C7.38218767 1.65614657 7.71395102 3.32457024 8 5 C7 6 7 6 3.4375 6.0625 C2.303125 6.041875 1.16875 6.02125 0 6 C0 4.02 0 2.04 0 0 Z " fill="#F6F6F4" transform="translate(220,399)"/>
<path d="M0 0 C2.875 -0.125 2.875 -0.125 6 0 C6.66 0.66 7.32 1.32 8 2 C7.625 4.125 7.625 4.125 7 6 C4.69 6 2.38 6 0 6 C0 4.02 0 2.04 0 0 Z " fill="#F8F9F8" transform="translate(498,399)"/>
<path d="M0 0 C0.66 0 1.32 0 2 0 C2.33 4.62 2.66 9.24 3 14 C4.98 14.66 6.96 15.32 9 16 C9 16.33 9 16.66 9 17 C5.625 17.125 5.625 17.125 2 17 C0 15 0 15 -0.1953125 11.5234375 C-0.18201493 10.14049032 -0.15816232 8.75761346 -0.125 7.375 C-0.11597656 6.66859375 -0.10695313 5.9621875 -0.09765625 5.234375 C-0.07407603 3.48943902 -0.03820461 1.74467705 0 0 Z " fill="#929597" transform="translate(428,397)"/>
<path d="M0 0 C3 1 3 1 4.6875 4.3125 C6 8 6 8 6 12 C5.34 12 4.68 12 4 12 C3.814375 11.360625 3.62875 10.72125 3.4375 10.0625 C2.05753944 7.57873787 2.05753944 7.57873787 -1.625 7.25 C-2.73875 7.1675 -3.8525 7.085 -5 7 C-5 6.67 -5 6.34 -5 6 C-3.02 6 -1.04 6 1 6 C0.67 4.02 0.34 2.04 0 0 Z " fill="#8F9599" transform="translate(583,403)"/>
<path d="M0 0 C2.31 0 4.62 0 7 0 C7.5625 1.9375 7.5625 1.9375 8 4 C7 5 7 5 3.4375 5.0625 C2.303125 5.041875 1.16875 5.02125 0 5 C0 3.35 0 1.7 0 0 Z " fill="#F9F9F8" transform="translate(293,407)"/>
<path d="M0 0 C1.98 0 3.96 0 6 0 C6.5625 1.9375 6.5625 1.9375 7 4 C6 5 6 5 2.9375 5.0625 C1.4834375 5.0315625 1.4834375 5.0315625 0 5 C0 3.35 0 1.7 0 0 Z " fill="#F7F7F6" transform="translate(293,399)"/>
<path d="M0 0 C0.66 0.33 1.32 0.66 2 1 C0.55309452 2.21136273 -0.89519226 3.42112672 -2.3515625 4.62109375 C-3.78331343 5.81874322 -5.17673322 7.06192997 -6.5625 8.3125 C-9.33010345 10.22853316 -10.70757376 10.37627728 -14 10 C-10.96623556 7.69632373 -7.87444175 5.49138701 -4.75 3.3125 C-3.41195312 2.37857422 -3.41195312 2.37857422 -2.046875 1.42578125 C-1.37140625 0.95527344 -0.6959375 0.48476563 0 0 Z " fill="#30A6D5" transform="translate(518,287)"/>
<path d="M0 0 C2.5654594 2.5654594 2.54046087 4.47686668 3 8 C1.35 8 -0.3 8 -2 8 C-1.125 2.25 -1.125 2.25 0 0 Z " fill="#EFEFEF" transform="translate(524,400)"/>
<path d="M0 0 C3 3.625 3 3.625 3 7 C1.02 7 -0.96 7 -3 7 C-2.01 4.69 -1.02 2.38 0 0 Z " fill="#F3F2F3" transform="translate(581,401)"/>
<path d="M0 0 C0.33 0 0.66 0 1 0 C1.33 2.64 1.66 5.28 2 8 C3.65 8.33 5.3 8.66 7 9 C7 9.33 7 9.66 7 10 C5.35 10.33 3.7 10.66 2 11 C1.67 12.98 1.34 14.96 1 17 C0.67 17 0.34 17 0 17 C0 11.39 0 5.78 0 0 Z " fill="#8F9193" transform="translate(496,397)"/>
<path d="M0 0 C0.66 0 1.32 0 2 0 C2.66 2.31 3.32 4.62 4 7 C2.35 7 0.7 7 -1 7 C-0.67 4.69 -0.34 2.38 0 0 Z " fill="#F1F2F2" transform="translate(410,401)"/>
<path d="M0 0 C1.125 3.75 1.125 3.75 0 6 C-0.66 6 -1.32 6 -2 6 C-2.33 6.99 -2.66 7.98 -3 9 C-3 8.01 -3 7.02 -3 6 C-5.31 6 -7.62 6 -10 6 C-10 5.67 -10 5.34 -10 5 C-8.88625 4.896875 -7.7725 4.79375 -6.625 4.6875 C-5.42875 4.460625 -4.2325 4.23375 -3 4 C-2.34 3.01 -1.68 2.02 -1 1 C-0.67 0.67 -0.34 0.34 0 0 Z " fill="#A7A9AA" transform="translate(230,400)"/>
<path d="M0 0 C1.45792884 -0.05399736 2.91642712 -0.09279177 4.375 -0.125 C5.18710937 -0.14820313 5.99921875 -0.17140625 6.8359375 -0.1953125 C9 0 9 0 11 2 C11 2.99 11 3.98 11 5 C10.484375 4.71125 9.96875 4.4225 9.4375 4.125 C6.37643275 2.71219973 3.25055082 1.8751483 0 1 C0 0.67 0 0.34 0 0 Z " fill="#A4A6A7" transform="translate(453,397)"/>
<path d="M0 0 C0.99 0 1.98 0 3 0 C1.25 4.875 1.25 4.875 -1 6 C-3.3329866 6.04022391 -5.66706666 6.04320247 -8 6 C-8 5.67 -8 5.34 -8 5 C-6.02 5 -4.04 5 -2 5 C-1.34 3.35 -0.68 1.7 0 0 Z " fill="#A4A7A9" transform="translate(265,409)"/>
<path d="M0 0 C0.99 0 1.98 0 3 0 C1.95125002 2.62187494 1.35068687 3.79371361 -1.125 5.25 C-1.74375 5.4975 -2.3625 5.745 -3 6 C-3 5.34 -3 4.68 -3 4 C-4.32 3.67 -5.64 3.34 -7 3 C-5.02 3 -3.04 3 -1 3 C-0.67 2.01 -0.34 1.02 0 0 Z " fill="#A8ABAB" transform="translate(184,409)"/>
<path d="M0 0 C0.66 0 1.32 0 2 0 C1.67 1.65 1.34 3.3 1 5 C-2.63 5 -6.26 5 -10 5 C-10 4.67 -10 4.34 -10 4 C-6.97265625 3.75585938 -6.97265625 3.75585938 -3.9453125 3.51171875 C-1.60480784 3.12606964 -1.60480784 3.12606964 0 0 Z " fill="#8E9194" transform="translate(301,409)"/>
<path d="M0 0 C2.31 0.33 4.62 0.66 7 1 C7.33 2.65 7.66 4.3 8 6 C7.01 6 6.02 6 5 6 C4.731875 5.38125 4.46375 4.7625 4.1875 4.125 C3.04443152 1.7004767 3.04443152 1.7004767 0 0 Z " fill="#939698" transform="translate(375,405)"/>
<path d="M0 0 C0.66 0 1.32 0 2 0 C2.33 2.64 2.66 5.28 3 8 C2.34 8 1.68 8 1 8 C0.34 5.69 -0.32 3.38 -1 1 C-0.67 0.67 -0.34 0.34 0 0 Z " fill="#0F416D" transform="translate(11,410)"/>
<path d="M0 0 C1.70884005 1.62339805 3.37446717 3.29319053 5 5 C5 5.66 5 6.32 5 7 C4.01 7 3.02 7 2 7 C0.5393715 4.35261084 0 3.10551666 0 0 Z " fill="#93979A" transform="translate(504,408)"/>
<path d="M0 0 C2 3 2 3 1.625 5.6875 C1.41875 6.450625 1.2125 7.21375 1 8 C0.01 8 -0.98 8 -2 8 C-1.47731534 5.23723823 -0.89130413 2.6739124 0 0 Z " fill="#A3A6A8" transform="translate(405,407)"/>
<path d="M0 0 C0.99 0.33 1.98 0.66 3 1 C1.35 2.65 -0.3 4.3 -2 6 C-2.99 5.67 -3.98 5.34 -5 5 C-3.35 3.35 -1.7 1.7 0 0 Z " fill="#919597" transform="translate(336,397)"/>
<path d="M0 0 C5.5 -0.36666667 5.5 -0.36666667 7.875 1.375 C9 3 9 3 9 5 C8.01 5 7.02 5 6 5 C5.67 3.68 5.34 2.36 5 1 C3.35 1 1.7 1 0 1 C0 0.67 0 0.34 0 0 Z " fill="#989B9E" transform="translate(374,397)"/>
<path d="M0 0 C4.29 0 8.58 0 13 0 C11.515 1.485 11.515 1.485 10 3 C9.34 3 8.68 3 8 3 C8 2.34 8 1.68 8 1 C5.36 1 2.72 1 0 1 C0 0.67 0 0.34 0 0 Z " fill="#1FB0E4" transform="translate(361,163)"/>
<path d="M0 0 C3.73639216 1.24546405 4.18756513 2.63404953 6 6 C3.13275314 5.42655063 2.1385485 5.1385485 0 3 C0 2.01 0 1.02 0 0 Z " fill="#9EA1A3" transform="translate(334,409)"/>
<path d="M0 0 C1.9375 0.75 1.9375 0.75 4 2 C4.75 4.125 4.75 4.125 5 6 C1.60085025 4.86695008 0.94745549 3.87481525 -1 1 C-0.67 0.67 -0.34 0.34 0 0 Z " fill="#A3A4A5" transform="translate(263,397)"/>
<path d="M0 0 C0 0.99 0 1.98 0 3 C-2.64 3.33 -5.28 3.66 -8 4 C-8 3.34 -8 2.68 -8 2 C-4.77208445 -0.1519437 -3.71599191 -0.20086443 0 0 Z " fill="#ABACAC" transform="translate(181,396)"/>
<path d="M0 0 C0 3 0 3 -2 5.1875 C-2.66 5.785625 -3.32 6.38375 -4 7 C-4.66 6.67 -5.32 6.34 -6 6 C-2.25 1.125 -2.25 1.125 0 0 Z " fill="#31BAE7" transform="translate(535,330)"/>
<path d="M0 0 C2.31 0.66 4.62 1.32 7 2 C7 2.33 7 2.66 7 3 C4.03 3 1.06 3 -2 3 C-1.34 2.01 -0.68 1.02 0 0 Z " fill="#1F77AB" transform="translate(188,294)"/>
</svg>
