<svg width="33" height="8" viewBox="0 0 33 8" fill="none" xmlns="http://www.w3.org/2000/svg">
<path fill-rule="evenodd" clip-rule="evenodd" d="M32.0159 5.67487C31.5056 5.67487 31.0919 6.09745 31.0919 6.61877C31.0919 7.13999 31.5056 7.56267 32.0159 7.56267C32.5262 7.56267 32.94 7.14002 32.94 6.61877C32.94 6.09741 32.5262 5.67487 32.0159 5.67487ZM28.9758 4.94511C28.9758 4.23139 28.3786 3.65294 27.6419 3.65294C26.9052 3.65294 26.3079 4.23142 26.3079 4.94511C26.3079 5.65884 26.9051 6.23746 27.6419 6.23746C28.3787 6.23746 28.9758 5.65884 28.9758 4.94511ZM28.9808 2.4336H30.4529V7.45645H28.9808V7.13543C28.5649 7.42517 28.0628 7.5955 27.5214 7.5955C26.0885 7.5955 24.9268 6.40889 24.9268 4.94509C24.9268 3.48128 26.0885 2.29476 27.5214 2.29476C28.0628 2.29476 28.5649 2.46508 28.9808 2.75491V2.4336ZM17.1994 3.08787V2.43367H15.6921V7.45643H17.2028V5.11138C17.2028 4.32018 18.0422 3.89493 18.6247 3.89493C18.6307 3.89493 18.6363 3.89552 18.6422 3.89559V2.43407C18.0444 2.43407 17.4945 2.69546 17.1994 3.08787ZM13.4448 4.94513C13.4448 4.23141 12.8475 3.65296 12.1108 3.65296C11.3741 3.65296 10.7768 4.23144 10.7768 4.94513C10.7768 5.65886 11.3741 6.23748 12.1108 6.23748C12.8476 6.23748 13.4448 5.65886 13.4448 4.94513ZM13.4497 2.43362H14.9219V7.45646H13.4497V7.13545C13.0338 7.42519 12.5317 7.59552 11.9903 7.59552C10.5574 7.59552 9.39569 6.40891 9.39569 4.9451C9.39569 3.4813 10.5574 2.29478 11.9903 2.29478C12.5318 2.29478 13.0338 2.4651 13.4497 2.75493V2.43362ZM22.3108 2.29852C21.7228 2.29852 21.1662 2.48503 20.794 2.99958V2.43392H19.3282V7.4565H20.8121V4.81697C20.8121 4.05316 21.3135 3.67914 21.9172 3.67914C22.5642 3.67914 22.9362 4.07397 22.9362 4.80661V7.4565H24.4066V4.2624C24.4066 3.09352 23.4969 2.29852 22.3108 2.29852ZM7.25126 7.4565H8.79215V0.195304H7.25126V7.4565ZM0.482422 7.45852H2.11406V0.193987H0.482422V7.45852ZM6.18935 0.193987C6.18935 1.76669 5.58937 3.2297 4.52027 4.31716L6.77565 7.45878H4.76037L2.30926 4.04452L2.94186 3.56058C3.99093 2.75783 4.59265 1.5308 4.59265 0.19397L6.18935 0.193987Z" fill="#0A0B09"/>
</svg>
