<svg width="140" height="41" viewBox="0 0 140 41" fill="none" xmlns="http://www.w3.org/2000/svg">
<path fill-rule="evenodd" clip-rule="evenodd" d="M83.5663 12.1667C82.6826 12.1667 81.9663 12.883 81.9663 13.7667V31.5068C81.9663 32.3905 82.6826 33.1068 83.5663 33.1068H90.5119C91.3955 33.1068 92.1119 32.3905 92.1119 31.5068V13.7667C92.1119 12.883 91.3955 12.1667 90.5119 12.1667H83.5663ZM83.17 1.82478C81.9949 2.79345 81.4074 4.00427 81.4074 5.45727C81.4074 6.91026 81.9806 8.09259 83.127 9.00427C84.2734 9.91596 85.5917 10.3718 87.082 10.3718C88.5437 10.3718 89.8334 9.91596 90.9511 9.00427C92.0975 8.0641 92.6707 6.88177 92.6707 5.45727C92.6707 4.03276 92.0975 2.85043 90.9511 1.91026C89.8334 0.970085 88.5437 0.5 87.082 0.5C85.5631 0.5 84.259 0.941595 83.17 1.82478ZM95.809 20.1368C95.0434 20.1944 94.3904 19.5887 94.3904 18.8209V13.6281C94.3904 12.8446 95.0255 12.2094 95.809 12.2094C96.5925 12.2094 97.2277 11.5743 97.2277 10.7907V9.60257C97.2277 6.66809 98.0015 4.41738 99.5491 2.85043C101.097 1.28348 103.347 0.5 106.299 0.5C107.474 0.5 108.634 0.599715 109.781 0.799146C110.415 0.889157 110.855 1.46861 110.855 2.1088V8.73022C110.855 8.84112 110.744 8.91705 110.641 8.87607L110.297 8.74786C109.981 8.6339 109.666 8.59117 109.351 8.61966C107.861 8.7906 107.201 9.81624 107.373 11.6966C107.398 11.9865 107.64 12.2094 107.931 12.2094H109.212C110.096 12.2094 110.812 12.9258 110.812 13.8094V18.5583C110.812 19.4837 110.014 20.2069 109.093 20.1154C108.172 20.0238 107.373 20.7471 107.373 21.6725V31.5496C107.373 32.4332 106.657 33.1496 105.773 33.1496H98.8277C97.944 33.1496 97.2277 32.4332 97.2277 31.5496V21.4526C97.2277 20.6848 96.5747 20.0791 95.809 20.1368ZM129.439 12.3434C129.636 11.6569 130.263 11.1837 130.977 11.1837H137.898C139.052 11.1837 139.827 12.369 139.363 13.4262L127.912 39.5425C127.657 40.1242 127.082 40.5 126.447 40.5H119.326C118.139 40.5 117.365 39.2519 117.893 38.1883L121.469 30.9888C121.689 30.5457 121.692 30.0256 121.476 29.5802L113.687 13.4806C113.172 12.4181 113.946 11.1837 115.127 11.1837H122.431C123.139 11.1837 123.762 11.6483 123.965 12.3261L125.196 16.4528C125.654 17.9849 127.828 17.9726 128.268 16.4354L129.439 12.3434ZM71.0991 32.9359C70.2155 32.9359 69.4991 32.2195 69.4991 31.3359V2.52734C69.4991 1.64368 70.2154 0.927338 71.0991 0.927338H78.0877C78.9713 0.927338 79.6877 1.64368 79.6877 2.52734V31.3359C79.6877 32.2195 78.9714 32.9359 78.0877 32.9359H71.0991ZM63.811 19.1137C65.1694 19.3408 66.9197 18.5487 66.9197 17.1714V13.4502C66.9197 12.7605 66.4777 12.1484 65.8229 11.9314L65.63 11.8675C65.0568 11.6966 64.6555 11.5969 64.4263 11.5684C63.2512 11.312 62.1048 11.1837 60.9871 11.1837C58.1784 11.1837 55.771 11.9387 53.7648 13.4487C51.6726 15.0157 50.3543 17.1382 49.8097 19.8162C49.6378 20.6709 49.5518 21.5541 49.5518 22.4658C49.5518 25.6282 50.6122 28.1781 52.733 30.1154C54.8539 32.0242 57.5192 32.9786 60.7291 32.9786C61.8578 32.9786 63.5325 32.6863 65.7533 32.1017C66.445 31.9196 66.9197 31.2885 66.9197 30.5732V26.693C66.9197 25.3743 65.376 24.6408 64.0945 24.9523C63.7643 25.0325 63.445 25.0726 63.1366 25.0726C62.2195 25.0726 61.46 24.802 60.8581 24.2607C60.2563 23.6909 59.9553 22.9501 59.9553 22.0384C59.9553 21.1268 60.2276 20.4003 60.7721 19.859C61.3453 19.3176 62.0905 19.047 63.0076 19.047C63.2771 19.047 63.5449 19.0692 63.811 19.1137ZM40.7934 12.3434C40.9899 11.6569 41.6176 11.1837 42.3316 11.1837H49.2523C50.4067 11.1837 51.1812 12.369 50.7176 13.4262L39.2668 39.5425C39.0117 40.1242 38.4366 40.5 37.8014 40.5H30.6806C29.4931 40.5 28.7194 39.2519 29.2476 38.1883L32.8234 30.9888C33.0434 30.5457 33.0461 30.0256 32.8306 29.5802L25.0408 13.4806C24.5267 12.4181 25.3007 11.1837 26.4811 11.1837H33.7857C34.4931 11.1837 35.1165 11.6483 35.3188 12.3261L36.5507 16.4528C37.0081 17.9849 39.1821 17.9726 39.6221 16.4354L40.7934 12.3434ZM21.565 12.8504C22.1637 13.2624 23.0697 12.817 23.0697 12.0903V4.42825C23.0697 3.74089 22.6322 3.12416 21.9693 2.9423C20.1883 2.4537 18.3482 2.20939 16.4492 2.20939C13.1533 2.20939 10.23 3.02136 7.6793 4.64529C5.12857 6.26922 3.19403 8.57692 1.87568 11.5684C0.958561 13.6766 0.500003 15.7991 0.500003 17.9359C0.500003 18.99 0.614643 20.0442 0.843922 21.0983C1.6464 24.8305 3.42331 27.7792 6.17466 29.9444C8.92601 32.0812 12.2219 33.1496 16.0623 33.1496C17.7246 33.1496 19.4012 32.9501 21.0921 32.5513L21.8397 32.3736C22.5607 32.2022 23.0697 31.5581 23.0697 30.8169V22.2566C23.0697 21.9322 22.7004 21.739 22.4248 21.9103C21.0491 22.765 19.6018 23.2493 18.0828 23.3632C16.3059 23.4772 14.787 22.9929 13.5259 21.9103C12.2649 20.7991 11.6344 19.3604 11.6344 17.594C11.6344 15.9131 12.2076 14.5171 13.354 13.406C14.529 12.2949 15.9763 11.7393 17.6959 11.7393C19.1003 11.7393 20.39 12.1097 21.565 12.8504Z" fill="#1D1D1D"/>
</svg>
