
<!-- Generator: visioncortex VTracer 0.6.4 -->
<svg version="1.1" xmlns="http://www.w3.org/2000/svg" viewBox="0 0 621 108" preserveAspectRatio="xMidYMid meet">
<path d="M0 0 C204.93 0 409.86 0 621 0 C621 35.64 621 71.28 621 108 C416.07 108 211.14 108 0 108 C0 72.36 0 36.72 0 0 Z " fill="#FBFDFC" transform="translate(0,0)"/>
<path d="M0 0 C0.703 0.004 1.405 0.008 2.129 0.012 C2.831 0.008 3.534 0.004 4.258 0 C9.502 0.01 9.502 0.01 10.629 1.137 C10.728 3.309 10.757 5.485 10.758 7.66 C10.76 8.341 10.762 9.023 10.764 9.725 C10.768 11.987 10.765 14.249 10.762 16.512 C10.762 18.077 10.763 19.643 10.765 21.208 C10.766 24.494 10.764 27.779 10.759 31.064 C10.754 35.285 10.757 39.505 10.763 43.726 C10.766 46.96 10.765 50.194 10.763 53.428 C10.762 54.985 10.763 56.541 10.765 58.098 C10.768 60.27 10.764 62.441 10.758 64.613 C10.758 65.852 10.757 67.09 10.756 68.366 C10.629 71.137 10.629 71.137 9.629 72.137 C7.098 72.21 4.596 72.229 2.066 72.199 C1 72.192 1 72.192 -0.088 72.186 C-1.849 72.174 -3.61 72.156 -5.371 72.137 C-5.701 70.157 -6.031 68.177 -6.371 66.137 C-7.093 66.92 -7.815 67.704 -8.559 68.512 C-13.548 73.169 -18.053 73.538 -24.656 73.379 C-30.199 72.884 -33.88 70.955 -37.621 66.949 C-44.459 58.342 -45.205 47.725 -44.371 37.137 C-42.706 30.588 -40.006 24.503 -34.211 20.73 C-28.604 17.611 -23.778 16.005 -17.371 17.137 C-13.06 18.764 -10.537 20.869 -7.371 24.137 C-7.334 23.099 -7.334 23.099 -7.295 22.041 C-7.18 18.927 -7.057 15.813 -6.934 12.699 C-6.894 11.611 -6.855 10.522 -6.814 9.4 C-6.752 7.849 -6.752 7.849 -6.688 6.266 C-6.651 5.307 -6.614 4.349 -6.576 3.362 C-6.179 -0.942 -3.788 0.007 0 0 Z " fill="#28B3E4" transform="translate(467.37109375,-0.13671875)"/>
<path d="M0 0 C5.798 -0.124 11.596 -0.215 17.395 -0.275 C19.364 -0.3 21.333 -0.334 23.301 -0.377 C45.821 -0.862 45.821 -0.862 54.438 7.312 C59.141 15.403 60.617 23.339 58.379 32.559 C55.789 39.383 51.33 42.81 44.961 46.031 C36.224 49.365 26.135 48.183 17 48 C17 54.93 17 61.86 17 69 C14.381 69.021 11.761 69.041 9.062 69.062 C8.236 69.072 7.41 69.081 6.559 69.09 C4.706 69.097 2.853 69.05 1 69 C0 68 0 68 -0.12 65.298 C-0.118 64.092 -0.116 62.887 -0.114 61.644 C-0.114 60.981 -0.114 60.318 -0.114 59.634 C-0.113 57.432 -0.105 55.23 -0.098 53.027 C-0.096 51.504 -0.094 49.981 -0.093 48.458 C-0.09 44.442 -0.08 40.425 -0.069 36.409 C-0.058 32.314 -0.054 28.218 -0.049 24.123 C-0.038 16.082 -0.021 8.041 0 0 Z " fill="#22AFE3" transform="translate(302,3)"/>
<path d="M0 0 C1.865 -0.016 3.73 -0.044 5.595 -0.082 C27.061 -0.522 27.061 -0.522 35.293 7.123 C39.824 11.864 41.434 16.598 41.759 23.1 C41.592 30.02 39.392 36.452 34.822 41.725 C24.749 50.415 11.795 48.666 -0.616 48.35 C-0.616 55.28 -0.616 62.21 -0.616 69.35 C-3.235 69.371 -5.855 69.391 -8.553 69.413 C-9.38 69.422 -10.206 69.431 -11.057 69.44 C-12.91 69.447 -14.763 69.4 -16.616 69.35 C-18.453 67.513 -17.744 64.564 -17.745 62.102 C-17.747 61.45 -17.749 60.798 -17.751 60.126 C-17.755 57.961 -17.752 55.796 -17.749 53.631 C-17.749 52.133 -17.75 50.635 -17.752 49.136 C-17.753 45.992 -17.751 42.848 -17.746 39.704 C-17.741 35.665 -17.744 31.626 -17.75 27.588 C-17.754 24.492 -17.752 21.397 -17.75 18.302 C-17.749 16.813 -17.75 15.323 -17.752 13.833 C-17.755 11.755 -17.751 9.677 -17.745 7.598 C-17.745 6.413 -17.744 5.228 -17.743 4.007 C-17.436 -2.421 -5.138 0.033 0 0 Z " fill="#0C365E" transform="translate(19.615966796875,2.64990234375)"/>
<path d="M0 0 C4.95 0 9.9 0 15 0 C16.607 4.017 17.628 7.426 18.508 11.613 C18.772 12.86 19.036 14.108 19.309 15.393 C19.581 16.699 19.853 18.006 20.125 19.312 C20.405 20.639 20.684 21.965 20.965 23.291 C21.647 26.527 22.325 29.763 23 33 C23.202 32.107 23.403 31.214 23.611 30.294 C24.363 26.977 25.12 23.662 25.881 20.347 C26.209 18.913 26.535 17.479 26.858 16.044 C27.324 13.98 27.798 11.917 28.273 9.855 C28.698 7.994 28.698 7.994 29.13 6.094 C30 3 30 3 32 0 C35.258 -0.293 35.258 -0.293 39.125 -0.188 C41.047 -0.147 41.047 -0.147 43.008 -0.105 C43.995 -0.071 44.983 -0.036 46 0 C48.784 10.306 51.44 20.637 54 31 C56.784 20.694 59.432 10.363 62 0 C66.95 0 71.9 0 77 0 C76.525 9.663 73.79 18.471 71.062 27.688 C70.601 29.269 70.141 30.85 69.682 32.432 C68.648 35.986 67.606 39.538 66.556 43.088 C66.176 44.395 65.806 45.705 65.445 47.017 C64.099 51.901 64.099 51.901 63 53 C60.303 53.073 57.633 53.092 54.938 53.062 C53.8 53.056 53.8 53.056 52.639 53.049 C50.759 53.037 48.88 53.019 47 53 C44.495 46.783 42.842 40.596 41.375 34.062 C40.949 32.178 40.519 30.293 40.086 28.41 C39.808 27.175 39.808 27.175 39.525 25.914 C39.172 24.007 39.172 24.007 38 23 C37.859 23.539 37.718 24.078 37.573 24.633 C36.924 27.11 36.275 29.586 35.625 32.062 C35.292 33.334 35.292 33.334 34.953 34.631 C33.967 38.387 32.973 42.139 31.898 45.871 C31.22 48.235 30.596 50.614 30 53 C24.72 53 19.44 53 14 53 C11.94 48.194 10.365 44.135 9.062 39.176 C8.813 38.235 8.813 38.235 8.559 37.274 C8.034 35.288 7.517 33.3 7 31.312 C6.654 30.001 6.308 28.689 5.961 27.377 C4.961 23.588 3.98 19.794 3 16 C2.697 14.848 2.394 13.696 2.082 12.509 C1.807 11.448 1.533 10.387 1.25 9.293 C1.008 8.364 0.765 7.435 0.516 6.477 C0 4 0 4 0 0 Z " fill="#0E3961" transform="translate(120,19)"/>
<path d="M0 0 C1.238 -0.044 1.238 -0.044 2.502 -0.088 C9.89 -0.164 14.982 1.868 20.562 6.688 C27.941 15.296 28.334 22.273 27.812 33.312 C26.924 40.267 24.05 45.075 19.125 50 C11.152 56.118 1.504 56.276 -8.188 55.312 C-15.397 53.272 -20.175 48.366 -24 42.062 C-26.3 37.237 -26.657 32.882 -26.688 27.625 C-26.694 26.912 -26.7 26.2 -26.706 25.466 C-26.52 17.655 -23.351 11.141 -18.188 5.312 C-12.016 0.622 -7.457 0.085 0 0 Z " fill="#0B365F" transform="translate(90.1875,17.6875)"/>
<path d="M0 0 C6.154 4.59 8.508 11.413 10.031 18.75 C10.201 21.445 10.12 24.042 10.031 26.75 C9.031 27.75 9.031 27.75 5.521 27.864 C3.961 27.863 2.4 27.858 0.84 27.848 C0.02 27.846 -0.8 27.845 -1.645 27.843 C-4.273 27.838 -6.902 27.825 -9.531 27.812 C-11.309 27.807 -13.087 27.803 -14.865 27.799 C-19.233 27.788 -23.601 27.771 -27.969 27.75 C-27.688 29.054 -27.396 30.356 -27.098 31.656 C-26.855 32.744 -26.855 32.744 -26.608 33.854 C-26.103 35.957 -26.103 35.957 -23.906 37.25 C-19.862 37.938 -16.037 38.527 -11.969 37.75 C-11.247 36.925 -10.525 36.1 -9.781 35.25 C-5.522 31.464 -1.361 32.376 4.145 32.574 C5.573 32.661 5.573 32.661 7.031 32.75 C8.234 37.367 8.234 37.367 6.406 40.812 C2.039 46.214 -3.184 50.012 -10.156 51.087 C-19.045 51.731 -27.659 52.038 -35.09 46.52 C-37.953 43.823 -40.139 41.238 -41.969 37.75 C-42.286 37.156 -42.603 36.561 -42.93 35.949 C-46.161 28.79 -46.009 20.464 -43.844 13 C-41.116 5.943 -36.697 0.32 -29.969 -3.25 C-19.391 -7.481 -9.365 -5.946 0 0 Z " fill="#26B1E3" transform="translate(408.96875,22.25)"/>
<path d="M0 0 C3.638 3.389 6.795 6.733 7.12 11.917 C7.118 12.639 7.116 13.361 7.114 14.104 C7.113 14.925 7.113 15.745 7.113 16.591 C7.108 17.472 7.103 18.354 7.098 19.262 C7.096 20.168 7.095 21.073 7.093 22.007 C7.088 24.9 7.075 27.794 7.062 30.688 C7.057 32.649 7.053 34.611 7.049 36.572 C7.038 41.382 7.021 46.191 7 51 C4.731 51.135 2.459 51.232 0.188 51.312 C-1.709 51.4 -1.709 51.4 -3.645 51.488 C-7 51 -7 51 -8.949 48.48 C-9.296 47.662 -9.643 46.843 -10 46 C-10.928 46.804 -11.856 47.609 -12.812 48.438 C-17.269 52.3 -21.439 52.283 -27.141 52.215 C-32.575 51.807 -36.586 50.486 -40.438 46.438 C-43.525 41.622 -43.477 37.643 -43 32 C-41.332 27.261 -39.272 24.636 -35 22 C-28.458 19.371 -21.641 18.364 -14.688 17.43 C-12.038 17.144 -12.038 17.144 -10 16 C-10.573 13.133 -10.861 12.139 -13 10 C-15.104 9.644 -15.104 9.644 -17.438 9.688 C-18.22 9.671 -19.002 9.654 -19.809 9.637 C-22.5 10.083 -23.325 10.895 -25 13 C-25.33 13.66 -25.66 14.32 -26 15 C-30.95 15 -35.9 15 -41 15 C-41 8.017 -39.688 5.811 -35 1 C-25.595 -6.058 -10.1 -5.611 0 0 Z " fill="#25B2E4" transform="translate(528,21)"/>
<path d="M0 0 C4.68 3.645 7.096 7.052 9.023 12.68 C9.023 17.63 9.023 22.58 9.023 27.68 C-2.857 27.68 -14.737 27.68 -26.977 27.68 C-25.742 34.323 -25.742 34.323 -22.852 36.617 C-19.158 37.982 -15.825 38.544 -11.977 37.68 C-10.628 36.395 -9.28 35.108 -7.961 33.793 C-3.343 31.202 2.893 32.363 8.023 32.68 C8.91 35.098 9.232 36.214 8.16 38.609 C3.757 44.52 -1.353 49.838 -8.963 50.977 C-18.686 51.767 -26.851 50.996 -35.164 45.617 C-40.357 40.964 -43.64 33.282 -44.145 26.383 C-44.224 16.45 -42.436 9.461 -35.977 1.68 C-25.888 -8.055 -11.146 -7.446 0 0 Z " fill="#0F3A62" transform="translate(242.9765625,22.3203125)"/>
<path d="M0 0 C3.619 2.743 5.612 5.694 7.223 9.898 C7.223 11.218 7.223 12.538 7.223 13.898 C4.825 14.034 2.435 14.133 0.035 14.211 C-0.975 14.274 -0.975 14.274 -2.006 14.338 C-6.022 14.436 -7.496 14.156 -10.504 11.402 C-11.254 10.576 -12.004 9.75 -12.777 8.898 C-16.171 8.079 -19.619 8.319 -22.777 9.898 C-22.777 11.548 -22.777 13.198 -22.777 14.898 C-17.399 16.432 -12.124 17.876 -6.59 18.711 C-1.316 19.703 2.387 22.204 6.223 25.898 C9.352 30.593 9.039 35.413 8.223 40.898 C5.823 45.498 1.909 48.735 -2.777 50.898 C-7.499 52.155 -12.236 52.154 -17.09 52.211 C-17.906 52.24 -18.723 52.269 -19.564 52.299 C-26.041 52.366 -31.495 51.009 -36.305 46.45 C-39.937 42.266 -41.777 39.426 -41.777 33.898 C-39.192 33.763 -36.614 33.664 -34.027 33.586 C-33.298 33.544 -32.568 33.502 -31.816 33.459 C-29.668 33.41 -29.668 33.41 -25.777 33.898 C-23.613 36.395 -23.613 36.395 -21.777 38.898 C-19.038 39.537 -19.038 39.537 -16.152 39.273 C-15.191 39.24 -14.229 39.206 -13.238 39.172 C-10.776 39.042 -10.776 39.042 -8.777 37.898 C-8.777 36.578 -8.777 35.258 -8.777 33.898 C-13.793 32.143 -18.722 30.648 -23.902 29.461 C-29.847 27.999 -34.424 26.404 -38.715 21.836 C-40.696 16.358 -40.779 10.376 -38.59 4.961 C-28.972 -5.984 -12.34 -7.648 0 0 Z " fill="#29B3E4" transform="translate(609.77734375,21.1015625)"/>
<path d="M0 0 C4.95 0 9.9 0 15 0 C16.87 1.87 16.128 5.031 16.129 7.523 C16.131 8.205 16.133 8.886 16.135 9.588 C16.139 11.85 16.136 14.113 16.133 16.375 C16.133 17.941 16.134 19.506 16.136 21.072 C16.137 24.357 16.135 27.642 16.13 30.928 C16.125 35.148 16.128 39.369 16.134 43.589 C16.138 46.823 16.136 50.057 16.134 53.291 C16.133 54.848 16.134 56.405 16.136 57.961 C16.139 60.133 16.135 62.305 16.129 64.477 C16.129 65.715 16.128 66.953 16.127 68.229 C16 71 16 71 15 72 C10.05 72 5.1 72 0 72 C0 48.24 0 24.48 0 0 Z " fill="#27B3E4" transform="translate(545,0)"/>
<path d="M0 0 C0.027 2.146 0.046 4.292 0.062 6.438 C0.074 7.632 0.086 8.827 0.098 10.059 C0 13 0 13 -1 14 C-4.266 14.205 -7.53 14.32 -10.801 14.426 C-14.531 15.095 -15.686 16.07 -18 19 C-19.5 22 -19.239 25.119 -19.316 28.414 C-19.337 29.144 -19.358 29.873 -19.379 30.625 C-19.445 32.958 -19.504 35.292 -19.562 37.625 C-19.606 39.206 -19.649 40.786 -19.693 42.367 C-19.801 46.245 -19.9 50.122 -20 54 C-25.28 54 -30.56 54 -36 54 C-36.025 46.613 -36.043 39.225 -36.055 31.838 C-36.06 29.323 -36.067 26.808 -36.075 24.292 C-36.088 20.686 -36.093 17.079 -36.098 13.473 C-36.103 12.34 -36.108 11.208 -36.113 10.042 C-36.113 9.001 -36.113 7.96 -36.114 6.887 C-36.116 5.965 -36.118 5.044 -36.12 4.094 C-36 2 -36 2 -35 1 C-32.647 0.927 -30.292 0.916 -27.938 0.938 C-26.647 0.947 -25.357 0.956 -24.027 0.965 C-23.028 0.976 -22.029 0.988 -21 1 C-20.34 2.65 -19.68 4.3 -19 6 C-18.278 5.216 -17.556 4.433 -16.812 3.625 C-11.263 -1.555 -7.127 -1.149 0 0 Z " fill="#103B63" transform="translate(295,18)"/>
<path d="M0 0 C3.401 0.077 4.607 0.327 7.625 2.125 C12.214 7.131 12.108 11.62 12.012 18.23 C11.57 22.514 10.62 24.275 7.688 27.375 C4.118 29.755 2.1 29.904 -2.086 29.836 C-4.736 29.287 -5.597 28.557 -7.312 26.5 C-11.098 20.585 -10.946 15.323 -10.312 8.375 C-8.406 3.469 -5.344 0.09 0 0 Z " fill="#F7F9F8" transform="translate(90.3125,30.625)"/>
<path d="M0 0 C3.226 2.079 4.867 3.8 7 7 C8.37 19.824 8.37 19.824 5.25 24.75 C2.126 27.874 0.437 28.817 -3.938 29.375 C-7.785 28.904 -9.283 27.717 -12 25 C-15.253 19.927 -14.596 13.782 -14 8 C-11.509 1.361 -6.821 -0.706 0 0 Z " fill="#F9FDFC" transform="translate(454,31)"/>
<path d="M0 0 C4.022 -0.093 4.022 -0.093 8.125 -0.188 C8.958 -0.215 9.791 -0.242 10.649 -0.27 C15.503 -0.324 18.817 0.273 23 3 C25.474 6.71 25.546 9.699 25 14 C23.322 17.86 21.85 19.433 18 21 C15.894 21.227 15.894 21.227 13.672 21.195 C12.951 21.19 12.23 21.185 11.487 21.18 C10.584 21.162 9.681 21.144 8.75 21.125 C4.419 21.063 4.419 21.063 0 21 C0 14.07 0 7.14 0 0 Z " fill="#F7FCFC" transform="translate(319,16)"/>
<path d="M0 0 C18.348 -0.804 18.348 -0.804 22.625 2.438 C24.843 4.995 25.492 7.208 25.75 10.562 C25.47 14.172 24.991 15.012 22.625 18 C19.359 20.489 17.877 21.126 13.867 21.098 C13.141 21.095 12.415 21.093 11.667 21.09 C10.746 21.081 9.824 21.072 8.875 21.062 C5.946 21.042 3.017 21.021 0 21 C0 14.07 0 7.14 0 0 Z " fill="#F7F9F8" transform="translate(19,16)"/>
<path d="M0 0 C8.398 -0.195 8.398 -0.195 11 0 C13 2 13 2 13.062 5.25 C13.042 6.487 13.021 7.725 13 9 C13.34 10.609 13.34 10.609 13.688 12.25 C14 15 14 15 12.875 16.66 C9.187 19.295 4.34 18.153 0 18 C0 12.06 0 6.12 0 0 Z " fill="#9FA5A9" transform="translate(250,88)"/>
<path d="M0 0 C10.497 -0.37 10.497 -0.37 12.836 1.352 C14.47 3.665 14.355 5.234 14 8 C13.34 8.66 12.68 9.32 12 10 C12.276 11.941 12.276 11.941 13 14 C13.333 15.333 13.667 16.667 14 18 C13.01 18 12.02 18 11 18 C10.608 17.031 10.216 16.061 9.812 15.062 C8.324 11.778 8.324 11.778 5.312 11.125 C4.549 11.084 3.786 11.043 3 11 C3 13.31 3 15.62 3 18 C2.01 18 1.02 18 0 18 C0 12.06 0 6.12 0 0 Z " fill="#A3A9AD" transform="translate(455,88)"/>
<path d="M0 0 C0.312 3.188 0.312 3.188 0 7 C-2.438 9.875 -2.438 9.875 -5 12 C-5.33 12.33 -5.66 12.66 -6 13 C-7.961 13.203 -7.961 13.203 -10.375 13.25 C-11.166 13.276 -11.958 13.302 -12.773 13.328 C-15 13 -15 13 -16.777 11.672 C-18 10 -18 10 -18.188 7 C-17 4 -17 4 -15.316 2.98 C-10.263 1.041 -5.417 0 0 0 Z " fill="#F1FAFB" transform="translate(519,48)"/>
<path d="M0 0 C2.938 1.625 2.938 1.625 5 4 C5.33 5.98 5.66 7.96 6 10 C-0.93 10 -7.86 10 -15 10 C-14.037 5.184 -13.6 3.83 -9.812 0.953 C-6.344 -0.871 -3.874 -0.553 0 0 Z " fill="#F0F9FB" transform="translate(396,30)"/>
<path d="M0 0 C2.738 1.632 5.075 3.449 7 6 C7 7.32 7 8.64 7 10 C0.07 10 -6.86 10 -14 10 C-12.847 3.08 -12.847 3.08 -10 1 C-6.294 -0.235 -3.902 -0.455 0 0 Z " fill="#F0F3F3" transform="translate(230,30)"/>
<path d="M0 0 C1.588 -0.062 3.176 -0.124 4.812 -0.188 C6.152 -0.24 6.152 -0.24 7.52 -0.293 C10 0 10 0 11.801 1.355 C13.507 3.696 13.424 5.173 13 8 C11.5 9.812 11.5 9.812 10 11 C10.743 12.176 10.743 12.176 11.5 13.375 C13 16 13 16 13 18 C9.222 16.489 9.222 16.489 8.062 13.938 C7.712 13.298 7.361 12.659 7 12 C4.445 11.188 4.445 11.188 2 11 C2 13.31 2 15.62 2 18 C1.01 17.67 0.02 17.34 -1 17 C-0.67 11.39 -0.34 5.78 0 0 Z " fill="#979DA1" transform="translate(178,88)"/>
<path d="M0 0 C1.797 0.035 1.797 0.035 4 1 C5.29 3.507 6.298 5.808 7.25 8.438 C7.518 9.132 7.786 9.826 8.062 10.541 C10 15.647 10 15.647 10 18 C9.01 18 8.02 18 7 18 C6.835 17.361 6.67 16.721 6.5 16.062 C5.218 13.839 5.218 13.839 3.086 13.512 C1.064 13.272 -0.968 13.131 -3 13 C-3.33 14.65 -3.66 16.3 -4 18 C-4.99 18 -5.98 18 -7 18 C-5.264 11.581 -3.148 5.862 0 0 Z " fill="#9BA1A5" transform="translate(483,88)"/>
<path d="M0 0 C0.99 0 1.98 0 3 0 C4.009 2.246 5.007 4.496 6 6.75 C6.286 7.384 6.572 8.018 6.867 8.672 C8.36 12.084 9 14.208 9 18 C8.01 17.67 7.02 17.34 6 17 C5.67 16.01 5.34 15.02 5 14 C2.36 13.67 -0.28 13.34 -3 13 C-3.33 14.65 -3.66 16.3 -4 18 C-4.99 18 -5.98 18 -7 18 C-5.264 11.581 -3.148 5.862 0 0 Z " fill="#9FA5A9" transform="translate(540,88)"/>
<path d="M0 0 C3 1 3 1 4.5 3.438 C6.365 7.868 7.711 12.374 9 17 C8.01 17 7.02 17 6 17 C5.67 16.01 5.34 15.02 5 14 C2.36 13.67 -0.28 13.34 -3 13 C-3.33 14.65 -3.66 16.3 -4 18 C-4.99 18 -5.98 18 -7 18 C-6.344 13.976 -5.088 10.499 -3.5 6.75 C-3.057 5.693 -2.613 4.636 -2.156 3.547 C-1 1 -1 1 0 0 Z " fill="#9AA0A4" transform="translate(370,88)"/>
<path d="M0 0 C1.938 1.938 1.938 1.938 3 4 C3 4.66 3 5.32 3 6 C1.68 5.67 0.36 5.34 -1 5 C-1 4.34 -1 3.68 -1 3 C-3.31 3 -5.62 3 -8 3 C-9.627 6.253 -9.115 9.392 -9 13 C-7.816 14.416 -7.816 14.416 -4.438 14.062 C-2.736 14.032 -2.736 14.032 -1 14 C-0.67 13.34 -0.34 12.68 0 12 C0.99 12 1.98 12 3 12 C1.848 14.468 0.952 16.048 -1 18 C-7.983 18.788 -7.983 18.788 -11.5 16.062 C-13.518 11.942 -13.708 8.51 -13 4 C-10.007 -1.701 -5.818 -1.35 0 0 Z " fill="#9EA4A7" transform="translate(144,88)"/>
<path d="M0 0 C3.96 0 7.92 0 12 0 C12 0.66 12 1.32 12 2 C9.03 2 6.06 2 3 2 C3 3.65 3 5.3 3 7 C5.64 7 8.28 7 11 7 C11 7.99 11 8.98 11 10 C8.36 10 5.72 10 3 10 C3 11.65 3 13.3 3 15 C5.64 15 8.28 15 11 15 C11.33 15.99 11.66 16.98 12 18 C8.04 18 4.08 18 0 18 C0 12.06 0 6.12 0 0 Z " fill="#A1A7AA" transform="translate(69,88)"/>
<path d="M0 0 C3.96 0 7.92 0 12 0 C12 0.66 12 1.32 12 2 C9.03 2 6.06 2 3 2 C3 3.65 3 5.3 3 7 C5.97 7 8.94 7 12 7 C12 7.99 12 8.98 12 10 C9.03 10 6.06 10 3 10 C3 11.98 3 13.96 3 16 C6.3 16 9.6 16 13 16 C13 16.66 13 17.32 13 18 C8.71 18 4.42 18 0 18 C0 12.06 0 6.12 0 0 Z " fill="#9FA5A9" transform="translate(308,88)"/>
<path d="M0 0 C1.938 1.375 1.938 1.375 3 3 C3 3.66 3 4.32 3 5 C2.443 4.67 1.886 4.34 1.312 4 C-1.303 2.869 -3.181 2.843 -6 3 C-6 3.99 -6 4.98 -6 6 C-5.446 6.193 -4.891 6.387 -4.32 6.586 C-3.596 6.846 -2.871 7.107 -2.125 7.375 C-1.406 7.63 -0.686 7.885 0.055 8.148 C2 9 2 9 4 11 C3.812 13.5 3.812 13.5 3 16 C-0.489 18.326 -1.897 18.419 -6 18 C-8.375 16.688 -8.375 16.688 -10 15 C-10 14.01 -10 13.02 -10 12 C-9.01 12.33 -8.02 12.66 -7 13 C-7 13.66 -7 14.32 -7 15 C-3.535 14.505 -3.535 14.505 0 14 C0 13.34 0 12.68 0 12 C-0.638 11.723 -1.276 11.446 -1.934 11.16 C-2.76 10.798 -3.586 10.436 -4.438 10.062 C-5.261 9.703 -6.085 9.343 -6.934 8.973 C-9 8 -9 8 -10 7 C-10.25 4.562 -10.25 4.562 -10 2 C-6.305 -0.463 -4.367 -0.39 0 0 Z " fill="#9BA1A4" transform="translate(421,88)"/>
<path d="M0 0 C1.875 1.438 1.875 1.438 3 3 C3 3.66 3 4.32 3 5 C2.01 5 1.02 5 0 5 C-0.33 4.34 -0.66 3.68 -1 3 C-2.98 3 -4.96 3 -7 3 C-7 3.99 -7 4.98 -7 6 C-6.362 6.205 -5.724 6.41 -5.066 6.621 C-4.24 6.891 -3.414 7.16 -2.562 7.438 C-1.739 7.704 -0.915 7.971 -0.066 8.246 C2 9 2 9 3 10 C3.25 12.938 3.25 12.938 3 16 C-0.427 18.285 -2.138 18.468 -6.125 18.402 C-8 18 -8 18 -10 15.5 C-10.33 14.675 -10.66 13.85 -11 13 C-7.125 13.875 -7.125 13.875 -6 15 C-4.334 15.041 -2.666 15.043 -1 15 C-1 13.68 -1 12.36 -1 11 C-2.114 10.711 -3.228 10.422 -4.375 10.125 C-8 9 -8 9 -10 7 C-10.125 3.875 -10.125 3.875 -10 1 C-6.427 -1.336 -4.058 -1.122 0 0 Z " fill="#9BA1A5" transform="translate(340,88)"/>
<path d="M0 0 C1.938 1.375 1.938 1.375 3 3 C3 3.99 3 4.98 3 6 C2.01 5.67 1.02 5.34 0 5 C-0.33 4.34 -0.66 3.68 -1 3 C-3.917 2.833 -3.917 2.833 -7 3 C-9.372 4.936 -9.372 4.936 -9.25 8.438 C-9.288 12.104 -9.288 12.104 -7 15 C-4.5 15.5 -4.5 15.5 -2 15 C-1.34 14.01 -0.68 13.02 0 12 C0.99 12 1.98 12 3 12 C2.427 14.867 2.139 15.861 0 18 C-3.087 18.405 -5.037 18.628 -8 18 C-11.773 14.997 -11.773 14.997 -13 12 C-13.364 8.761 -13.051 6.083 -12 3 C-8.344 -1.516 -5.435 -1.51 0 0 Z " fill="#9CA2A6" transform="translate(225,88)"/>
<path d="M0 0 C0.66 0 1.32 0 2 0 C2.061 0.915 2.121 1.83 2.184 2.773 C2.267 3.962 2.351 5.15 2.438 6.375 C2.559 8.15 2.559 8.15 2.684 9.961 C2.811 12.915 2.811 12.915 4 15 C5.666 15.043 7.334 15.041 9 15 C10.941 13.059 10.399 9.527 10.562 6.938 C10.646 5.647 10.73 4.357 10.816 3.027 C10.877 2.028 10.938 1.029 11 0 C11.99 0 12.98 0 14 0 C14.054 2.083 14.093 4.166 14.125 6.25 C14.148 7.41 14.171 8.57 14.195 9.766 C14.009 12.847 13.717 14.479 12 17 C9.191 18.405 7.112 18.249 4 18 C1.82 16.965 1.82 16.965 0 15 C-0.296 12.288 -0.381 10.003 -0.25 7.312 C-0.232 6.611 -0.214 5.909 -0.195 5.186 C-0.148 3.456 -0.077 1.728 0 0 Z " fill="#91979B" transform="translate(388,88)"/>
<path d="M0 0 C3.63 0 7.26 0 11 0 C11 0.66 11 1.32 11 2 C8.03 2 5.06 2 2 2 C2 3.98 2 5.96 2 8 C4.64 8 7.28 8 10 8 C10 8.66 10 9.32 10 10 C7.36 10 4.72 10 2 10 C2 11.65 2 13.3 2 15 C4.97 15 7.94 15 11 15 C11 15.99 11 16.98 11 18 C7.37 18 3.74 18 0 18 C0 12.06 0 6.12 0 0 Z " fill="#979DA1" transform="translate(111,88)"/>
<path d="M0 0 C0.66 0 1.32 0 2 0 C2 2.64 2 5.28 2 8 C2.763 7.237 3.526 6.474 4.312 5.688 C6.208 3.792 8.104 1.896 10 0 C10.99 0.33 11.98 0.66 13 1 C10.03 3.97 10.03 3.97 7 7 C8.779 11.044 11.395 14.461 14 18 C10.684 17.443 9.354 16.638 7.375 13.938 C6.591 12.968 5.808 11.999 5 11 C4.34 11 3.68 11 3 11 C2.67 13.31 2.34 15.62 2 18 C1.34 18 0.68 18 0 18 C0 12.06 0 6.12 0 0 Z " fill="#92989C" transform="translate(286,88)"/>
<path d="M0 0 C0.99 0 1.98 0 3 0 C3 4.95 3 9.9 3 15 C5.64 15 8.28 15 11 15 C11.33 15.99 11.66 16.98 12 18 C8.04 18 4.08 18 0 18 C0 12.06 0 6.12 0 0 Z " fill="#A9AFB3" transform="translate(90,88)"/>
<path d="M0 0 C4.62 0 9.24 0 14 0 C14 0.66 14 1.32 14 2 C12.02 2 10.04 2 8 2 C8 7.28 8 12.56 8 18 C7.01 18 6.02 18 5 18 C5 12.72 5 7.44 5 2 C3.35 2 1.7 2 0 2 C0 1.34 0 0.68 0 0 Z " fill="#A0A6A9" transform="translate(155,88)"/>
<path d="M0 0 C4.29 0 8.58 0 13 0 C13 0.66 13 1.32 13 2 C11.02 2 9.04 2 7 2 C7 7.28 7 12.56 7 18 C6.34 18 5.68 18 5 18 C5 12.72 5 7.44 5 2 C3.35 2 1.7 2 0 2 C0 1.34 0 0.68 0 0 Z " fill="#90969A" transform="translate(433,88)"/>
<path d="M0 0 C0.99 0.33 1.98 0.66 3 1 C4.188 3.562 4.188 3.562 5 6 C4.34 6 3.68 6 3 6 C3.33 7.65 3.66 9.3 4 11 C1.625 11.188 1.625 11.188 -1 11 C-3 8 -3 8 -2.75 5.5 C-2 3 -2 3 0 0 Z " fill="#9DA2A6" transform="translate(370,88)"/>
<path d="M0 0 C0.99 0 1.98 0 3 0 C3 5.94 3 11.88 3 18 C2.01 18 1.02 18 0 18 C0 12.06 0 6.12 0 0 Z " fill="#A5ABAF" transform="translate(273,88)"/>
<path d="M0 0 C0.66 0 1.32 0 2 0 C2 5.28 2 10.56 2 16 C4.97 16 7.94 16 11 16 C11 16.66 11 17.32 11 18 C7.37 18 3.74 18 0 18 C0 12.06 0 6.12 0 0 Z " fill="#959B9F" transform="translate(502,88)"/>
<path d="M0 0 C0.99 0 1.98 0 3 0 C3 5.61 3 11.22 3 17 C2.01 17.33 1.02 17.66 0 18 C0 12.06 0 6.12 0 0 Z " fill="#A6ACB0" transform="translate(522,88)"/>
<path d="M0 0 C0.66 0 1.32 0 2 0 C2 5.94 2 11.88 2 18 C1.01 18 0.02 18 -1 18 C-1.027 15.187 -1.047 12.375 -1.062 9.562 C-1.071 8.76 -1.079 7.958 -1.088 7.131 C-1.097 5.087 -1.052 3.043 -1 1 C-0.67 0.67 -0.34 0.34 0 0 Z " fill="#9FA5A8" transform="translate(201,88)"/>
<path d="M0 0 C2.31 0 4.62 0 7 0 C7.382 1.656 7.714 3.325 8 5 C7 6 7 6 3.438 6.062 C2.303 6.042 1.169 6.021 0 6 C0 4.02 0 2.04 0 0 Z " fill="#F5F8F8" transform="translate(180,90)"/>
<path d="M0 0 C3 1 3 1 4.688 4.312 C6 8 6 8 6 12 C5.01 11.67 4.02 11.34 3 11 C2.67 10.01 2.34 9.02 2 8 C-0.97 7.505 -0.97 7.505 -4 7 C-3 5 -3 5 0 4 C0 2.68 0 1.36 0 0 Z " fill="#999FA3" transform="translate(543,94)"/>
<path d="M0 0 C0.34 0.959 0.34 0.959 0.688 1.938 C1.853 4.272 1.853 4.272 4.625 4.75 C5.409 4.832 6.192 4.915 7 5 C7 5.33 7 5.66 7 6 C5.35 6.33 3.7 6.66 2 7 C2 8.65 2 10.3 2 12 C4.97 12.495 4.97 12.495 8 13 C8 13.33 8 13.66 8 14 C5.03 14 2.06 14 -1 14 C-1.027 11.854 -1.046 9.708 -1.062 7.562 C-1.074 6.368 -1.086 5.173 -1.098 3.941 C-1 1 -1 1 0 0 Z " fill="#8F9599" transform="translate(251,91)"/>
<path d="M0 0 C2.875 -0.125 2.875 -0.125 6 0 C6.66 0.66 7.32 1.32 8 2 C7.625 4.125 7.625 4.125 7 6 C4.69 6 2.38 6 0 6 C0 4.02 0 2.04 0 0 Z " fill="#F7F9F9" transform="translate(458,90)"/>
<path d="M0 0 C0.99 0 1.98 0 3 0 C3 4.29 3 8.58 3 13 C2.01 13.33 1.02 13.66 0 14 C0 9.38 0 4.76 0 0 Z " fill="#A3A9AD" transform="translate(399,88)"/>
<path d="M0 0 C2.31 0 4.62 0 7 0 C7.562 1.938 7.562 1.938 8 4 C7 5 7 5 3.438 5.062 C2.303 5.042 1.169 5.021 0 5 C0 3.35 0 1.7 0 0 Z " fill="#FCFDFC" transform="translate(253,98)"/>
<path d="M0 0 C2.64 0 5.28 0 8 0 C8.33 0.66 8.66 1.32 9 2 C6.36 2 3.72 2 1 2 C1.267 4.934 1.267 4.934 2 8 C2.99 8.66 3.98 9.32 5 10 C4.01 10.33 3.02 10.66 2 11 C1.67 12.98 1.34 14.96 1 17 C0.67 17 0.34 17 0 17 C0 11.39 0 5.78 0 0 Z " fill="#8F9599" transform="translate(456,88)"/>
<path d="M0 0 C1.98 0 3.96 0 6 0 C6.33 1.65 6.66 3.3 7 5 C4.69 5 2.38 5 0 5 C0 3.35 0 1.7 0 0 Z " fill="#F6F9F9" transform="translate(253,90)"/>
<path d="M0 0 C0.66 0 1.32 0 2 0 C2.66 2.31 3.32 4.62 4 7 C2.35 7 0.7 7 -1 7 C-0.67 4.69 -0.34 2.38 0 0 Z " fill="#F3F6F6" transform="translate(540,92)"/>
<path d="M0 0 C0.66 0.99 1.32 1.98 2 3 C1.34 3 0.68 3 0 3 C-0.33 4.65 -0.66 6.3 -1 8 C-1.99 8 -2.98 8 -4 8 C-3.401 5.648 -2.731 3.314 -2 1 C-1.34 0.67 -0.68 0.34 0 0 Z " fill="#9CA2A6" transform="translate(537,98)"/>
<path d="M0 0 C2.565 2.565 2.54 4.477 3 8 C1.35 8 -0.3 8 -2 8 C-1.34 5.36 -0.68 2.72 0 0 Z " fill="#F2F5F6" transform="translate(484,91)"/>
<path d="M0 0 C0.66 0 1.32 0 2 0 C2.66 2.31 3.32 4.62 4 7 C2.35 7 0.7 7 -1 7 C-0.67 4.69 -0.34 2.38 0 0 Z " fill="#F4F8F8" transform="translate(370,92)"/>
<path d="M0 0 C0.33 0.99 0.66 1.98 1 3 C-2.228 5.152 -3.284 5.201 -7 5 C-7 4.34 -7 3.68 -7 3 C-4.69 2.01 -2.38 1.02 0 0 Z " fill="#969CA0" transform="translate(400,101)"/>
<path d="M0 0 C0.99 0 1.98 0 3 0 C2.427 2.867 2.139 3.861 0 6 C-0.99 5.67 -1.98 5.34 -3 5 C-1.688 2.5 -1.688 2.5 0 0 Z " fill="#A6ACAF" transform="translate(225,100)"/>
<path d="M0 0 C0.99 0.33 1.98 0.66 3 1 C4.188 3.562 4.188 3.562 5 6 C3.68 5.67 2.36 5.34 1 5 C1 4.34 1 3.68 1 3 C0.34 2.67 -0.32 2.34 -1 2 C-0.67 1.34 -0.34 0.68 0 0 Z " fill="#A8AEB2" transform="translate(142,88)"/>
<path d="M0 0 C1.875 0.25 1.875 0.25 4 1 C5.25 3.062 5.25 3.062 6 5 C3 5 3 5 1.312 3.625 C0 2 0 2 0 0 Z " fill="#949A9E" transform="translate(337,88)"/>
<path d="M0 0 C1.938 0.75 1.938 0.75 4 2 C4.75 4.125 4.75 4.125 5 6 C4.01 5.67 3.02 5.34 2 5 C0.812 2.438 0.812 2.438 0 0 Z " fill="#989EA2" transform="translate(223,88)"/>
<path d="M0 0 C1.32 0.33 2.64 0.66 4 1 C4.33 2.32 4.66 3.64 5 5 C3.062 4.188 3.062 4.188 1 3 C0.67 2.01 0.34 1.02 0 0 Z " fill="#9DA3A7" transform="translate(329,101)"/>
<path d="M0 0 C1.32 0.33 2.64 0.66 4 1 C4.33 2.32 4.66 3.64 5 5 C3.062 4.188 3.062 4.188 1 3 C0.67 2.01 0.34 1.02 0 0 Z " fill="#959B9F" transform="translate(419,88)"/>
</svg>