<svg width="26" height="16" viewBox="0 0 26 16" fill="none" xmlns="http://www.w3.org/2000/svg">
<path d="M16.3046 1.83937H9.53181V14.1604H16.3046V1.83937Z" fill="#FF5F00"/>
<path d="M9.96188 7.99988C9.96081 6.81328 10.2264 5.64198 10.7386 4.57466C11.2508 3.50733 11.9962 2.57197 12.9183 1.83936C11.7764 0.930765 10.405 0.365721 8.96095 0.208815C7.51686 0.0519086 6.0583 0.309465 4.75197 0.952058C3.44564 1.59465 2.34425 2.59635 1.5737 3.84266C0.803154 5.08896 0.394531 6.52959 0.394531 7.99988C0.394531 9.47018 0.803154 10.9108 1.5737 12.1571C2.34425 13.4034 3.44564 14.4051 4.75197 15.0477C6.0583 15.6903 7.51686 15.9479 8.96095 15.791C10.405 15.634 11.7764 15.069 12.9183 14.1604C11.9962 13.4278 11.2508 12.4924 10.7386 11.4251C10.2264 10.3578 9.96082 9.18649 9.96188 7.99988Z" fill="#EB001B"/>
<path d="M25.4416 7.99988C25.4416 9.47015 25.0331 10.9108 24.2626 12.1571C23.492 13.4034 22.3907 14.4051 21.0844 15.0477C19.7781 15.6903 18.3195 15.9479 16.8755 15.791C15.4314 15.634 14.0601 15.069 12.9183 14.1604C13.8395 13.4271 14.5843 12.4915 15.0964 11.4244C15.6085 10.3572 15.8746 9.1863 15.8746 7.99988C15.8746 6.81347 15.6085 5.64253 15.0964 4.57538C14.5843 3.50822 13.8395 2.57271 12.9183 1.83936C14.0601 0.930764 15.4314 0.365717 16.8755 0.208813C18.3195 0.0519086 19.7781 0.309477 21.0844 0.952076C22.3907 1.59468 23.492 2.59638 24.2626 3.84268C25.0331 5.08899 25.4416 6.52961 25.4416 7.99988Z" fill="#F79E1B"/>
<path d="M24.7031 12.8554V12.6032H24.8036V12.5518H24.5477V12.6032H24.6482V12.8554H24.7031ZM25.1999 12.8554V12.5513H25.1215L25.0312 12.7605L24.941 12.5513H24.8625V12.8554H24.9179V12.626L25.0025 12.8238H25.0599L25.1446 12.6255V12.8554H25.1999Z" fill="#F79E1B"/>
</svg>
