<svg width="60" height="60" viewBox="0 0 60 60" fill="none" xmlns="http://www.w3.org/2000/svg">
<path d="M29.954 57.8261C45.3219 57.8261 57.7801 45.368 57.7801 30C57.7801 14.6321 45.3219 2.17395 29.954 2.17395C14.5861 2.17395 2.12793 14.6321 2.12793 30C2.12793 45.368 14.5861 57.8261 29.954 57.8261Z" fill="#C5F0FC"/>
<path d="M50.9922 22.074L44.8303 42.53C44.1783 44.6943 41.8947 45.9271 39.7227 45.2728L5.80976 35.0573C3.63787 34.4031 2.4074 32.1117 3.05934 29.9474L9.22125 9.49143C9.87548 7.31955 12.1668 6.08907 14.3387 6.7433L48.2516 16.9588C50.4237 17.6131 51.6464 19.9021 50.9922 22.074Z" fill="#0066ED"/>
<path d="M40.9027 45.8818C40.4713 45.8818 40.0323 45.8198 39.5975 45.689L5.68447 35.4733C4.52363 35.1243 3.56745 34.343 2.99255 33.2748C2.4185 32.2065 2.29452 30.9803 2.64353 29.822L8.80522 9.36597C9.52703 6.96787 12.0661 5.60153 14.465 6.32758L48.3781 16.5424C50.7711 17.2642 52.1306 19.8016 51.4088 22.1997L45.2471 42.6557C44.657 44.6148 42.8516 45.8818 40.9027 45.8818ZM13.1497 7.00184C12.551 7.00184 11.9591 7.1496 11.4173 7.44087C10.5528 7.90452 9.92105 8.67728 9.63742 9.61733L3.47574 30.0733C3.19381 31.0091 3.29401 31.9993 3.75852 32.8629C4.22302 33.7265 4.99663 34.3583 5.93583 34.6411L39.8489 44.8568C41.7833 45.4368 43.8324 44.3388 44.4149 42.4044L50.5766 21.9483C51.16 20.0096 50.0612 17.958 48.1267 17.3746L14.2137 7.15979C13.8638 7.05449 13.5055 7.00184 13.1497 7.00184Z" fill="black"/>
<path d="M48.8397 15.329V36.6929C48.8397 38.9533 47.0088 40.7923 44.7403 40.7923H9.32219C7.05391 40.7923 5.21484 38.9533 5.21484 36.6929V15.329C5.21484 13.0607 7.05391 11.2216 9.32219 11.2216H44.7403C47.0088 11.2216 48.8397 13.0607 48.8397 15.329Z" fill="#00C53B"/>
<path d="M48.8395 23.2766V36.688C48.8395 38.9581 47.0118 40.7975 44.7416 40.7975H9.32735C7.05719 40.7975 5.21777 38.9581 5.21777 36.688V24.0217C10.7244 25.8029 18.0005 26.8855 25.9634 26.8855C35.0208 26.8855 43.1583 25.4886 48.8395 23.2766Z" fill="#00B327"/>
<path d="M44.7404 41.2274H9.32256C6.81832 41.2274 4.78027 39.1928 4.78027 36.6928V15.329C4.78027 12.8247 6.81832 10.7867 9.32256 10.7867H44.7404C47.2404 10.7867 49.275 12.8247 49.275 15.329V36.6928C49.275 39.1928 47.2404 41.2274 44.7404 41.2274ZM9.32256 11.6562C7.29726 11.6562 5.64984 13.3037 5.64984 15.329V36.6928C5.64984 38.7138 7.29726 40.3578 9.32256 40.3578H44.7404C46.7614 40.3578 48.4054 38.7138 48.4054 36.6928V15.329C48.4054 13.3037 46.7614 11.6562 44.7404 11.6562H9.32256Z" fill="black"/>
<path d="M19.3746 18.0611V24.3593C19.3746 24.9181 18.9206 25.3838 18.3501 25.3838H12.0519C11.4931 25.3838 11.0391 24.9181 11.0391 24.3593V18.0611C11.0391 17.5023 11.4931 17.0483 12.0519 17.0483H18.3501C18.9206 17.0483 19.3746 17.5023 19.3746 18.0611Z" fill="#FBC56D"/>
<path d="M18.3498 25.8189H12.0514C11.2531 25.8189 10.6035 25.1642 10.6035 24.3592V18.0608C10.6035 17.2625 11.2531 16.6138 12.0514 16.6138H18.3498C19.154 16.6138 19.8087 17.2625 19.8087 18.0608V24.3592C19.8087 25.1642 19.154 25.8189 18.3498 25.8189ZM12.0514 17.4833C11.7321 17.4833 11.4731 17.7423 11.4731 18.0608V24.3592C11.4731 24.6793 11.738 24.9494 12.0514 24.9494H18.3498C18.675 24.9494 18.9391 24.6844 18.9391 24.3592V18.0608C18.9391 17.7372 18.6801 17.4833 18.3498 17.4833H12.0514Z" fill="black"/>
<path d="M16.1498 33.3234C16.1498 34.2315 15.4047 34.9765 14.4967 34.9765H12.6922C11.7725 34.9765 11.0391 34.2315 11.0391 33.3234C11.0391 32.4037 11.7725 31.6703 12.6922 31.6703H14.4967C15.4047 31.6703 16.1498 32.4037 16.1498 33.3234Z" fill="white"/>
<path d="M14.4962 35.4113H12.6917C11.5402 35.4113 10.6035 34.4747 10.6035 33.3232C10.6035 32.1726 11.5402 31.2359 12.6917 31.2359H14.4962C15.6477 31.2359 16.5843 32.1726 16.5843 33.3232C16.5843 34.4747 15.6477 35.4113 14.4962 35.4113ZM12.6917 32.1055C12.0081 32.1055 11.4731 32.6405 11.4731 33.3232C11.4731 33.9949 12.02 34.5418 12.6917 34.5418H14.4962C15.1679 34.5418 15.7148 33.9949 15.7148 33.3232C15.7148 32.6515 15.1679 32.1055 14.4962 32.1055H12.6917Z" fill="black"/>
<path d="M25.0053 33.3234C25.0053 34.2315 24.2602 34.9765 23.3522 34.9765H21.5476C20.628 34.9765 19.8945 34.2315 19.8945 33.3234C19.8945 32.4037 20.628 31.6703 21.5476 31.6703H23.3522C24.2602 31.6703 25.0053 32.4037 25.0053 33.3234Z" fill="white"/>
<path d="M23.3518 35.4113H21.5473C20.3966 35.4113 19.46 34.4747 19.46 33.3232C19.46 32.1726 20.3966 31.2359 21.5473 31.2359H23.3518C24.5033 31.2359 25.4399 32.1726 25.4399 33.3232C25.4399 34.4747 24.5033 35.4113 23.3518 35.4113ZM21.5473 32.1055C20.8645 32.1055 20.3295 32.6405 20.3295 33.3232C20.3295 33.9949 20.8756 34.5418 21.5473 34.5418H23.3518C24.0235 34.5418 24.5704 33.9949 24.5704 33.3232C24.5704 32.6515 24.0235 32.1055 23.3518 32.1055H21.5473Z" fill="black"/>
<path d="M33.8608 33.3234C33.8608 34.2315 33.1157 34.9765 32.2076 34.9765H30.4031C29.4834 34.9765 28.75 34.2315 28.75 33.3234C28.75 32.4037 29.4834 31.6703 30.4031 31.6703H32.2076C33.1157 31.6703 33.8608 32.4037 33.8608 33.3234Z" fill="white"/>
<path d="M32.2081 35.4113H30.4036C29.2521 35.4113 28.3154 34.4747 28.3154 33.3232C28.3154 32.1726 29.2521 31.2359 30.4036 31.2359H32.2081C33.3587 31.2359 34.2954 32.1726 34.2954 33.3232C34.2954 34.4747 33.3587 35.4113 32.2081 35.4113ZM30.4036 32.1055C29.72 32.1055 29.185 32.6405 29.185 33.3232C29.185 33.9949 29.7319 34.5418 30.4036 34.5418H32.2081C32.8798 34.5418 33.4258 33.9949 33.4258 33.3232C33.4258 32.6515 32.8798 32.1055 32.2081 32.1055H30.4036Z" fill="black"/>
<path d="M42.7162 33.3234C42.7162 34.2315 41.9711 34.9765 41.0631 34.9765H39.2586C38.3389 34.9765 37.6055 34.2315 37.6055 33.3234C37.6055 32.4037 38.3389 31.6703 39.2586 31.6703H41.0631C41.9711 31.6703 42.7162 32.4037 42.7162 33.3234Z" fill="white"/>
<path d="M41.0636 35.4113H39.259C38.1075 35.4113 37.1709 34.4747 37.1709 33.3232C37.1709 32.1726 38.1075 31.2359 39.259 31.2359H41.0636C42.2142 31.2359 43.1509 32.1726 43.1509 33.3232C43.1509 34.4747 42.2142 35.4113 41.0636 35.4113ZM39.259 32.1055C38.5755 32.1055 38.0405 32.6405 38.0405 33.3232C38.0405 33.9949 38.5873 34.5418 39.259 34.5418H41.0636C41.7353 34.5418 42.2813 33.9949 42.2813 33.3232C42.2813 32.6515 41.7353 32.1055 41.0636 32.1055H39.259Z" fill="black"/>
<path d="M42.7164 17.4774H31.3059C31.0656 17.4774 30.8711 17.283 30.8711 17.0426C30.8711 16.8023 31.0656 16.6078 31.3059 16.6078H42.7164C42.9567 16.6078 43.1512 16.8023 43.1512 17.0426C43.1512 17.283 42.9567 17.4774 42.7164 17.4774Z" fill="black"/>
<path d="M39.5039 20.9064H31.3059C31.0656 20.9064 30.8711 20.7119 30.8711 20.4716C30.8711 20.2313 31.0656 20.0368 31.3059 20.0368H39.5039C39.7442 20.0368 39.9387 20.2313 39.9387 20.4716C39.9387 20.7119 39.7442 20.9064 39.5039 20.9064Z" fill="black"/>
<path d="M56.7789 33.1233V41.6595C56.7789 45.7105 54.6616 49.465 51.1953 51.5656L46.6473 54.3176C46.2924 54.5348 45.8497 54.5348 45.4947 54.3176L40.9427 51.5656C37.4764 49.465 35.3633 45.7105 35.3633 41.6595V33.1233C35.3633 32.6096 35.7182 32.1586 36.2235 32.0417C41.1682 30.9141 44.0748 28.8219 45.3319 27.6775C45.7495 27.2976 46.3926 27.2976 46.8103 27.6775C48.0673 28.8219 50.9698 30.9141 55.9185 32.0417C56.4198 32.1586 56.7789 32.6096 56.7789 33.1233Z" fill="#FF6C55"/>
<path d="M56.779 39.9346V41.6563C56.779 45.7085 54.6659 49.465 51.1964 51.5694L46.6485 54.3172C46.292 54.5346 45.8485 54.5346 45.492 54.3172L40.9442 51.5694C37.6833 49.5868 35.6138 46.1433 35.3877 42.3694C37.5703 42.7781 39.9442 43.0042 42.4399 43.0042C48.1442 43.0042 53.2747 41.8216 56.779 39.9346Z" fill="#FF544C"/>
<path d="M46.0707 54.9162C45.7931 54.9162 45.5154 54.8398 45.2674 54.6887L40.7166 51.9373C37.1458 49.7744 34.9277 45.8359 34.9277 41.6596V33.1236C34.9277 32.401 35.4203 31.7819 36.1242 31.618C41.2202 30.4563 44.0556 28.2501 45.0381 27.356C45.6283 26.821 46.514 26.821 47.1025 27.356C48.085 28.251 50.9213 30.4572 56.0147 31.618C56.7102 31.7802 57.2129 32.4137 57.2129 33.1236V41.6596C57.2129 45.8342 54.9931 49.7727 51.4198 51.9373L46.8715 54.6895C46.6253 54.8407 46.3484 54.9162 46.0707 54.9162ZM46.0699 27.8281C45.9094 27.8281 45.7489 27.885 45.6241 27.9996C44.5906 28.9397 41.6151 31.258 36.3195 32.4655C36.013 32.5368 35.7973 32.8077 35.7973 33.1236V41.6596C35.7973 45.5336 37.8549 49.1868 41.1667 51.1934L45.7192 53.9456C45.9357 54.0772 46.2032 54.0798 46.4198 53.9465L50.9697 51.1934C54.2841 49.1851 56.3433 45.5319 56.3433 41.6596V33.1236C56.3433 32.8128 56.1225 32.536 55.8185 32.4655C50.7175 31.303 47.8014 29.1681 46.5166 27.9996C46.3917 27.885 46.2312 27.8281 46.0699 27.8281Z" fill="black"/>
<path d="M46.0705 45.4487C48.9362 45.4487 51.2592 43.1257 51.2592 40.26C51.2592 37.3944 48.9362 35.0714 46.0705 35.0714C43.2049 35.0714 40.8818 37.3944 40.8818 40.26C40.8818 43.1257 43.2049 45.4487 46.0705 45.4487Z" fill="white"/>
<path d="M46.0715 45.8835C42.9712 45.8835 40.4482 43.3606 40.4482 40.2602C40.4482 37.1598 42.9712 34.6369 46.0715 34.6369C49.1719 34.6369 51.694 37.1598 51.694 40.2602C51.694 43.3606 49.1719 45.8835 46.0715 45.8835ZM46.0715 35.5065C43.4501 35.5065 41.3178 37.6388 41.3178 40.2602C41.3178 42.8816 43.4501 45.0139 46.0715 45.0139C48.6921 45.0139 50.8244 42.8816 50.8244 40.2602C50.8244 37.6388 48.6921 35.5065 46.0715 35.5065Z" fill="black"/>
<path d="M45.4955 41.9432C45.3919 41.9432 45.2875 41.9067 45.2051 41.832L44.0528 40.796C43.8736 40.6355 43.8591 40.3604 44.0196 40.182C44.1801 40.0029 44.4553 39.9893 44.6336 40.1489L45.4675 40.8979L47.4809 38.7172C47.644 38.5397 47.92 38.5295 48.0949 38.6926C48.2715 38.8556 48.2826 39.1307 48.1195 39.3065L45.8148 41.8031C45.7291 41.8965 45.6127 41.9432 45.4955 41.9432Z" fill="black"/>
</svg>
