<svg width="36" height="10" viewBox="0 0 36 10" fill="none" xmlns="http://www.w3.org/2000/svg">
<path fill-rule="evenodd" clip-rule="evenodd" d="M5.06331 0.635253H2.41123C2.22975 0.635253 2.0754 0.768763 2.0471 0.950049L0.974462 7.83382C0.953142 7.9697 1.05707 8.09213 1.19319 8.09213H2.45931C2.6408 8.09213 2.79515 7.95862 2.82345 7.77697L3.11275 5.92033C3.14066 5.7385 3.29539 5.60517 3.4765 5.60517H4.31605C6.06307 5.60517 7.07126 4.74942 7.33471 3.05373C7.45333 2.31187 7.33973 1.72896 6.99643 1.32061C6.61957 0.872484 5.95091 0.635253 5.06331 0.635253ZM5.36929 3.14946C5.22428 4.11274 4.49716 4.11274 3.7941 4.11274H3.39389L3.67465 2.31369C3.69132 2.20506 3.78439 2.12496 3.89298 2.12496H4.0764C4.55532 2.12496 5.00714 2.12496 5.24062 2.40124C5.3797 2.56618 5.42241 2.81104 5.36929 3.14946ZM12.991 3.11858H11.721C11.6128 3.11858 11.5193 3.19868 11.5026 3.30749L11.4464 3.66698L11.3576 3.53673C11.0827 3.13274 10.4696 2.99778 9.8577 2.99778C8.45416 2.99778 7.25556 4.07369 7.02209 5.58301C6.90078 6.33576 7.07324 7.05564 7.49514 7.55772C7.88223 8.01929 8.43604 8.21165 9.09482 8.21165C10.2256 8.21165 10.8528 7.47561 10.8528 7.47561L10.7961 7.83291C10.7747 7.96951 10.8786 8.09195 11.0139 8.09195H12.158C12.34 8.09195 12.4934 7.95843 12.5221 7.77678L13.2085 3.37688C13.2302 3.24155 13.1267 3.11858 12.991 3.11858ZM11.2207 5.62061C11.0981 6.35501 10.5222 6.84801 9.78789 6.84801C9.4191 6.84801 9.12426 6.72831 8.93511 6.50143C8.7474 6.27618 8.67597 5.95539 8.73573 5.59827C8.85022 4.87004 9.43579 4.36105 10.159 4.36105C10.5195 4.36105 10.8128 4.48221 11.0059 4.71109C11.1993 4.94233 11.2761 5.26494 11.2207 5.62061ZM18.4787 3.1184H19.755C19.9337 3.1184 20.038 3.3213 19.9364 3.4697L15.6917 9.67156C15.623 9.77201 15.5097 9.83178 15.3888 9.83178H14.1141C13.9346 9.83178 13.8298 9.62724 13.9337 9.47847L15.2554 7.59005L13.8497 3.4143C13.8011 3.26916 13.907 3.1184 14.0595 3.1184H15.3136C15.4765 3.1184 15.6203 3.22666 15.6673 3.38451L16.4133 5.90652L18.1736 3.28206C18.2425 3.17961 18.357 3.1184 18.4787 3.1184Z" fill="#253B80"/>
<path fill-rule="evenodd" clip-rule="evenodd" d="M32.3164 7.83321L33.4048 0.823554C33.4215 0.714746 33.5147 0.634641 33.6229 0.634277H34.8482C34.9835 0.634277 35.0874 0.757071 35.0661 0.892945L33.9927 7.77635C33.9647 7.958 33.8104 8.09152 33.6286 8.09152H32.5343C32.399 8.09152 32.2951 7.96908 32.3164 7.83321ZM23.9808 0.634638H21.3282C21.1472 0.634638 20.9928 0.76815 20.9645 0.949436L19.8919 7.83321C19.8705 7.96908 19.9744 8.09152 20.1099 8.09152H21.4709C21.5974 8.09152 21.7056 7.99814 21.7254 7.87099L22.0297 5.91972C22.0577 5.73789 22.2124 5.60456 22.3935 5.60456H23.2326C24.98 5.60456 25.988 4.74881 26.2517 3.05311C26.3706 2.31126 26.2563 1.72835 25.9132 1.32C25.5365 0.871872 24.8684 0.634638 23.9808 0.634638ZM24.2868 3.14884C24.1421 4.11213 23.415 4.11213 22.7115 4.11213H22.3117L22.5929 2.31308C22.6096 2.20445 22.7018 2.12434 22.8107 2.12434H22.9941C23.4728 2.12434 23.925 2.12434 24.1583 2.40063C24.2975 2.56557 24.3399 2.81043 24.2868 3.14884ZM31.9078 3.11796H30.6387C30.5296 3.11796 30.437 3.19807 30.4206 3.30688L30.3645 3.66636L30.2753 3.53612C30.0003 3.13213 29.3877 2.99717 28.7757 2.99717C27.3722 2.99717 26.174 4.07308 25.9405 5.5824C25.8195 6.33515 25.9913 7.05502 26.4132 7.5571C26.801 8.01867 27.3541 8.21104 28.0129 8.21104C29.1436 8.21104 29.7706 7.475 29.7706 7.475L29.7141 7.8323C29.6928 7.9689 29.7967 8.09133 29.9329 8.09133H31.0764C31.2574 8.09133 31.4118 7.95782 31.4401 7.77617L32.1269 3.37627C32.1479 3.24094 32.044 3.11796 31.9078 3.11796ZM30.1376 5.62C30.0158 6.3544 29.4392 6.8474 28.7047 6.8474C28.3366 6.8474 28.0412 6.72769 27.8519 6.50081C27.6642 6.27557 27.5936 5.95478 27.6527 5.59766C27.7677 4.86943 28.3526 4.36044 29.0758 4.36044C29.4365 4.36044 29.7295 4.4816 29.9228 4.71048C30.117 4.94172 30.1938 5.26433 30.1376 5.62Z" fill="#179BD7"/>
</svg>
