<svg width="34" height="13" viewBox="0 0 34 13" fill="none" xmlns="http://www.w3.org/2000/svg">
<path d="M22.7512 12.0317H25.4458V4.378H22.7512V12.0317ZM21.2339 4.26514C18.7446 4.34635 17.4802 5.47768 17.4802 7.72522V12.0317H20.1993V8.51937C20.1993 7.17332 20.3733 6.59251 21.9504 6.54159V4.30506C21.7675 4.27456 21.5823 4.26074 21.3971 4.26377H21.2366M0.855469 4.89825C0.855469 5.78185 1.22935 7.86286 4.7071 8.10371C5.00213 8.12161 5.78387 8.16703 5.78387 8.91024C5.78387 9.52271 5.14352 9.8833 4.06675 9.8833C3.03239 9.8744 2.00844 9.67333 1.04581 9.29011V11.7345C2.22017 12.0278 3.42698 12.1665 4.6364 12.1474C7.60568 12.1474 8.93533 10.4517 8.93533 8.77261C8.93533 6.86915 7.43982 5.63183 4.95046 5.46943C4.61057 5.44741 3.82203 5.39511 3.82203 4.67666C3.82203 3.81095 4.95726 3.81095 5.3828 3.81095C6.13056 3.81095 7.09993 4.03392 7.79194 4.2445C7.79194 4.2445 8.17806 4.38213 8.50707 4.51976L8.53698 4.52802V2.1456L8.49483 2.13321C7.6791 1.84419 6.72741 1.56617 4.96814 1.56617C1.93088 1.56754 0.855469 3.35814 0.855469 4.89825ZM9.61239 2.12908V12.0386H12.3913V8.96805C13.1976 10.1916 13.5945 12.0317 13.5945 12.0317H16.9241C16.5937 10.6458 15.1567 8.08995 15.1567 8.08995C16.0123 6.97341 16.6722 5.71646 17.1076 4.37387H13.9263C13.5612 5.34025 13.0427 6.23981 12.3913 7.03706V1.56754L9.61239 2.12908ZM26.5865 2.06027V12.0373H29.2784V1.57718L26.5865 2.06027ZM30.5183 2.06027V12.0373H33.213V1.57718L30.5183 2.06027ZM24.0985 0.959207C23.8358 0.959207 23.579 1.03807 23.3605 1.18583C23.1421 1.33358 22.9719 1.54359 22.8713 1.7893C22.7708 2.035 22.7445 2.30537 22.7957 2.56621C22.847 2.82705 22.9735 3.06665 23.1593 3.2547C23.345 3.44276 23.5817 3.57083 23.8394 3.62271C24.097 3.67459 24.3641 3.64797 24.6068 3.54619C24.8495 3.44442 25.057 3.27207 25.2029 3.05094C25.3489 2.82981 25.4268 2.56983 25.4268 2.30388C25.4279 1.94749 25.2892 1.60524 25.0411 1.35233C24.7931 1.09942 24.456 0.956536 24.1039 0.955078L24.0985 0.959207Z" fill="url(#paint0_linear_536_956)"/>
<defs>
<linearGradient id="paint0_linear_536_956" x1="1.14712" y1="5.98202" x2="33.5853" y2="5.98202" gradientUnits="userSpaceOnUse">
<stop stop-color="#872165"/>
<stop offset="1" stop-color="#4F2455"/>
</linearGradient>
</defs>
</svg>
