<svg width="40" height="40" viewBox="0 0 40 40" fill="none" xmlns="http://www.w3.org/2000/svg">
<g clip-path="url(#clip0_106_16386)">
<path d="M39.4841 26.2075L27.5803 13.7094L28.5734 10.8294C28.6391 10.6381 28.6091 10.4269 28.4916 10.2631C28.3741 10.0975 28.1847 10 27.9822 10H25.3378C25.0709 10 24.8334 10.1694 24.7472 10.4212L24.0303 12.5H9.05469L9.93969 9.22625C10.0859 8.66688 9.96281 8.06125 9.61094 7.60562C9.25844 7.14875 8.70406 6.875 8.12594 6.875H5.25969L4.81781 6.43313C4.70094 6.31563 4.54219 6.25 4.37594 6.25H1.87594C1.53031 6.25 1.25094 6.52938 1.25094 6.875V10.625C1.25094 10.9706 1.53031 11.25 1.87594 11.25H4.37594C4.54219 11.25 4.70094 11.1844 4.81781 11.0669L5.25969 10.625H5.68781L5.17969 12.5H4.37594C3.48469 12.5 2.71156 13.1344 2.53781 14.0069L1.91281 17.1313C1.80156 17.685 1.94344 18.2525 2.30094 18.6888C2.56844 19.0144 2.93031 19.235 3.33031 19.3269L0.0621877 31.3975C-0.200312 32.3975 0.399063 33.4244 1.39906 33.6875C1.55531 33.7288 1.71594 33.75 1.87656 33.75C2.72719 33.75 3.47281 33.175 3.68844 32.3556L7.11469 19.6794L17.7284 29.2812C18.1891 30.4325 19.3116 31.25 20.6259 31.25C20.6709 31.25 38.3259 29.3637 38.3259 29.3637C39.0409 29.2862 39.6384 28.8194 39.8866 28.1444C40.1341 27.4694 39.9797 26.7269 39.4841 26.2075ZM7.00031 9.62062C6.88219 9.46625 6.69906 9.375 6.50406 9.375H5.00094C4.83469 9.375 4.67594 9.44063 4.55906 9.55813L4.11719 10H2.50094V7.5H4.11719L4.55906 7.94187C4.67594 8.05937 4.83469 8.125 5.00094 8.125H8.12594C8.32156 8.125 8.50219 8.21375 8.62156 8.36937C8.73906 8.52125 8.77969 8.7225 8.73156 8.90437L7.75969 12.5H6.47406L7.10719 10.1637C7.15844 9.97562 7.11906 9.775 7.00031 9.62062ZM2.48031 32.0338C2.39344 32.3594 2.05031 32.565 1.71656 32.4794C1.38344 32.3912 1.18281 32.0487 1.26906 31.72L4.61219 19.375H5.90156L2.48031 32.0338ZM19.6622 25.1681C19.4522 25.2362 19.2528 25.325 19.0647 25.4344L9.71656 16.9756L9.90906 16.25H22.7378L19.6622 25.1681ZM18.7509 28.125C18.7509 27.0912 19.5922 26.25 20.6259 26.25C21.6597 26.25 22.5009 27.0912 22.5009 28.125C22.5009 29.1588 21.6597 30 20.6259 30C19.5922 30 18.7509 29.1588 18.7509 28.125ZM23.5866 27.1725C23.4947 26.8888 23.3766 26.6169 23.2122 26.375L26.2034 17.7013L34.1466 26.0413L23.5866 27.1725ZM38.7128 27.7144C38.6297 27.9394 38.4303 28.0956 38.1922 28.1213L23.2997 29.7169C23.5322 29.3288 23.6772 28.8881 23.7216 28.4144L35.5397 27.1488C35.7766 27.1238 35.9778 26.9663 36.0597 26.7431C36.1422 26.52 36.0897 26.2688 35.9259 26.0969L26.4009 16.0956C26.2503 15.9375 26.0278 15.8706 25.8153 15.915C25.6022 15.9619 25.4284 16.1156 25.3578 16.3219L22.2109 25.4469C21.8559 25.2356 21.4572 25.0963 21.0291 25.0413L24.2053 15.8294C24.2709 15.6381 24.2409 15.4269 24.1234 15.2631C24.0059 15.0975 23.8159 15 23.6141 15H9.42781C9.14469 15 8.89594 15.1912 8.82344 15.465L8.41031 17.0238C8.35031 17.2494 8.42219 17.49 8.59531 17.6469L18.1253 26.2694C17.8659 26.6187 17.6722 27.0187 17.5759 27.4575L7.43844 18.2862C7.32406 18.1825 7.17469 18.125 7.01906 18.125H3.75094C3.56281 18.125 3.38656 18.0412 3.26781 17.8956C3.14844 17.7512 3.10094 17.5619 3.13844 17.3775L3.76344 14.2519C3.82094 13.9612 4.07844 13.75 4.37594 13.75H24.4759C24.7428 13.75 24.9803 13.5806 25.0666 13.3288L25.7834 11.25H27.1059L26.2747 13.6606C26.1984 13.8819 26.2522 14.1262 26.4128 14.2956L38.5791 27.0694C38.7434 27.2425 38.7947 27.4894 38.7128 27.7144Z" fill="#1D1D1D"/>
<path d="M20.625 28.75C20.9702 28.75 21.25 28.4702 21.25 28.125C21.25 27.7798 20.9702 27.5 20.625 27.5C20.2798 27.5 20 27.7798 20 28.125C20 28.4702 20.2798 28.75 20.625 28.75Z" fill="#1D1D1D"/>
</g>
<defs>
<clipPath id="clip0_106_16386">
<rect width="40" height="40" fill="white"/>
</clipPath>
</defs>
</svg>
