<svg width="44" height="19" viewBox="0 0 44 19" fill="none" xmlns="http://www.w3.org/2000/svg">
<path d="M23.8214 2.94104L20.7537 3.58973V1.13912L23.8214 0.502441V2.94104Z" fill="#635BFF"/>
<path fill-rule="evenodd" clip-rule="evenodd" d="M30.2007 4.29852C29.003 4.29852 28.233 4.85111 27.8052 5.23552L27.6463 4.49073H24.9575V18.4977L28.013 17.861L28.0252 14.4614C28.4652 14.7737 29.113 15.2182 30.1885 15.2182C32.3763 15.2182 34.3685 13.4883 34.3685 9.68026C34.3562 6.19655 32.3396 4.29852 30.2007 4.29852ZM29.4674 12.5754C28.7463 12.5754 28.3186 12.3231 28.0252 12.0108L28.013 7.554C28.3308 7.20562 28.7708 6.96537 29.4674 6.96537C30.5796 6.96537 31.3496 8.19067 31.3496 9.76435C31.3496 11.3741 30.5919 12.5754 29.4674 12.5754Z" fill="#635BFF"/>
<path fill-rule="evenodd" clip-rule="evenodd" d="M44 9.80039C44 6.72511 42.4845 4.29852 39.5878 4.29852C36.679 4.29852 34.919 6.72511 34.919 9.77637C34.919 13.3922 36.9968 15.2182 39.979 15.2182C41.4334 15.2182 42.5334 14.8938 43.3645 14.4373V12.0348C42.5334 12.4432 41.58 12.6955 40.3701 12.6955C39.1845 12.6955 38.1334 12.287 37.999 10.8695H43.9756C43.9756 10.8038 43.9799 10.6549 43.9849 10.483L43.985 10.48C43.9919 10.2446 44 9.9664 44 9.80039ZM37.9623 8.65917C37.9623 7.30173 38.8056 6.73712 39.5756 6.73712C40.3212 6.73712 41.1156 7.30173 41.1156 8.65917H37.9623Z" fill="#635BFF"/>
<path d="M23.8214 4.50281H20.7537V15.014H23.8214V4.50281Z" fill="#635BFF"/>
<path d="M17.2703 4.50277L17.4658 5.39172C18.1869 4.09434 19.6169 4.35862 20.008 4.50277V7.26572C19.6291 7.13358 18.4069 6.9654 17.6858 7.89039V15.014H14.6303V4.50277H17.2703Z" fill="#635BFF"/>
<path d="M11.3553 1.89594L8.37312 2.5206L8.3609 12.1429C8.3609 13.9208 9.71754 15.2302 11.5264 15.2302C12.5286 15.2302 13.2619 15.05 13.6653 14.8337V12.3951C13.2742 12.5513 11.3431 13.1039 11.3431 11.326V7.06144H13.6653V4.50272H11.3431L11.3553 1.89594Z" fill="#635BFF"/>
<path d="M4.13105 6.9053C3.48328 6.9053 3.09217 7.0855 3.09217 7.554C3.09217 8.06552 3.76527 8.29054 4.60032 8.5697C5.96166 9.02479 7.75341 9.62378 7.76099 11.8426C7.76099 13.9929 6.01324 15.2302 3.47106 15.2302C2.41996 15.2302 1.27109 15.026 0.134442 14.5455V11.6864C1.16109 12.239 2.45663 12.6474 3.47106 12.6474C4.15549 12.6474 4.64437 12.4672 4.64437 11.9146C4.64437 11.348 3.91472 11.089 3.03383 10.7764C1.6923 10.3002 0 9.69953 0 7.69815C0 5.57188 1.64997 4.29852 4.13105 4.29852C5.14548 4.29852 6.14768 4.45469 7.16211 4.85111V7.67412C6.23324 7.1816 5.05992 6.9053 4.13105 6.9053Z" fill="#635BFF"/>
</svg>
