<svg width="33" height="12" viewBox="0 0 33 12" fill="none" xmlns="http://www.w3.org/2000/svg">
<path d="M16.7191 1.11104L14.5735 11.2643H11.9791L14.125 1.11104H16.7191ZM27.635 7.66704L29.001 3.85414L29.787 7.66704H27.635ZM30.5298 11.2643H32.9296L30.8355 1.11104H28.6204C28.1226 1.11104 27.7026 1.40411 27.5157 1.85594L23.6232 11.2643H26.3478L26.8887 9.74815H30.2174L30.5298 11.2643ZM23.7584 7.94919C23.7695 5.2694 20.0977 5.12189 20.123 3.92484C20.1307 3.5601 20.4738 3.17319 21.2233 3.07389C21.5957 3.02472 22.6194 2.98712 23.7819 3.52861L24.2371 1.37551C23.6127 1.14607 22.8092 0.925293 21.8099 0.925293C19.2456 0.925293 17.4407 2.30552 17.4254 4.28187C17.4092 5.7434 18.7139 6.559 19.697 7.0449C20.7078 7.54268 21.0474 7.86146 21.043 8.30654C21.0363 8.98814 20.2367 9.28829 19.4907 9.30018C18.186 9.32107 17.4289 8.94379 16.8255 8.65907L16.3553 10.8838C16.9613 11.1657 18.0803 11.4105 19.2412 11.4231C21.9664 11.4231 23.7495 10.0599 23.7584 7.94919ZM13.0117 1.11104L8.80812 11.2643H6.0651L3.99664 3.1613C3.87094 2.66223 3.76174 2.4797 3.37985 2.26921C2.75671 1.92696 1.72661 1.60528 0.820312 1.40604L0.882214 1.11104H5.29689C5.8594 1.11104 6.36572 1.49024 6.49333 2.14613L7.58597 8.02182L10.2858 1.11104H13.0117Z" fill="#1434CB"/>
</svg>
